<svg width="207" height="100" viewBox="0 0 207 100" fill="none" xmlns="http://www.w3.org/2000/svg">
<path d="M133.523 72.3044C130.474 84.4894 119.459 93.5134 106.33 93.5134C94.8028 93.5134 87.329 88.3259 80.6173 76.6518L73.1694 63.8087L72.5719 62.7521L71.7665 61.3405L70.9264 59.9288L68.8826 56.508V31.1508H62.9243V46.8481C61.0451 44.1115 58.802 41.5258 56.2299 39.4473L55.3812 38.7805C55.1041 38.5813 54.8356 38.3821 54.5672 38.1742C54.5498 38.1656 54.5325 38.1569 54.5152 38.1483C54.2208 37.9404 53.9263 37.7412 53.6232 37.5334C53.1555 37.2303 52.7277 36.9531 52.2427 36.6674H52.1942C52.0557 36.5894 51.9258 36.4941 51.7959 36.4249C51.7872 36.4249 51.7699 36.4075 51.7612 36.4075C51.4495 36.2343 51.1377 36.0611 50.8173 35.8793C50.4968 35.7147 50.1764 35.5502 49.856 35.3856C49.2065 35.0739 48.2192 34.7033 47.5523 34.4262C46.3486 33.9239 45.4306 33.5497 44.1489 33.1859C42.9191 32.8395 41.6807 32.5537 40.3903 32.3459C40.0525 32.2853 39.7061 32.242 39.3597 32.19C38.6323 32.0947 37.8875 32.0168 37.1427 31.9648C36.7357 31.9388 36.3113 31.9129 35.8956 31.9042C35.5492 31.8955 35.1855 31.8869 34.8217 31.8869H34.8131C34.4234 31.8869 34.025 31.8955 33.6353 31.9042C33.4188 31.9129 33.2109 31.9215 32.9944 31.9302C32.7173 31.9388 32.4488 31.9562 32.189 31.9908C31.4789 32.0428 30.7687 32.1207 30.0759 32.216C29.7555 32.2593 29.435 32.3026 29.1233 32.3632C29.0453 32.3719 28.9674 32.3805 28.8981 32.4065C28.4738 32.4844 28.0407 32.5624 27.625 32.649C27.0361 32.7789 26.4646 32.9175 25.893 33.0733C25.5985 33.1513 25.3041 33.2379 25.0096 33.3245C24.9057 33.3505 24.7931 33.3851 24.6892 33.4198C24.3774 33.515 24.0743 33.6103 23.7712 33.7229C23.1563 33.9307 22.5674 34.1472 21.9699 34.3897C21.6408 34.5283 21.3204 34.6668 20.9913 34.8054C19.8654 35.3077 18.7656 35.8793 17.709 36.5028C17.4579 36.6414 17.2154 36.7886 16.9729 36.9445C16.1069 37.4728 15.2582 38.0443 14.4528 38.6592C14.193 38.8671 13.9158 39.0662 13.656 39.2741C13.3962 39.4906 13.1277 39.6984 12.8679 39.915C12.6168 40.1401 12.3656 40.3566 12.1058 40.5905C11.8547 40.8156 11.6122 41.0408 11.3697 41.2746C11.1186 41.5084 10.8847 41.7423 10.6422 41.9848C10.4084 42.2273 10.1746 42.4697 9.94076 42.7122C9.75024 42.9287 9.54239 43.1366 9.3432 43.3617C9.29124 43.4137 9.2566 43.457 9.20464 43.5176C8.99679 43.7515 8.79761 43.9853 8.59842 44.2278C8.15675 44.756 7.74105 45.293 7.33402 45.8472C7.14349 46.1071 6.95297 46.3755 6.77976 46.6353C6.7711 46.644 6.76244 46.644 6.76244 46.6526C4.52809 49.9002 2.83068 53.5635 1.82608 57.4953C1.19388 59.9462 0.830153 62.5183 0.778192 65.151C0.769531 65.4108 0.769531 65.6793 0.769531 65.9477C0.769531 66.528 0.786852 67.1169 0.821493 67.6971C0.821493 67.905 0.838813 68.0955 0.847474 68.3033C0.864794 68.5631 0.882115 68.8316 0.916756 69.0828C0.925416 69.256 0.942737 69.4292 0.968718 69.6024C0.986038 69.8275 1.02068 70.0614 1.04666 70.2952C1.0813 70.5983 1.1246 70.9014 1.17656 71.1872C1.26317 71.7328 1.35843 72.2784 1.47101 72.8153C1.59226 73.3696 1.7135 73.9152 1.85207 74.4608C2.06857 75.2749 2.3024 76.0889 2.57087 76.877C2.63149 77.0502 2.68345 77.2234 2.75273 77.4053C2.81336 77.5698 2.86532 77.743 2.9346 77.9076C3.68804 79.9168 4.60603 81.822 5.70589 83.6147C5.81847 83.8139 5.93972 84.0044 6.0523 84.1863C6.23417 84.4721 6.42469 84.7579 6.60656 85.035C6.90967 85.4767 7.22144 85.9097 7.53321 86.3254C7.8623 86.767 8.18273 87.1827 8.51182 87.5898C9.04009 88.222 9.59435 88.8455 10.1659 89.4517C10.3651 89.6423 10.547 89.8414 10.7375 90.032C11.3091 90.6122 11.9153 91.1751 12.5388 91.7034C12.7467 91.8766 12.9459 92.0498 13.1624 92.2317C13.5781 92.5694 14.0111 92.9158 14.4441 93.2449C14.6606 93.4095 14.8858 93.5653 15.1023 93.7212C15.3275 93.8771 15.5526 94.033 15.7778 94.1889C16.2281 94.5007 16.6958 94.8038 17.1634 95.0722C17.8649 95.4966 18.5837 95.895 19.3198 96.276C19.5623 96.4059 19.8048 96.5185 20.056 96.6484C20.2985 96.761 20.5496 96.8822 20.8007 96.9948C21.0519 97.1161 21.303 97.22 21.5629 97.3239C22.0305 97.5144 22.4982 97.705 22.9745 97.8868C23.3815 98.0427 23.8059 98.1813 24.2216 98.3112C24.4554 98.3891 24.6892 98.4671 24.9317 98.5363C25.1136 98.597 25.3128 98.6489 25.4946 98.7009C25.7025 98.7615 25.9103 98.8135 26.1268 98.8741C26.4559 98.9607 26.785 99.0473 27.1227 99.1166C27.3133 99.1685 27.5125 99.2032 27.6943 99.2465C29.2532 99.5842 30.8467 99.8094 32.4661 99.922C32.9425 99.948 33.4274 99.9739 33.9124 99.9913C34.2155 99.9999 34.5013 99.9999 34.8044 99.9999C35.1422 99.9999 35.4799 99.9913 35.8177 99.9826C36.0688 99.9826 36.32 99.974 36.5711 99.9566C36.8482 99.948 37.108 99.9307 37.3765 99.9047C37.7922 99.8787 38.2252 99.8354 38.6409 99.7921C39.377 99.7055 40.1218 99.5929 40.8406 99.4717C40.9965 99.4457 41.1524 99.411 41.3083 99.3851C41.5854 99.3331 41.8452 99.2811 42.105 99.2205C42.2436 99.1945 42.3648 99.1599 42.5034 99.1339C43.2568 98.9607 44.0016 98.7615 44.7291 98.5363C45.0668 98.4324 45.4046 98.3198 45.7337 98.2159C45.7943 98.1899 45.8463 98.1726 45.8982 98.1553C47.0587 97.7569 48.1932 97.2979 49.2931 96.7697C50.0205 96.4319 50.7393 96.0509 51.4408 95.6611C51.7872 95.462 52.1423 95.2628 52.48 95.0463C52.8265 94.8384 53.1729 94.6306 53.5019 94.4054C53.831 94.1802 54.1775 93.9551 54.4979 93.7212C54.5065 93.7212 54.5152 93.7126 54.5152 93.7126C54.8356 93.4788 55.1561 93.2449 55.4678 93.0024C55.7796 92.7599 56.1 92.5175 56.4118 92.2663C57.3384 91.5042 58.2305 90.6901 59.0705 89.8328C61.8764 86.9749 64.1801 83.6234 65.8515 79.9254L61.9544 72.9539C61.8591 73.3263 61.7465 73.7073 61.6426 74.0624C61.5473 74.3915 61.4348 74.7293 61.3222 75.0497C61.3049 75.119 61.2875 75.1883 61.2529 75.2489C61.149 75.5866 61.0191 75.933 60.8718 76.2621C60.7419 76.6259 60.5861 76.9809 60.4215 77.336C60.2743 77.6824 60.1184 78.0288 59.9365 78.3666C59.772 78.713 59.5988 79.0594 59.4083 79.3885C59.0532 80.064 58.6548 80.7135 58.2305 81.3457C57.6156 82.2897 56.9401 83.2077 56.1953 84.065C56.1866 84.0824 56.1693 84.091 56.152 84.117C55.6757 84.6799 55.182 85.2255 54.6451 85.7538C54.4026 86.0136 54.1342 86.2734 53.8657 86.5159C53.8484 86.5246 53.831 86.5419 53.8137 86.5505C53.5712 86.7844 53.3201 87.0095 53.0689 87.2087C53.0256 87.2433 52.9823 87.2867 52.9304 87.3386C52.6965 87.5378 52.4627 87.7283 52.2289 87.9015C52.1423 87.9881 52.047 88.0574 51.9431 88.1267C51.7006 88.3346 51.4495 88.5164 51.1897 88.6896C51.181 88.6983 51.1723 88.7069 51.1637 88.7069C50.8606 88.9408 50.5488 89.1573 50.237 89.3478C49.7347 89.6855 49.2151 90.0146 48.6782 90.3091C48.2105 90.5689 47.7342 90.8374 47.2579 91.0712C47.0241 91.2011 46.7816 91.3137 46.5304 91.4176C46.3053 91.5215 46.0801 91.6255 45.8463 91.7207C45.751 91.7727 45.6471 91.8073 45.5432 91.8506C45.2574 91.9805 44.9543 92.0931 44.6685 92.197C44.5386 92.249 44.426 92.2923 44.2961 92.3356C44.0363 92.4309 43.7678 92.5348 43.4993 92.6127C42.9191 92.8032 42.3129 92.9851 41.7067 93.141C41.2736 93.2449 40.8579 93.3488 40.4249 93.4354H40.4163C40.0699 93.5134 39.7148 93.5827 39.3597 93.6346C39.1172 93.6866 38.8661 93.7212 38.6236 93.7472C38.4504 93.7732 38.2772 93.7992 38.104 93.8078C37.8615 93.8425 37.619 93.8771 37.3765 93.8858C37.16 93.9118 36.9522 93.9377 36.727 93.9377C36.5105 93.9637 36.3026 93.981 36.0861 93.981C35.6618 94.007 35.2201 94.0157 34.7871 94.0157C26.9149 94.0157 19.7962 90.7767 14.7039 85.5373C14.167 84.9917 13.656 84.4201 13.1537 83.8225C12.1838 82.6361 11.2918 81.3717 10.5123 80.038C10.1226 79.3625 9.7589 78.6783 9.42981 77.9769C9.26526 77.6218 9.10072 77.2667 8.95349 76.9116C8.4945 75.8291 8.10478 74.7206 7.78435 73.5774C7.68043 73.1964 7.57651 72.8153 7.48991 72.4256C6.99627 70.3558 6.7278 68.1908 6.7278 65.9737C6.7278 65.0124 6.77976 64.0511 6.87503 63.0985C7.68043 55.1397 11.8114 48.1682 17.8563 43.5869H17.8649C18.5404 43.0846 19.2246 42.6083 19.9347 42.158C20.2985 41.9328 20.6622 41.7163 21.0346 41.5084C21.7707 41.1014 22.5328 40.7204 23.3036 40.3653C26.811 38.7978 30.6821 37.9231 34.7698 37.9231H34.8217C35.2288 37.9231 35.6358 37.9318 36.0515 37.9577C36.1381 37.9491 36.2247 37.9577 36.3026 37.9664C36.7183 37.9751 37.134 38.0184 37.5411 38.053C37.6103 38.0617 37.6883 38.0617 37.7576 38.0703C38.13 38.105 38.4937 38.1569 38.8574 38.2089C39.0046 38.2262 39.1432 38.2435 39.2818 38.2782C39.6195 38.3388 39.9573 38.3994 40.2864 38.4514C40.5029 38.5033 40.7021 38.538 40.9099 38.5986C41.5594 38.7372 42.1916 38.9017 42.8238 39.0922C43.075 39.1615 43.3348 39.2395 43.5773 39.3261C44.1835 39.5339 44.7811 39.7417 45.3786 39.9842C45.6298 40.0795 45.8809 40.1921 46.1321 40.3047C46.617 40.5125 47.0933 40.729 47.5523 40.9888C47.6303 41.0321 47.7169 41.0754 47.7948 41.1187C48.0287 41.2227 48.2538 41.3526 48.479 41.4911C48.9899 41.7596 49.4836 42.0627 49.9686 42.3831C50.211 42.5304 50.4535 42.6862 50.6874 42.8594C51.0857 43.1279 51.4668 43.4137 51.8392 43.7168C51.9171 43.7774 51.9951 43.8294 52.073 43.89C52.2982 44.0546 52.5233 44.2278 52.7485 44.4356C52.9737 44.6175 53.1815 44.808 53.4067 44.9985C53.6232 45.1717 53.8397 45.3709 54.0389 45.5788C54.2554 45.7606 54.4632 45.9685 54.6624 46.185C55.0781 46.592 55.4678 47.0164 55.8402 47.4494C56.2299 47.8737 56.6023 48.3241 56.9401 48.7831C57.477 49.4759 57.9707 50.186 58.4383 50.9135L58.5076 51.0088C59.0272 51.8402 59.5035 52.6889 59.9365 53.5722L60.0664 53.806L61.8764 57.0277L68.6834 69.152V69.178L70.8918 72.7894L71.0217 73.0318L77.0059 82.8439C82.9469 92.8379 93.8329 99.5323 106.304 99.5323C120.221 99.5323 132.198 91.1751 137.481 79.198L136.069 76.877L133.523 72.3044Z" fill="#ED6A23"/>
<mask id="mask0_47_56722" style="mask-type:luminance" maskUnits="userSpaceOnUse" x="146" y="31" width="60" height="28">
<path d="M176.675 31.437C176.493 31.437 176.303 31.4456 176.129 31.4543C175.757 31.4716 175.402 31.4976 175.03 31.5322C174.545 31.5669 174.068 31.6275 173.583 31.6881C173.22 31.7401 172.873 31.7834 172.509 31.844C172.111 31.9046 171.721 31.9826 171.332 32.0605C170.925 32.1385 170.526 32.2251 170.128 32.3203C169.981 32.3463 169.842 32.3896 169.712 32.4156C169.478 32.4762 169.244 32.5455 169.019 32.5975C168.448 32.7533 167.868 32.9179 167.313 33.1171C167.045 33.2037 166.759 33.2989 166.482 33.4029C165.98 33.5847 165.477 33.7753 164.984 33.9744C164.343 34.2343 163.711 34.52 163.096 34.8318C162.879 34.9271 162.68 35.0397 162.463 35.1436C162.204 35.2735 161.944 35.4034 161.693 35.5506C161.442 35.6892 161.19 35.8364 160.931 35.9836C160.654 36.1309 160.394 36.2867 160.143 36.4513C159.666 36.7457 159.199 37.0575 158.731 37.3693C158.021 37.8629 157.319 38.3825 156.652 38.9195C156.202 39.2832 155.769 39.6556 155.336 40.0366C155.12 40.2358 154.912 40.4263 154.695 40.6169C154.479 40.7987 154.28 41.0066 154.072 41.2058C153.864 41.4136 153.665 41.6128 153.465 41.8207C153.258 42.0285 153.058 42.2363 152.868 42.4529C152.253 43.1197 151.664 43.8125 151.11 44.5313C150.547 45.2501 150.01 45.9949 149.516 46.7483C149.005 47.5191 148.546 48.2985 148.096 49.1039C147.672 49.892 147.256 50.6974 146.892 51.5288C146.884 51.5375 146.875 51.5548 146.875 51.5721L150.815 58.457C150.919 58.05 151.041 57.643 151.162 57.2273C151.205 57.0627 151.257 56.8982 151.318 56.7423C151.404 56.4565 151.5 56.1794 151.604 55.9023C151.681 55.6771 151.768 55.4519 151.855 55.2268C151.915 55.0536 151.976 54.889 152.054 54.7245C152.149 54.482 152.262 54.2395 152.374 53.997C152.677 53.2955 153.015 52.6027 153.396 51.9445C153.526 51.7107 153.656 51.4769 153.795 51.243C153.95 50.9659 154.124 50.6974 154.288 50.429C154.609 49.9267 154.946 49.4157 155.31 48.9307C155.345 48.8701 155.397 48.8182 155.449 48.7575C155.587 48.5583 155.734 48.3765 155.873 48.1946C156.09 47.9002 156.323 47.623 156.566 47.3372C156.973 46.8523 157.397 46.3846 157.839 45.9343L158.506 45.2588C158.74 45.0336 158.973 44.8258 159.207 44.6093C159.441 44.3841 159.684 44.1849 159.926 43.9857C160.169 43.7779 160.411 43.5787 160.662 43.3795C160.861 43.2236 161.061 43.0677 161.26 42.9205C161.398 42.8252 161.537 42.7213 161.658 42.6347C161.84 42.4962 162.03 42.3749 162.212 42.245C162.741 41.8813 163.269 41.5435 163.823 41.2231C164.1 41.0585 164.369 40.9113 164.646 40.7554C164.663 40.7468 164.689 40.7381 164.707 40.7208C164.966 40.5736 165.243 40.435 165.521 40.3051C166.283 39.9241 167.045 39.5863 167.833 39.2832C168.11 39.1793 168.378 39.0753 168.656 38.9801C169.149 38.8069 169.652 38.6423 170.154 38.4951C170.544 38.3912 170.933 38.2786 171.323 38.192C171.349 38.1833 171.384 38.1747 171.41 38.1747C171.695 38.1054 171.981 38.0361 172.267 37.9842C172.466 37.9409 172.657 37.9062 172.839 37.8629C173.185 37.8023 173.549 37.7417 173.895 37.6984C174.112 37.6724 174.319 37.6377 174.536 37.6204C174.692 37.5944 174.848 37.5771 175.004 37.5598C175.255 37.5338 175.506 37.4992 175.766 37.4905C175.844 37.4819 175.922 37.4732 176.008 37.4732C176.294 37.4559 176.562 37.4386 176.848 37.4212C177.212 37.4126 177.567 37.4039 177.939 37.4039C187.63 37.4039 196.169 42.323 201.201 49.7968L205.514 45.4839C205.514 45.4839 205.453 45.3973 205.418 45.354C205.263 45.1289 205.098 44.9124 204.933 44.7132C204.778 44.4967 204.613 44.2975 204.44 44.081C204.111 43.6653 203.756 43.2496 203.401 42.8426C203.227 42.6434 203.037 42.4442 202.864 42.2537C202.682 42.0545 202.491 41.864 202.301 41.6734C202.11 41.4829 201.928 41.2924 201.738 41.1105C201.357 40.7295 200.958 40.3744 200.56 40.0107C200.352 39.8375 200.162 39.6642 199.954 39.4824C199.746 39.3092 199.538 39.136 199.33 38.9628C198.473 38.2699 197.59 37.6204 196.663 37.0055C196.455 36.8756 196.256 36.7457 196.048 36.6158C191.432 33.706 186.08 31.8873 180.33 31.4889C179.845 31.4543 179.342 31.4283 178.84 31.411C178.537 31.4023 178.234 31.4023 177.931 31.4023C177.489 31.4023 177.056 31.411 176.623 31.4283" fill="white"/>
</mask>
<g mask="url(#mask0_47_56722)">
<path d="M205.545 31.411H146.863V58.4657H205.545V31.411Z" fill="url(#paint0_linear_47_56722)"/>
</g>
<path d="M151.158 57.2361L150.733 57.1408C150.776 56.9416 150.846 56.7598 150.906 56.6039L151.313 56.7598L150.898 56.6299C150.984 56.3354 151.088 56.0496 151.184 55.7725L151.591 55.9197L151.184 55.7811C151.261 55.5473 151.357 55.3135 151.443 55.097L151.85 55.2529L151.443 55.1143C151.504 54.9238 151.582 54.7419 151.668 54.56L152.058 54.7419L151.66 54.5774C151.764 54.3262 151.876 54.0751 151.989 53.8239L152.379 54.0144L151.98 53.8412C152.283 53.1224 152.638 52.421 153.019 51.7455L153.392 51.962L153.011 51.7541C153.141 51.5116 153.279 51.2778 153.418 51.044C153.582 50.7582 153.756 50.4897 153.92 50.2212C154.249 49.7103 154.596 49.1907 154.959 48.697L155.306 48.9568L154.942 48.7144C155.003 48.6278 155.055 48.5585 155.107 48.4979L155.436 48.775L155.081 48.5238C155.228 48.316 155.375 48.1255 155.522 47.9349L155.86 48.2034L155.514 47.9436C155.739 47.6405 155.981 47.346 156.224 47.0602L156.553 47.346L156.224 47.0689C156.639 46.5753 157.064 46.099 157.523 45.64L158.198 44.9645C158.441 44.7306 158.675 44.5141 158.908 44.3063L159.203 44.6267L158.9 44.3149C159.142 44.0811 159.402 43.8646 159.653 43.6654L159.922 44.0032L159.645 43.6741C159.887 43.4662 160.138 43.2584 160.398 43.0592L160.667 43.4056L160.398 43.0679C160.597 42.9033 160.805 42.7474 161.004 42.6002C161.143 42.5049 161.281 42.401 161.411 42.3144L161.654 42.6695L161.394 42.3231C161.584 42.1845 161.775 42.0546 161.957 41.9247C162.494 41.561 163.031 41.2146 163.602 40.8855L163.819 41.2579L163.594 40.8855C163.879 40.7123 164.157 40.565 164.434 40.4092H164.442L164.451 40.4005L164.503 40.3745L164.694 40.7642L164.486 40.3832C164.763 40.2359 165.04 40.0887 165.326 39.9502C166.096 39.5691 166.876 39.214 167.681 38.9109C167.958 38.7983 168.244 38.7031 168.521 38.5992C169.024 38.426 169.526 38.2527 170.046 38.1055C170.435 38.0016 170.834 37.889 171.232 37.8024L171.327 38.2268L171.197 37.8111C171.197 37.8111 171.293 37.7764 171.414 37.7678V38.2008L171.31 37.7764C171.596 37.7072 171.89 37.6379 172.176 37.5772C172.367 37.5339 172.566 37.4993 172.748 37.4647H172.756H172.765C173.12 37.404 173.484 37.3434 173.839 37.3001C174.055 37.2741 174.272 37.2395 174.497 37.2222L174.54 37.6552L174.462 37.2308C174.636 37.1962 174.809 37.1789 174.982 37.1702L175.008 37.6032L174.956 37.1702C175.207 37.1442 175.476 37.1096 175.753 37.1009L175.77 37.5339L175.718 37.1009C175.796 37.0923 175.891 37.0749 176.013 37.0749V37.508L175.987 37.0749C176.272 37.0576 176.541 37.0403 176.835 37.023C177.199 37.0143 177.563 37.0057 177.935 37.0057C187.773 37.0057 196.442 41.994 201.56 49.5891L201.205 49.8315L200.902 49.5284L205.215 45.2156L205.518 45.5187L205.172 45.7785C205.12 45.7092 205.094 45.6659 205.076 45.6486V45.6313C204.929 45.4148 204.773 45.2156 204.609 45.0164V44.9991C204.462 44.7999 204.306 44.6007 204.124 44.3842C203.803 43.9772 203.457 43.5702 203.093 43.1631C202.92 42.9726 202.738 42.7648 202.556 42.5742L202.877 42.2884L202.565 42.5829C202.383 42.3837 202.201 42.1932 202.011 42.0026C201.82 41.8121 201.638 41.6216 201.456 41.4484C201.084 41.076 200.694 40.7209 200.296 40.3659L200.582 40.0454L200.296 40.3745C200.088 40.1926 199.889 40.0194 199.69 39.8462C199.491 39.673 199.283 39.4998 199.075 39.3353C198.226 38.6511 197.351 38.0103 196.442 37.404L196.685 37.0403L196.451 37.404C196.243 37.2741 196.035 37.1356 195.836 37.0143C191.281 34.1391 185.998 32.3464 180.317 31.9481C179.84 31.9134 179.355 31.8874 178.844 31.8701C178.55 31.8615 178.256 31.8615 177.952 31.8615C177.519 31.8615 177.086 31.8701 176.671 31.8874H176.662H176.653C176.48 31.8874 176.307 31.8961 176.134 31.9048C175.77 31.9221 175.415 31.9567 175.043 31.9827C174.566 32.0174 174.099 32.078 173.614 32.1386L173.562 31.7056L173.622 32.1386C173.267 32.1906 172.921 32.2339 172.566 32.2945C172.185 32.3551 171.795 32.4244 171.405 32.5023C171.007 32.5803 170.617 32.6669 170.219 32.7621H170.21C170.089 32.7881 169.95 32.8228 169.794 32.8574L169.699 32.433L169.803 32.8574C169.578 32.9094 169.353 32.9786 169.119 33.0393C168.547 33.1951 167.984 33.3597 167.448 33.5416C167.179 33.6282 166.902 33.7234 166.633 33.8187C166.131 34.0006 165.638 34.1824 165.153 34.3816C164.52 34.6414 163.897 34.9185 163.299 35.2217H163.291C163.091 35.3169 162.892 35.4208 162.667 35.5248C162.416 35.646 162.173 35.7759 161.931 35.9145C161.688 36.0444 161.437 36.1916 161.186 36.3388C160.926 36.4774 160.675 36.6246 160.433 36.7892C159.965 37.075 159.506 37.3867 159.038 37.6985L158.796 37.3348L159.047 37.6898C158.346 38.1835 157.653 38.6944 156.986 39.2227C156.544 39.5778 156.111 39.9502 155.687 40.3226L155.401 40.0021L155.696 40.3226C155.479 40.5217 155.271 40.7123 155.055 40.9115C154.855 41.0847 154.656 41.2838 154.457 41.483C154.249 41.6909 154.05 41.8901 153.86 42.0892C153.66 42.2884 153.461 42.4963 153.288 42.6955V42.7041C152.682 43.371 152.093 44.0551 151.547 44.7566C150.993 45.4668 150.465 46.1942 149.971 46.9477C149.469 47.7098 149.01 48.4805 148.568 49.2773C148.144 50.0567 147.737 50.8534 147.373 51.6675L147.338 51.7368L147.278 51.7974L147.018 51.5376H147.382C147.373 51.6762 147.356 51.7022 147.278 51.7974L147.018 51.5376H147.382H146.949L147.321 51.3211L151.261 58.206L150.889 58.4225L150.473 58.3099C150.586 57.8943 150.699 57.4786 150.828 57.0629L151.244 57.1928L151.66 57.3227C151.539 57.7297 151.417 58.1281 151.313 58.5351L151.045 59.557L146.516 51.6589V51.5463C146.524 51.3644 146.568 51.3038 146.663 51.1912L146.966 51.4943L146.568 51.3211C146.94 50.4811 147.356 49.667 147.789 48.8702C148.239 48.0475 148.715 47.2594 149.226 46.48C149.729 45.7092 150.274 44.9645 150.846 44.2283C151.409 43.5009 152.015 42.7994 152.63 42.1239L152.95 42.4183L152.621 42.1326C152.812 41.9074 153.028 41.6822 153.236 41.4744L153.539 41.7775L153.227 41.483C153.427 41.2752 153.634 41.0673 153.842 40.8595C154.05 40.6516 154.258 40.4438 154.483 40.2446L154.769 40.5737L154.474 40.2533C154.691 40.0627 154.899 39.8636 155.115 39.673C155.548 39.292 155.99 38.9109 156.449 38.5385C157.133 37.9929 157.835 37.4733 158.553 36.971C159.021 36.6593 159.489 36.3475 159.982 36.0444L160.208 36.4168L159.974 36.053C160.233 35.8798 160.511 35.7153 160.796 35.5681L161.004 35.9491L160.788 35.5767C161.039 35.4295 161.299 35.2823 161.559 35.1437L161.766 35.5248L161.55 35.1524C161.81 35.0051 162.069 34.8579 162.347 34.728C162.554 34.6241 162.762 34.5115 162.996 34.4076L163.178 34.7973L162.979 34.4076C163.602 34.0872 164.243 33.8014 164.901 33.5329C165.404 33.3251 165.906 33.1345 166.417 32.9527C166.694 32.8487 166.98 32.7535 167.257 32.6669L167.387 33.0826L167.24 32.6755C167.811 32.4763 168.391 32.3031 168.972 32.1473C169.188 32.0866 169.422 32.0173 169.665 31.9567C169.786 31.9307 169.924 31.8961 170.089 31.8615L170.175 32.2858L170.072 31.8615C170.479 31.7662 170.886 31.6709 171.301 31.593C171.691 31.5151 172.089 31.4371 172.496 31.3765L172.557 31.8008L172.488 31.3765C172.852 31.3159 173.207 31.2726 173.57 31.2206C174.055 31.16 174.54 31.0994 175.043 31.0647C175.415 31.0387 175.779 31.0041 176.151 30.9868C176.324 30.9781 176.523 30.9695 176.723 30.9695V31.4025L176.705 30.9695C177.138 30.9521 177.589 30.9348 178.03 30.9348C178.333 30.9348 178.637 30.9348 178.948 30.9435C179.451 30.9608 179.953 30.9868 180.455 31.0214L180.421 31.4544L180.447 31.0214C186.275 31.4285 191.696 33.2644 196.364 36.2176L196.13 36.5813L196.355 36.2089C196.572 36.3388 196.771 36.4774 196.97 36.5986C197.906 37.2222 198.806 37.8804 199.672 38.5818C199.88 38.7464 200.097 38.9282 200.305 39.1015C200.512 39.2833 200.712 39.4565 200.911 39.6297C201.309 39.9935 201.716 40.3572 202.106 40.7469L201.803 41.05L202.097 40.7382C202.305 40.9374 202.496 41.128 202.669 41.3098C202.868 41.509 203.059 41.7082 203.24 41.8987V41.9074C203.414 42.0979 203.595 42.3058 203.777 42.5049C204.141 42.9206 204.496 43.3363 204.834 43.7607L204.496 44.0291L204.834 43.752C205.007 43.9685 205.18 44.1764 205.345 44.4015L204.998 44.6527L205.336 44.3842C205.509 44.5921 205.674 44.8172 205.839 45.0511L205.483 45.3022L205.83 45.0424C205.882 45.1117 205.908 45.155 205.925 45.181L206.15 45.4841L201.205 50.4291L200.911 49.9961C195.948 42.6348 187.539 37.8024 178.004 37.8024C177.641 37.8024 177.286 37.8111 176.922 37.8197C176.645 37.8284 176.385 37.8457 176.099 37.8717H176.082H176.064L175.874 37.889H175.857H175.839C175.605 37.889 175.372 37.9237 175.112 37.9583H175.103H175.095C174.956 37.9583 174.817 37.9843 174.679 38.0103H174.662H174.644C174.445 38.0276 174.237 38.0536 174.021 38.0882C173.674 38.1315 173.319 38.1921 172.973 38.2527L172.903 37.8284L172.99 38.2527C172.8 38.296 172.609 38.3307 172.41 38.374C172.133 38.4346 171.847 38.4952 171.57 38.5645H171.518L171.466 38.5732V38.426L171.509 38.5645H171.466V38.426L171.509 38.5645H171.492L171.475 38.5732C171.102 38.6598 170.712 38.7637 170.323 38.8676L170.21 38.4519L170.331 38.8676C169.838 39.0149 169.344 39.1707 168.859 39.3439C168.582 39.4392 168.314 39.5345 168.045 39.6384C167.274 39.9328 166.512 40.2706 165.767 40.643C165.49 40.7729 165.222 40.9115 164.971 41.05H164.962L164.893 41.0847L164.702 40.6949L164.91 41.076C164.624 41.2319 164.356 41.3791 164.096 41.535C163.55 41.8468 163.031 42.1845 162.511 42.5396C162.329 42.6695 162.147 42.7907 161.966 42.9206C161.844 43.0072 161.706 43.1025 161.576 43.1978L161.325 42.8427L161.584 43.1891C161.394 43.3363 161.186 43.4836 161.004 43.6394C160.762 43.83 160.519 44.0292 160.277 44.2283C160.043 44.4189 159.809 44.6181 159.584 44.8259C159.35 45.0424 159.116 45.2503 158.891 45.4668L158.588 45.155L158.891 45.4581L158.224 46.1249C157.791 46.558 157.376 47.0169 156.977 47.5019C156.735 47.779 156.51 48.0562 156.31 48.3333V48.3506C156.163 48.5325 156.025 48.7144 155.895 48.8962V48.9135L155.869 48.9309C155.825 48.9915 155.782 49.0348 155.765 49.0694V49.0868C155.41 49.5631 155.081 50.0567 154.76 50.559L154.396 50.3252L154.769 50.5503C154.596 50.8275 154.431 51.0959 154.275 51.3557C154.137 51.5896 154.007 51.8234 153.886 52.0486V52.0572C153.513 52.7067 153.184 53.3822 152.89 54.0664V54.0837C152.777 54.3176 152.673 54.5514 152.578 54.7852V54.8112C152.509 54.9671 152.448 55.1143 152.396 55.2702V55.2875C152.309 55.5127 152.223 55.7292 152.145 55.9457C152.05 56.2228 151.954 56.4999 151.868 56.7684V56.7944C151.807 56.9416 151.764 57.0888 151.729 57.2274V57.2447V57.262L151.313 57.1321L151.158 57.2361Z" fill="url(#paint1_linear_47_56722)"/>
<path d="M177.971 93.5135C177.434 93.5135 176.897 93.4962 176.377 93.4616C175.979 93.4442 175.58 93.4183 175.182 93.3663C175.121 93.3663 175.078 93.3663 175.026 93.3576C174.636 93.3143 174.238 93.271 173.848 93.2104C173.744 93.2017 173.641 93.1844 173.545 93.1671C173.208 93.1152 172.861 93.0459 172.532 92.9852C172.255 92.9333 171.995 92.89 171.727 92.8207C171.432 92.7514 171.155 92.6821 170.869 92.6129C169.83 92.3444 168.808 92.0066 167.821 91.6169C167.596 91.5303 167.371 91.4351 167.145 91.3398C166.582 91.1146 166.037 90.8635 165.509 90.595C165.231 90.4564 164.972 90.3179 164.712 90.1793C164.184 89.8935 163.673 89.5991 163.153 89.2786C162.651 88.9582 162.148 88.6291 161.663 88.2741C161.421 88.1008 161.178 87.9276 160.936 87.7371C160.693 87.5639 160.46 87.3734 160.234 87.1829C159.767 86.8105 159.316 86.4208 158.883 86.0051C158.71 85.8405 158.537 85.676 158.364 85.5114C158.286 85.4508 158.208 85.3729 158.139 85.2949C157.965 85.1217 157.792 84.9312 157.61 84.7493C157.403 84.5328 157.212 84.325 157.004 84.0998C156.814 83.8833 156.614 83.6581 156.433 83.4243C156.242 83.1905 156.052 82.9566 155.878 82.7228C155.696 82.489 155.515 82.2552 155.341 82.0213C155.168 81.7788 154.995 81.5364 154.822 81.2939C154.64 81.0167 154.449 80.7396 154.268 80.4538C153.748 79.6311 153.28 78.7651 152.83 77.899C152.813 77.8817 152.804 77.8471 152.787 77.8211C152.163 76.6346 151.557 75.4309 150.899 74.279C150.639 73.8114 150.37 73.3437 150.102 72.8761C149.73 72.2179 149.357 71.5597 148.985 70.9015L144.048 62.2586L143.252 60.847L135.475 47.8306C135.379 47.666 135.267 47.5101 135.163 47.3543C135.146 47.311 135.111 47.285 135.094 47.2503C133.717 45.0679 132.097 43.0414 130.27 41.2488C124.121 35.1606 115.66 31.402 106.324 31.402C96.3909 31.402 87.4362 35.6629 81.2008 42.4612V12.7305H75.1992V51.5545L75.2165 51.5805L79.157 58.4654C82.2747 46.3583 93.2472 37.4209 106.316 37.4209C113.452 37.4209 119.947 40.0796 124.892 44.4531C126.962 46.289 128.763 48.4281 130.218 50.801C130.287 50.9136 130.357 51.0262 130.426 51.1388C130.608 51.4506 130.798 51.771 130.971 52.0914C131.145 52.4119 131.309 52.7323 131.474 53.0614L135.137 59.5912L137.96 64.6142L140.229 68.6672C140.229 68.6672 140.229 68.6672 140.229 68.6585L140.368 68.901L140.385 68.927L142.68 73.0146C142.68 73.0146 146.932 80.0035 148.275 82.1859C148.327 82.2638 148.361 82.3418 148.413 82.4197C148.491 82.5496 148.56 82.6535 148.595 82.7228C148.604 82.7488 148.612 82.7748 148.647 82.8008C148.656 82.8181 148.664 82.8267 148.664 82.8267C149.037 83.4503 149.426 84.0652 149.833 84.6627C150.24 85.2516 150.674 85.8405 151.115 86.4121C151.124 86.4467 151.141 86.4641 151.167 86.4814C151.591 87.027 152.042 87.5639 152.501 88.0749C152.986 88.6118 153.479 89.1401 153.99 89.6424C154.761 90.4131 155.567 91.1319 156.407 91.8248C157.255 92.5176 158.121 93.1671 159.022 93.7647C159.308 93.9552 159.585 94.1457 159.879 94.3276C160.027 94.4142 160.182 94.5095 160.33 94.6047C160.555 94.7433 160.789 94.8732 161.014 95.0031C161.438 95.2542 161.871 95.4881 162.322 95.7132C163.447 96.3021 164.617 96.8217 165.82 97.2807C166.123 97.402 166.427 97.5146 166.738 97.6185C167.371 97.8437 168.003 98.0342 168.652 98.2247C168.869 98.2853 169.068 98.3373 169.284 98.3979C170.306 98.6664 171.354 98.8915 172.419 99.0561C172.74 99.1167 173.06 99.16 173.381 99.2033C173.753 99.2639 174.117 99.2986 174.489 99.3419H174.515C174.853 99.3765 175.217 99.4112 175.563 99.4285C176.351 99.4891 177.157 99.5151 177.962 99.5151C178.326 99.5151 178.689 99.5064 179.053 99.4978C179.469 99.4891 179.876 99.4718 180.292 99.4371C180.595 99.4198 180.898 99.3852 181.192 99.3592C181.902 99.2986 182.613 99.2033 183.305 99.0994C183.531 99.0561 183.764 99.0301 183.99 98.9782C184.241 98.9435 184.492 98.8915 184.752 98.8309C184.812 98.8223 184.882 98.8136 184.934 98.8049C185.176 98.7443 185.419 98.701 185.652 98.6404C187.618 98.1901 189.506 97.5665 191.325 96.7958C191.628 96.6659 191.931 96.536 192.217 96.3974C192.529 96.2502 192.84 96.1029 193.143 95.9471C193.447 95.7998 193.75 95.6439 194.044 95.4794C194.096 95.4621 194.139 95.4361 194.191 95.4015C194.676 95.1416 195.144 94.8645 195.612 94.5874C195.707 94.5268 195.811 94.4835 195.897 94.4142C196.14 94.267 196.382 94.1111 196.616 93.9552C197.482 93.3923 198.322 92.7861 199.128 92.1365C199.656 91.7208 200.167 91.2792 200.678 90.8288C200.92 90.6037 201.172 90.3785 201.414 90.1447C201.423 90.136 201.44 90.1273 201.449 90.1187C201.683 89.8849 201.908 89.6597 202.133 89.4345C203.06 88.4992 203.926 87.5206 204.74 86.49C204.766 86.4641 204.8 86.4208 204.818 86.3948C205.017 86.135 205.216 85.8665 205.424 85.598C205.467 85.5461 205.502 85.4941 205.536 85.4335L201.224 81.1207C196.183 88.5945 187.644 93.5049 177.953 93.5049L177.971 93.5135Z" fill="#096EB7"/>
<mask id="mask1_47_56722" style="mask-type:luminance" maskUnits="userSpaceOnUse" x="164" y="0" width="26" height="26">
<path d="M164.059 13.1985C164.059 20.2479 169.774 25.9637 176.824 25.9637C183.873 25.9637 189.589 20.2479 189.589 13.1985C189.589 6.14901 183.873 0.433228 176.824 0.433228C169.774 0.433228 164.059 6.14901 164.059 13.1985Z" fill="white"/>
</mask>
<g mask="url(#mask1_47_56722)">
<path d="M189.598 0.424561H164.059V25.9637H189.598V0.424561Z" fill="url(#paint2_linear_47_56722)"/>
</g>
<path d="M189.6 13.1983H190.033C190.033 20.4902 184.127 26.3965 176.835 26.3965C169.543 26.3965 163.637 20.4902 163.637 13.1983C163.637 5.90631 169.543 0 176.835 0C184.127 0 190.033 5.90631 190.033 13.1983H189.167C189.159 6.38262 183.642 0.874688 176.835 0.866027C170.019 0.874688 164.511 6.39128 164.503 13.1983C164.511 20.0139 170.028 25.5218 176.835 25.5305C183.651 25.5218 189.159 20.0052 189.167 13.1983H189.6Z" fill="url(#paint3_linear_47_56722)"/>
<defs>
<linearGradient id="paint0_linear_47_56722" x1="145.257" y1="45.6142" x2="203.939" y2="45.6142" gradientUnits="userSpaceOnUse">
<stop stop-color="#026735"/>
<stop offset="0.44" stop-color="#14A34A"/>
<stop offset="1" stop-color="#18B24B"/>
</linearGradient>
<linearGradient id="paint1_linear_47_56722" x1="144.669" y1="46.2067" x2="205.386" y2="46.2067" gradientUnits="userSpaceOnUse">
<stop stop-color="#026735"/>
<stop offset="0.44" stop-color="#14A34A"/>
<stop offset="1" stop-color="#18B24B"/>
</linearGradient>
<linearGradient id="paint2_linear_47_56722" x1="167.11" y1="11.4314" x2="192.649" y2="11.4314" gradientUnits="userSpaceOnUse">
<stop stop-color="#026735"/>
<stop offset="0.44" stop-color="#14A34A"/>
<stop offset="1" stop-color="#18B24B"/>
</linearGradient>
<linearGradient id="paint3_linear_47_56722" x1="159.496" y1="15.2078" x2="186.785" y2="15.2078" gradientUnits="userSpaceOnUse">
<stop stop-color="#026735"/>
<stop offset="0.44" stop-color="#14A34A"/>
<stop offset="1" stop-color="#18B24B"/>
</linearGradient>
</defs>
</svg>
