<svg width="20" height="20" viewBox="0 0 20 20" fill="none" xmlns="http://www.w3.org/2000/svg">
<path fill-rule="evenodd" clip-rule="evenodd" d="M8.7329 14.4002C8.53764 14.5954 8.22106 14.5954 8.02579 14.4002L3.97913 10.3535C3.88536 10.2597 3.83268 10.1326 3.83268 9.99996C3.83268 9.86736 3.88536 9.74018 3.97913 9.64641L8.02579 5.59974C8.22106 5.40448 8.53764 5.40448 8.7329 5.59974C8.92816 5.79501 8.92816 6.11159 8.7329 6.30685L5.53979 9.49996H15.666C15.9422 9.49996 16.166 9.72382 16.166 9.99996C16.166 10.2761 15.9422 10.5 15.666 10.5H5.53979L8.7329 13.6931C8.92816 13.8883 8.92816 14.2049 8.7329 14.4002Z" fill="black"/>
</svg>
