<svg width="24" height="24" viewBox="0 0 24 24" fill="none" xmlns="http://www.w3.org/2000/svg">
<path fill-rule="evenodd" clip-rule="evenodd" d="M9.21126 6.0792L9.05735 6.99567C8.39777 7.03095 7.73823 7.0819 7.07872 7.14851L5.65145 7.28844C5.37662 7.31538 5.17567 7.56001 5.20262 7.83484C5.22956 8.10967 5.47419 8.31061 5.74902 8.28367L7.17703 8.14367L7.17849 8.14352C8.54789 8.0052 9.91712 7.93605 11.2863 7.93605C13.6074 7.93605 15.9359 8.0542 18.251 8.28362C18.5258 8.31085 18.7706 8.11016 18.7979 7.83536C18.8251 7.56056 18.6244 7.31572 18.3496 7.28849C17.2184 7.17638 16.0838 7.09047 14.9481 7.03154C14.947 7.01959 14.9454 7.0076 14.9434 6.99558L14.7896 6.0871L14.7832 6.04734C14.737 5.76029 14.669 5.33825 14.3888 5.0153C14.0659 4.64318 13.569 4.5 12.9174 4.5H11.0834C10.4393 4.5 9.94197 4.63266 9.61722 5.00092C9.33747 5.31815 9.26778 5.7385 9.21936 6.03055L9.21126 6.0792ZM10.1974 6.24496L10.0784 6.95356C10.481 6.94188 10.8836 6.93605 11.2863 6.93605C12.1661 6.93605 13.0469 6.95278 13.9275 6.98587L13.8029 6.24947C13.7446 5.89212 13.707 5.75544 13.6335 5.67071C13.5889 5.61932 13.4488 5.50001 12.9174 5.50001H11.0834C10.5445 5.50001 10.4082 5.61584 10.3672 5.66234C10.2971 5.74185 10.2601 5.87259 10.1974 6.24496Z" fill="#365069"/>
<path d="M7.70409 9.96575C7.6863 9.69018 7.44849 9.4812 7.17292 9.49899C6.89735 9.51678 6.68837 9.75459 6.70616 10.0302L7.16116 17.0792L7.16223 17.0945C7.18071 17.3584 7.20089 17.6466 7.25484 17.9145C7.31069 18.1918 7.40877 18.4826 7.60659 18.7402C8.02021 19.2787 8.72626 19.5 9.75314 19.5H14.2472C15.274 19.5 15.9801 19.2787 16.3937 18.7402C16.5915 18.4826 16.6896 18.1918 16.7455 17.9145C16.7994 17.6466 16.8196 17.3584 16.8381 17.0945L16.839 17.0819L16.8391 17.0792L17.2941 10.0302C17.3119 9.75459 17.103 9.51678 16.8274 9.49899C16.5518 9.4812 16.314 9.69018 16.2962 9.96575L15.8414 17.012L15.8413 17.0134C15.8216 17.295 15.8048 17.5203 15.7651 17.7171C15.7265 17.909 15.6723 18.0377 15.6006 18.131C15.4752 18.2943 15.1733 18.5 14.2472 18.5H9.75314C8.82701 18.5 8.52505 18.2943 8.39966 18.131C8.32798 18.0377 8.27382 17.909 8.23516 17.7171C8.19554 17.5203 8.17874 17.295 8.159 17.0134L7.70409 9.96575Z" fill="#365069"/>
<path d="M10.3311 15.1501C10.3311 14.8739 10.555 14.6501 10.8311 14.6501H13.1621C13.4383 14.6501 13.6621 14.8739 13.6621 15.1501C13.6621 15.4262 13.4383 15.6501 13.1621 15.6501H10.8311C10.555 15.6501 10.3311 15.4262 10.3311 15.1501Z" fill="#365069"/>
<path d="M10.2501 11.85C9.97392 11.85 9.75006 12.0739 9.75006 12.35C9.75006 12.6262 9.97392 12.85 10.2501 12.85H13.7501C14.0262 12.85 14.2501 12.6262 14.2501 12.35C14.2501 12.0739 14.0262 11.85 13.7501 11.85H10.2501Z" fill="#365069"/>
</svg>
