<svg width="24" height="24" viewBox="0 0 24 24" fill="none" xmlns="http://www.w3.org/2000/svg">
<path fill-rule="evenodd" clip-rule="evenodd" d="M12.0037 4.5C12.3223 4.5 12.5806 4.7583 12.5806 5.07692V13.6486L14.0382 12.2261C14.2662 12.0036 14.6315 12.008 14.854 12.236C15.0765 12.4641 15.0721 12.8293 14.8441 13.0519L12.4066 15.4306C12.1825 15.6493 11.8248 15.6493 11.6007 15.4306L9.16325 13.0519C8.93521 12.8293 8.93076 12.4641 9.1533 12.236C9.37583 12.008 9.74109 12.0036 9.96913 12.2261L11.4267 13.6486V5.07692C11.4267 4.7583 11.685 4.5 12.0037 4.5ZM14.6593 9.92792C14.686 9.61041 14.965 9.37465 15.2825 9.40133C16.6746 9.51832 17.7729 9.93625 18.5046 10.8163C19.2255 11.6833 19.5001 12.8927 19.5001 14.3857V14.4781C19.5001 16.1252 19.1652 17.4284 18.2684 18.3037C17.375 19.1756 16.0487 19.5 14.3684 19.5H9.6317C7.95138 19.5 6.62511 19.1756 5.73173 18.3037C4.83485 17.4284 4.5 16.1252 4.5 14.4781V14.3857C4.5 12.9035 4.77093 11.7015 5.48023 10.8362C6.20085 9.95716 7.28322 9.53361 8.65538 9.40878C8.9727 9.37991 9.25333 9.61375 9.2822 9.93106C9.31107 10.2484 9.07723 10.529 8.75992 10.5579C7.55638 10.6674 6.82338 11.0178 6.37257 11.5677C5.91043 12.1315 5.65385 13.0135 5.65385 14.3857V14.4781C5.65385 16.0049 5.9702 16.9242 6.53761 17.4779C7.10853 18.0351 8.05966 18.3462 9.6317 18.3462H14.3684C15.9404 18.3462 16.8916 18.0351 17.4625 17.4779C18.0299 16.9242 18.3462 16.0049 18.3462 14.4781V14.3857C18.3462 13.0031 18.0861 12.1177 17.6173 11.554C17.1594 11.0032 16.4132 10.6543 15.1859 10.5511C14.8684 10.5244 14.6326 10.2454 14.6593 9.92792Z" fill="#365069"/>
</svg>
