<svg width="16" height="16" viewBox="0 0 16 16" fill="none" xmlns="http://www.w3.org/2000/svg">
<g id="Icon">
<path id="Icon_2" fill-rule="evenodd" clip-rule="evenodd" d="M10.3533 2.01743C11.1164 1.91984 11.8931 2.23084 12.6883 2.97906L12.6891 2.97987C13.4871 3.73447 13.8446 4.49425 13.7908 5.26335C13.7388 6.00823 13.3065 6.64182 12.8073 7.16916L7.3316 12.965C7.18117 13.1288 6.97729 13.2688 6.78249 13.373C6.58532 13.4784 6.3584 13.5679 6.14685 13.6055L6.14378 13.6061L3.9958 13.973C3.48539 14.0609 2.99874 13.9331 2.65306 13.6053C2.30781 13.2779 2.15381 12.7992 2.21082 12.2861L2.21098 12.2847L2.45886 10.114C2.48698 9.90311 2.56563 9.67328 2.65913 9.47278C2.75232 9.27296 2.87879 9.06267 3.02713 8.90476L3.02803 8.9038L8.50653 3.10501C9.00586 2.57754 9.6143 2.11193 10.3533 2.01743ZM9.17745 3.73898L8.07027 4.9109C8.36032 6.32271 9.53633 7.38826 10.9859 7.53426C11.0441 7.54012 11.0986 7.55655 11.1479 7.58145L12.1366 6.5349C12.585 6.0613 12.8403 5.62355 12.87 5.19899C12.898 4.79875 12.7317 4.29079 12.0553 3.65095C11.3827 3.0182 10.8682 2.88218 10.4704 2.93305C10.0484 2.98702 9.62556 3.26572 9.17745 3.73898ZM10.3995 8.37362C8.98038 8.06024 7.82543 7.04289 7.33386 5.69037L3.69992 9.53677C3.64145 9.59917 3.56418 9.71609 3.49571 9.86292C3.42831 10.0074 3.38697 10.1429 3.37442 10.2323L3.12825 12.388C3.09872 12.6553 3.18149 12.8343 3.28825 12.9355C3.39463 13.0364 3.57535 13.1088 3.83896 13.0633L5.98528 12.6967L5.98658 12.6965C6.07531 12.6805 6.20812 12.6333 6.34726 12.5589C6.48811 12.4836 6.5964 12.4013 6.65255 12.3397L6.65806 12.3336L10.3995 8.37362Z" fill="white"/>
</g>
</svg>
