<svg width="20" height="20" viewBox="0 0 20 20" fill="none" xmlns="http://www.w3.org/2000/svg">
<path fill-rule="evenodd" clip-rule="evenodd" d="M12.9426 2.52179C13.8965 2.39981 14.8673 2.78856 15.8613 3.72383L15.8624 3.72483C16.8598 4.66809 17.3067 5.61781 17.2395 6.57919C17.1744 7.51029 16.6341 8.30228 16.0101 8.96145L9.16547 16.2062C8.97744 16.411 8.72259 16.586 8.47908 16.7162C8.23263 16.848 7.94898 16.9599 7.68454 17.0069L7.6807 17.0076L4.99572 17.4662C4.35772 17.5762 3.7494 17.4164 3.3173 17.0066C2.88574 16.5974 2.69324 15.999 2.7645 15.3576L2.7647 15.3558L3.07456 12.6425C3.1097 12.3789 3.20802 12.0916 3.32489 11.841C3.44137 11.5912 3.59946 11.3283 3.78489 11.1309L3.78602 11.1298L10.6341 3.88126C11.2583 3.22192 12.0188 2.63991 12.9426 2.52179ZM11.4728 4.67373L10.0888 6.13862C10.4514 7.90339 11.9214 9.23533 13.7333 9.41782C13.8061 9.42515 13.8743 9.44569 13.9358 9.47681L15.1717 8.16863C15.7322 7.57662 16.0514 7.02943 16.0885 6.49874C16.1234 5.99843 15.9157 5.36349 15.0701 4.56369C14.2293 3.77275 13.5863 3.60272 13.0889 3.66632C12.5614 3.73377 12.0329 4.08215 11.4728 4.67373ZM13.0003 10.467C11.2264 10.0753 9.78276 8.80361 9.1683 7.11296L4.62587 11.921C4.55279 11.999 4.45621 12.1451 4.37062 12.3286C4.28637 12.5093 4.23469 12.6786 4.21901 12.7904L3.91129 15.485C3.87438 15.8191 3.97784 16.0428 4.11128 16.1694C4.24426 16.2955 4.47017 16.386 4.79968 16.3291L7.48258 15.8709L7.4842 15.8706C7.59512 15.8506 7.76112 15.7917 7.93505 15.6987C8.11111 15.6045 8.24648 15.5016 8.31667 15.4246L8.32356 15.4171L13.0003 10.467Z" fill="#365069"/>
</svg>
