<svg width="100" height="81" viewBox="0 0 100 81" fill="none" xmlns="http://www.w3.org/2000/svg">
<path d="M96.5475 22.7071C97.9229 22.4422 99.2554 23.3602 99.5204 24.7356C99.7854 26.11 98.886 27.4403 97.5106 27.7053C96.1363 27.9703 94.7872 27.0742 94.5223 25.6988C94.2573 24.3245 95.1721 22.9721 96.5464 22.7071H96.5475Z" fill="#B7C7F1"/>
<path d="M1.74919 64.614C2.62436 64.4458 3.47314 65.0296 3.64135 65.9048C3.80957 66.78 3.23785 67.6266 2.36268 67.7948C1.48752 67.963 0.62994 67.3935 0.460623 66.5183C0.292406 65.6431 0.87402 64.7834 1.74919 64.614Z" fill="#B7C7F1"/>
<path d="M13.8346 1.17876C15.21 0.913795 16.5425 1.83184 16.8075 3.20726C17.0725 4.58159 16.1731 5.91193 14.7977 6.1769C13.4234 6.44187 12.0744 5.54581 11.8094 4.17039C11.5444 2.79607 12.4592 1.44373 13.8335 1.17876H13.8346Z" fill="#B7C7F1"/>
<path d="M41.7908 32.4898C41.472 31.9511 41.0883 31.4376 40.6529 30.9638C40.3417 30.6262 40.3648 30.0996 40.7023 29.7884C41.041 29.4784 41.5665 29.4993 41.8777 29.8379C42.3911 30.3964 42.843 31.0033 43.2212 31.6421C43.4554 32.0379 43.3246 32.5481 42.9298 32.7823C42.5373 33.0143 42.025 32.8889 41.7897 32.4909L41.7908 32.4898Z" fill="#D6DCE8"/>
<path d="M83.6265 46.0079V30.67C83.6265 27.7752 81.4029 25.4289 78.6594 25.4289H43.3031C41.6156 25.4289 40.0431 24.5245 39.1286 23.0282L37.3279 20.0818C36.4134 18.5855 34.8409 17.6812 33.1534 17.6812H21.7426C18.999 17.6812 16.7754 20.0275 16.7754 22.9223V46.007L83.6265 46.0079Z" fill="#B7C7F1"/>
<path d="M14.9159 74.0257L14.9159 74.0257C15.7799 77.8053 18.9852 80.5 22.705 80.5H77.6969C81.4167 80.5 84.622 77.8053 85.486 74.0257L91.8462 46.1914L91.3588 46.08L91.8462 46.1914C92.9726 41.2604 89.4508 36.4433 84.5724 36.4433H15.8295C10.9512 36.4433 7.42838 41.2594 8.55569 46.1914C8.55569 46.1914 8.55569 46.1914 8.5557 46.1914L14.9159 74.0257Z" fill="#DBE3F8" stroke="white"/>
<path d="M84.0494 1.80888L84.4415 1.38982C84.3484 1.35612 84.2457 1.33206 84.1257 1.32677C83.5268 1.23628 83.6338 0.355228 84.2335 0.409917C84.5487 0.454522 84.8562 0.546192 85.0921 0.695024L85.2878 0.485576C85.4662 0.294909 85.7519 0.294309 85.9331 0.463782C86.1143 0.633255 86.1326 0.918575 85.9549 1.10908L85.7592 1.31853C85.9144 1.5533 86.025 1.81682 86.0909 2.12841C86.1452 2.37584 85.9968 2.63016 85.7494 2.68439C85.502 2.73863 85.2566 2.58082 85.2024 2.33339C85.1708 2.2144 85.1397 2.11386 85.0996 2.0228L84.7165 2.43238C84.6297 2.3156 84.5243 2.1986 84.4094 2.09194C84.2952 1.98513 84.1721 1.88778 84.0494 1.80888Z" fill="#6E8FE3"/>
<path d="M81.7264 9.14755C81.6184 8.95765 81.5468 8.7476 81.4935 8.53705C82.4835 7.84943 83.6738 6.81991 84.3673 5.90303C85.0831 6.7923 85.0326 8.55199 84.1466 9.50018C83.3714 10.3288 82.2867 10.1718 81.7264 9.14755Z" fill="#B7C7F1"/>
<path d="M77.0377 2.85513C77.9219 1.90883 79.684 1.74207 80.6019 2.3848C79.7231 3.14652 78.7743 4.41488 78.1668 5.42869C77.9441 5.39933 77.7389 5.3326 77.5514 5.24621C76.4923 4.75595 76.2625 3.68377 77.037 2.85529L77.0377 2.85513Z" fill="#B7C7F1"/>
<path d="M83.8437 6.52483C81.8148 8.69436 78.1275 10.9283 77.0715 9.94075C76.0176 8.95567 77.9961 5.12444 80.0249 2.9549C82.052 0.787265 83.3581 1.10461 84.412 2.08969C85.4679 3.07656 85.87 4.35735 83.843 6.52499L83.8437 6.52483Z" fill="#6E8FE3"/>
</svg>
