<svg width="99" height="32" viewBox="0 0 99 32" fill="none" xmlns="http://www.w3.org/2000/svg">
<g clip-path="url(#clip0_8_22390)">
<path d="M46.5809 3.76194H46.885V3.60034C46.885 2.98174 46.4941 2.7628 45.9901 2.7628C45.6183 2.7628 45.2951 2.87749 45.0379 2.99217C44.885 3.0582 44.7425 3.14508 44.6192 3.23022L44.1709 2.39269C44.3238 2.27801 44.494 2.17375 44.6939 2.08861C45.0275 1.9357 45.5123 1.79321 46.0944 1.79321C47.3993 1.79321 48.0944 2.46046 48.0944 3.70807V5.65073C48.0944 5.79321 48.1604 5.86098 48.3046 5.86098H48.7425V6.76628H47.5992C47.1509 6.76628 46.9806 6.52823 46.9806 6.25194V6.1946C46.9806 6.11815 46.991 6.06081 46.9997 6.01389C47.0084 5.98435 47.0084 5.96697 47.0084 5.94786H46.9893C46.9041 6.11989 46.7894 6.27106 46.647 6.41528C46.3898 6.65333 46.0284 6.88096 45.4567 6.88096C44.6192 6.88096 43.8477 6.39443 43.8477 5.40572C43.8477 3.92006 45.8007 3.76715 46.5809 3.76715M45.7712 5.9774C46.428 5.9774 46.8954 5.27193 46.8954 4.66376V4.50216H46.6956C46.2091 4.50216 45.0675 4.57862 45.0675 5.31189C45.0675 5.68374 45.3246 5.97914 45.7729 5.97914" fill="white"/>
<path d="M49.0547 5.1434H50.0834V5.42837C50.0834 5.76199 50.5317 5.93228 51.0356 5.93228C51.5395 5.93228 51.8644 5.77068 51.8644 5.43706C51.8644 5.03741 51.4074 4.91403 50.7593 4.68467C50.0538 4.4275 49.225 4.11299 49.225 3.17989C49.225 2.15122 50.2641 1.78979 51.1398 1.78979C51.8453 1.78979 52.8931 2.06608 52.8931 2.79935V3.41794H51.8557V3.14166C51.8557 2.8845 51.5708 2.74201 51.1416 2.74201C50.761 2.74201 50.4361 2.87581 50.4361 3.17989C50.4361 3.57954 50.9122 3.75157 51.4561 3.90448C52.198 4.13384 53.0755 4.44661 53.0755 5.40057C53.0755 6.35452 52.1424 6.87581 51.0286 6.87581C50.1529 6.87581 49.0564 6.49527 49.0564 5.70465V5.1434H49.0547Z" fill="white"/>
<path d="M54.2094 7.76205V3.01835C54.2094 2.87586 54.1417 2.8081 53.9992 2.8081H53.457V1.9028H54.7046C55.1529 1.9028 55.3041 2.10262 55.3041 2.35979V2.5405C55.3041 2.56831 55.3041 2.58742 55.2937 2.60653H55.3128C55.398 2.45362 55.5231 2.32156 55.6655 2.19646C55.9227 1.97752 56.3033 1.78638 56.8749 1.78638C58.1886 1.78638 59.0278 2.82374 59.0278 4.32851C59.0278 5.83329 58.0843 6.87065 56.8089 6.87065C56.3224 6.87065 55.9801 6.70905 55.7524 6.52834C55.6186 6.42408 55.5057 6.3094 55.4101 6.18603H55.391L55.4101 6.30071C55.4188 6.37717 55.4188 6.48142 55.4188 6.6048V7.75684H56.1243V8.66214H53.5057V7.75684H54.2112L54.2094 7.76205ZM56.59 5.85762C57.2572 5.85762 57.8098 5.31548 57.8098 4.35284C57.8098 3.3902 57.325 2.82895 56.6004 2.82895C55.9627 2.82895 55.3806 3.29637 55.3806 4.36153C55.3806 5.11392 55.7907 5.85762 56.59 5.85762Z" fill="white"/>
<path d="M59.5704 5.85752H60.2758V2.80973H59.5234V1.90443H61.4852V5.85752H62.1803V6.76281H59.5704V5.85752ZM60.2654 0H61.4852V1.07559H60.2654V0Z" fill="white"/>
<path d="M62.668 5.85752H63.3735V3.01999C63.3735 2.8775 63.3075 2.80974 63.1632 2.80974H62.6211V1.90444H63.8878C64.317 1.90444 64.5359 2.10426 64.5359 2.49523V2.7802C64.5359 2.86534 64.5359 2.93311 64.5255 2.99914C64.5168 3.02694 64.5168 3.05648 64.5168 3.08428H64.5359C64.7653 2.38923 65.3266 1.83667 66.079 1.83667C66.145 1.83667 66.1936 1.83667 66.2319 1.84536C66.2597 1.85405 66.2788 1.85405 66.2979 1.85405V3.04432C66.2684 3.04432 66.2406 3.04432 66.2128 3.03563C66.1467 3.02694 66.0894 3.02694 66.0025 3.02694C65.0225 3.02694 64.5829 3.88359 64.5829 4.79757V5.85405H65.2779V6.75935H62.668V5.85405V5.85752Z" fill="white"/>
<path d="M69.2276 3.76194H69.5317V3.60034C69.5317 2.98174 69.1408 2.7628 68.6368 2.7628C68.265 2.7628 67.9418 2.87749 67.6846 2.99217C67.5317 3.0582 67.3892 3.14508 67.2659 3.23022L66.8176 2.39269C66.9705 2.27801 67.1407 2.17375 67.3423 2.08861C67.6759 1.9357 68.1607 1.79321 68.7428 1.79321C70.0478 1.79321 70.7428 2.46046 70.7428 3.70807V5.65073C70.7428 5.79321 70.8106 5.86098 70.9531 5.86098H71.391V6.76628H70.2476C69.7993 6.76628 69.629 6.52823 69.629 6.25194V6.1946C69.629 6.11815 69.6377 6.06081 69.6481 6.01389C69.6568 5.98435 69.6568 5.96697 69.6568 5.94786H69.6377C69.5526 6.11989 69.4379 6.27106 69.2954 6.41528C69.0382 6.65333 68.6768 6.88096 68.1051 6.88096C67.2676 6.88096 66.4961 6.39443 66.4961 5.40572C66.4961 3.92006 68.4474 3.76715 69.2294 3.76715M68.4196 5.9774C69.0765 5.9774 69.5439 5.27193 69.5439 4.66376V4.50216H69.344C68.8575 4.50216 67.7159 4.57862 67.7159 5.31189C67.7159 5.68374 67.9731 5.97914 68.4214 5.97914" fill="white"/>
<path d="M72.2398 2.80969H71.4961V1.90439H72.2763V0.580322H73.4474V1.90439H74.5526V2.80969H73.4474V4.8566C73.4474 5.69414 74.0765 5.80013 74.4188 5.80013C74.4848 5.80013 74.5421 5.79144 74.5804 5.79144H74.6377V6.78189L74.5334 6.801C74.4674 6.80969 74.3805 6.80969 74.2676 6.80969C73.5812 6.80969 72.2398 6.60986 72.2398 4.98171V2.80969Z" fill="white"/>
<path d="M75.1329 5.85752H75.8383V2.80973H75.0859V1.90443H77.0477V5.85752H77.7428V6.76281H75.1329V5.85752ZM75.8279 0H77.0477V1.07559H75.8279V0Z" fill="white"/>
<path d="M80.7805 1.78979C82.2662 1.78979 83.4565 2.84627 83.4565 4.33367C83.4565 5.82107 82.2662 6.87581 80.7892 6.87581C79.3122 6.87581 78.1133 5.82802 78.1133 4.33367C78.1133 2.83932 79.3036 1.78979 80.7788 1.78979M80.7892 5.84714C81.5798 5.84714 82.228 5.23723 82.228 4.33367C82.228 3.43011 81.5798 2.81847 80.7892 2.81847C79.9986 2.81847 79.3418 3.43706 79.3418 4.33367C79.3418 5.23028 79.9986 5.84714 80.7892 5.84714Z" fill="white"/>
<path d="M83.9805 5.85759H84.686V3.02006C84.686 2.87757 84.62 2.80981 84.4757 2.80981H83.9336V1.90451H85.209C85.6382 1.90451 85.838 2.10433 85.838 2.44664V2.66558C85.838 2.7125 85.838 2.76984 85.8293 2.80807C85.8206 2.83587 85.8206 2.85498 85.8206 2.8741H85.8398C85.8884 2.72119 86.4201 1.78809 87.6295 1.78809C88.6669 1.78809 89.2577 2.34065 89.2577 3.63518V5.85412H89.9614V6.75942H88.057V3.88366C88.057 3.28418 87.8954 2.89321 87.2855 2.89321C86.4097 2.89321 85.8954 3.73074 85.8954 4.5787V5.85585H86.5904V6.76115H83.9805V5.85585V5.85759Z" fill="white"/>
<path d="M92.9407 3.76194H93.2448V3.60034C93.2448 2.98174 92.8539 2.7628 92.3499 2.7628C91.9781 2.7628 91.6549 2.87749 91.3977 2.99217C91.2448 3.0582 91.1023 3.14508 90.979 3.23022L90.5307 2.39269C90.6836 2.27801 90.8539 2.17375 91.0554 2.08861C91.3891 1.9357 91.8738 1.79321 92.4559 1.79321C93.7609 1.79321 94.4559 2.46046 94.4559 3.70807V5.65073C94.4559 5.79321 94.522 5.86098 94.6662 5.86098H95.1041V6.76628H93.9607C93.5124 6.76628 93.3421 6.52823 93.3421 6.25194V6.1946C93.3421 6.11815 93.3508 6.06081 93.3612 6.01389C93.3717 5.98435 93.3717 5.96697 93.3717 5.94786H93.3526C93.2674 6.11989 93.1527 6.27106 93.0103 6.41528C92.7531 6.65333 92.3917 6.88096 91.82 6.88096C90.9824 6.88096 90.2109 6.39443 90.2109 5.40572C90.2109 3.92006 92.164 3.76715 92.9442 3.76715M92.1345 5.9774C92.7913 5.9774 93.2587 5.27193 93.2587 4.66376V4.50216H93.0589C92.5741 4.50216 91.4307 4.57862 91.4307 5.31189C91.4307 5.68374 91.6879 5.97914 92.1362 5.97914" fill="white"/>
<path d="M95.7602 0.9053H95.0078V0H96.9609V5.14335C96.9609 5.59166 97.046 5.8106 97.4561 5.8106C97.5221 5.8106 97.5795 5.80191 97.6177 5.80191H97.6837V6.77324L97.5499 6.79235C97.4735 6.80104 97.3692 6.80104 97.2459 6.80104C96.4744 6.80104 95.7602 6.54388 95.7602 5.21981V0.9053Z" fill="white"/>
<path d="M26.8521 16.8706L26.8157 16.8045C26.204 19.2494 23.9938 21.06 21.3595 21.06C19.0468 21.06 17.5472 20.0191 16.2005 17.6768L14.7062 15.0999L14.5863 14.8879L14.4247 14.6047L14.2561 14.3215L13.8461 13.6351V8.54736H12.6506V11.6733C12.2735 11.1243 11.8235 10.629 11.3074 10.212L11.1371 10.0782C11.0815 10.0382 11.0276 9.99828 10.9738 9.95657C10.9703 9.95483 10.9668 9.9531 10.9634 9.95136C10.9043 9.90966 10.8452 9.86969 10.7844 9.82799C10.6905 9.76717 10.595 9.70809 10.4977 9.65075V9.65423C10.4699 9.63859 10.4438 9.61947 10.4177 9.60557C10.416 9.60557 10.4125 9.6021 10.4108 9.6021C10.3482 9.56735 10.2857 9.53259 10.2214 9.4961C10.1571 9.46309 10.0928 9.43007 10.0285 9.39706C9.89819 9.33451 9.76613 9.27369 9.63234 9.21808C9.39081 9.1173 9.14059 9.02868 8.88342 8.9557C8.63668 8.8862 8.3882 8.82886 8.1293 8.78715C8.06153 8.77499 7.99202 8.7663 7.92252 8.75588C7.77656 8.73676 7.62712 8.72113 7.47769 8.7107C7.39602 8.70549 7.31088 8.70027 7.22747 8.69854C7.15797 8.6968 7.08499 8.69506 7.01201 8.69506H7.01027C6.93208 8.69506 6.85215 8.6968 6.77395 8.69854C6.73051 8.70027 6.68881 8.70201 6.64537 8.70375C6.58977 8.70549 6.5359 8.70896 6.48377 8.71591C6.34129 8.72634 6.1988 8.74198 6.05979 8.76109C5.9955 8.76978 5.93121 8.77847 5.86865 8.79063C5.85302 8.79237 5.83738 8.79411 5.82348 8.79932C5.73833 8.81496 5.65145 8.8306 5.56805 8.84797C5.44989 8.87404 5.3352 8.90184 5.22052 8.93311C5.16144 8.94875 5.10236 8.96613 5.04328 8.98351C5.02243 8.98872 4.99984 8.99567 4.97899 9.00262C4.91644 9.02173 4.85562 9.04085 4.7948 9.06344C4.67143 9.10514 4.55328 9.14858 4.43338 9.19723C4.36735 9.22504 4.30306 9.25284 4.23703 9.28064C4.01114 9.38142 3.79046 9.4961 3.57847 9.62121C3.52808 9.64901 3.47943 9.67855 3.43077 9.70983C3.25701 9.81583 3.08672 9.93051 2.92513 10.0539C2.873 10.0956 2.81739 10.1355 2.76527 10.1773C2.71314 10.2207 2.65927 10.2624 2.60714 10.3058C2.55675 10.351 2.50636 10.3945 2.45423 10.4414C2.40384 10.4865 2.35519 10.5317 2.30653 10.5786C2.25614 10.6256 2.20923 10.6725 2.16057 10.7211C2.11366 10.7698 2.06674 10.8184 2.01983 10.8671C1.9816 10.9105 1.9399 10.9522 1.89993 10.9974C1.88951 11.0078 1.88255 11.0165 1.87213 11.0287C1.83043 11.0756 1.79046 11.1225 1.7505 11.1712C1.66188 11.2772 1.57847 11.3849 1.4968 11.4961C1.45858 11.5482 1.42035 11.6021 1.3856 11.6542C1.38386 11.656 1.38212 11.656 1.38212 11.6577C0.933814 12.3093 0.593241 13.0443 0.391677 13.8332C0.264831 14.3249 0.191851 14.841 0.181425 15.3693C0.179687 15.4214 0.179688 15.4753 0.179688 15.5291C0.179688 15.6455 0.183163 15.7637 0.190113 15.8801C0.190113 15.9218 0.193588 15.96 0.195326 16.0017C0.198801 16.0539 0.202277 16.1077 0.209227 16.1581C0.210965 16.1929 0.21444 16.2276 0.219653 16.2624C0.223128 16.3076 0.230078 16.3545 0.235291 16.4014C0.242242 16.4622 0.25093 16.523 0.261356 16.5804C0.278732 16.6898 0.297846 16.7993 0.320435 16.9071C0.344761 17.0183 0.369088 17.1277 0.39689 17.2372C0.44033 17.4005 0.487246 17.5639 0.541112 17.722C0.553276 17.7567 0.563701 17.7915 0.577602 17.828C0.589766 17.861 0.600191 17.8958 0.614092 17.9288C0.765265 18.3319 0.949453 18.7142 1.17013 19.0739C1.19272 19.1138 1.21705 19.1521 1.23964 19.1885C1.27613 19.2459 1.31435 19.3032 1.35084 19.3588C1.41166 19.4474 1.47421 19.5343 1.53677 19.6177C1.6028 19.7064 1.66709 19.7898 1.73312 19.8714C1.83911 19.9983 1.95032 20.1234 2.065 20.245C2.10497 20.2832 2.14146 20.3232 2.17969 20.3614C2.29437 20.4779 2.416 20.5908 2.54111 20.6968C2.58282 20.7315 2.62278 20.7663 2.66622 20.8028C2.74963 20.8706 2.83651 20.9401 2.92339 21.0061C2.96683 21.0391 3.01201 21.0704 3.05545 21.1017C3.10063 21.1329 3.1458 21.1642 3.19098 21.1955C3.28134 21.258 3.37517 21.3189 3.469 21.3727C3.60975 21.4579 3.75397 21.5378 3.90167 21.6143C3.95032 21.6403 3.99897 21.6629 4.04937 21.689C4.09802 21.7116 4.14841 21.7359 4.1988 21.7585C4.24919 21.7828 4.29958 21.8037 4.35171 21.8245C4.44554 21.8627 4.53937 21.901 4.63494 21.9375C4.71661 21.9687 4.80176 21.9965 4.88516 22.0226C4.93208 22.0382 4.97899 22.0539 5.02765 22.0678C5.06414 22.0799 5.1041 22.0904 5.14059 22.1008C5.18229 22.113 5.224 22.1234 5.26744 22.1355C5.33347 22.1529 5.3995 22.1703 5.46726 22.1842C5.50549 22.1946 5.54546 22.2016 5.58195 22.2103C5.89472 22.278 6.21444 22.3232 6.53938 22.3458C6.63494 22.351 6.73225 22.3562 6.82956 22.3597C6.89037 22.3614 6.94772 22.3614 7.00853 22.3614C7.0763 22.3614 7.14407 22.3597 7.21183 22.358C7.26222 22.358 7.31262 22.3562 7.36301 22.3527C7.41861 22.351 7.47074 22.3475 7.52461 22.3423C7.60801 22.3371 7.69489 22.3284 7.7783 22.3197C7.92599 22.3024 8.07543 22.2798 8.21965 22.2554C8.25093 22.2502 8.28221 22.2433 8.31348 22.2381C8.36909 22.2276 8.42122 22.2172 8.47334 22.2051C8.50115 22.1998 8.52547 22.1929 8.55328 22.1877C8.70445 22.1529 8.85388 22.113 8.99984 22.0678C9.06761 22.0469 9.13538 22.0243 9.20141 22.0035C9.21357 21.9983 9.224 21.9948 9.23442 21.9913C9.46726 21.9114 9.69489 21.8193 9.91557 21.7133C10.0615 21.6455 10.2058 21.5691 10.3465 21.4909C10.416 21.4509 10.4872 21.411 10.555 21.3675C10.6245 21.3258 10.694 21.2841 10.7601 21.2389C10.8261 21.1938 10.8956 21.1486 10.9599 21.1017C10.9616 21.1017 10.9634 21.0999 10.9634 21.0999C11.0276 21.053 11.0919 21.0061 11.1545 20.9574C11.217 20.9088 11.2813 20.8601 11.3439 20.8097C11.5298 20.6568 11.7088 20.4935 11.8773 20.3215C12.4403 19.7481 12.9025 19.0756 13.2379 18.3336L12.456 16.9349C12.4369 17.0096 12.4143 17.086 12.3934 17.1573C12.3743 17.2233 12.3517 17.2911 12.3291 17.3554C12.3256 17.3693 12.3222 17.3832 12.3152 17.3953C12.2944 17.4631 12.2683 17.5326 12.2388 17.5986C12.2127 17.6716 12.1814 17.7428 12.1484 17.8141C12.1189 17.8836 12.0876 17.9531 12.0511 18.0209C12.0181 18.0904 11.9833 18.1599 11.9451 18.2259C11.8739 18.3614 11.7939 18.4918 11.7088 18.6186C11.5854 18.808 11.4499 18.9922 11.3005 19.1642C11.2987 19.1677 11.2952 19.1694 11.2918 19.1746C11.1962 19.2876 11.0972 19.3971 10.9894 19.5031C10.9408 19.5552 10.8869 19.6073 10.833 19.656C10.8296 19.6577 10.8261 19.6612 10.8226 19.6629C10.774 19.7098 10.7236 19.755 10.6732 19.795C10.6645 19.8019 10.6558 19.8106 10.6454 19.821C10.5985 19.861 10.5515 19.8992 10.5046 19.934C10.4872 19.9514 10.4681 19.9653 10.4473 19.9792C10.3986 20.0209 10.3482 20.0574 10.2961 20.0921C10.2944 20.0938 10.2926 20.0956 10.2909 20.0956C10.2301 20.1425 10.1675 20.1859 10.105 20.2242C10.0042 20.2919 9.89993 20.358 9.7922 20.417C9.69837 20.4692 9.6028 20.523 9.50723 20.57C9.46031 20.596 9.41166 20.6186 9.36127 20.6395C9.31609 20.6603 9.27091 20.6812 9.224 20.7003C9.20488 20.7107 9.18403 20.7176 9.16318 20.7263C9.10584 20.7524 9.04502 20.775 8.98768 20.7958C8.96162 20.8063 8.93903 20.815 8.91296 20.8236C8.86084 20.8428 8.80697 20.8636 8.7531 20.8792C8.63668 20.9175 8.51505 20.954 8.39341 20.9852C8.30653 21.0061 8.22313 21.0269 8.13625 21.0443H8.13451C8.06501 21.06 7.99376 21.0739 7.92252 21.0843C7.87387 21.0947 7.82348 21.1017 7.77482 21.1069C7.74007 21.1121 7.70532 21.1173 7.67057 21.119C7.62191 21.126 7.57326 21.1329 7.52461 21.1347C7.48116 21.1399 7.43946 21.1451 7.39428 21.1451C7.35084 21.1503 7.30914 21.1538 7.2657 21.1538C7.18056 21.159 7.09194 21.1607 7.00506 21.1607C5.42556 21.1607 3.99724 20.5109 2.97552 19.4596C2.86778 19.3501 2.76527 19.2355 2.66448 19.1156C2.46987 18.8775 2.2909 18.6238 2.13451 18.3562C2.05632 18.2207 1.98334 18.0834 1.91731 17.9427C1.88429 17.8714 1.85128 17.8002 1.82174 17.7289C1.72964 17.5117 1.65145 17.2893 1.58716 17.06C1.56631 16.9835 1.54546 16.907 1.52808 16.8289C1.42904 16.4136 1.37517 15.9792 1.37517 15.5343C1.37517 15.3415 1.3856 15.1486 1.40471 14.9574C1.56631 13.3606 2.39515 11.9618 3.60801 11.0426H3.60975C3.74528 10.9418 3.88255 10.8462 4.02504 10.7559C4.09802 10.7107 4.171 10.6673 4.24572 10.6256C4.39341 10.5439 4.54633 10.4674 4.70097 10.3962C5.40471 10.0817 6.18143 9.90618 7.00158 9.90618H7.01201C7.09368 9.90618 7.17534 9.90792 7.25875 9.91313C7.27613 9.91139 7.2935 9.91313 7.30914 9.91487C7.39255 9.91661 7.47595 9.9253 7.55762 9.93225C7.57152 9.93398 7.58716 9.93398 7.60106 9.93572C7.67578 9.94267 7.74876 9.9531 7.82174 9.96352C7.85128 9.967 7.87908 9.97047 7.90688 9.97742C7.97465 9.98959 8.04242 10.0018 8.10845 10.0122C8.15189 10.0226 8.19185 10.0296 8.23355 10.0417C8.36388 10.0695 8.49072 10.1025 8.61757 10.1408C8.66796 10.1547 8.72009 10.1703 8.76874 10.1877C8.89037 10.2294 9.01027 10.2711 9.13017 10.3197C9.18056 10.3388 9.23095 10.3614 9.28134 10.384C9.37864 10.4257 9.47421 10.4692 9.56631 10.5213C9.58195 10.53 9.59932 10.5387 9.61496 10.5474C9.66188 10.5682 9.70706 10.5943 9.75223 10.6221C9.85475 10.6759 9.9538 10.7368 10.0511 10.8011C10.0998 10.8306 10.1484 10.8619 10.1953 10.8966C10.2753 10.9505 10.3517 11.0078 10.4264 11.0686C10.4421 11.0808 10.4577 11.0912 10.4733 11.1034C10.5185 11.1364 10.5637 11.1712 10.6089 11.2129C10.6541 11.2494 10.6958 11.2876 10.7409 11.3258C10.7844 11.3606 10.8278 11.4005 10.8678 11.4422C10.9112 11.4787 10.9529 11.5204 10.9929 11.5639C11.0763 11.6455 11.1545 11.7307 11.2292 11.8176C11.3074 11.9027 11.3821 11.9931 11.4499 12.0852C11.5576 12.2242 11.6567 12.3667 11.7505 12.5126L11.7644 12.5317C11.8687 12.6985 11.9642 12.8688 12.0511 13.0461L12.0772 13.093L12.4403 13.7394L13.8061 16.172V16.1772L14.2492 16.9018L14.2753 16.9505L15.476 18.9192C16.668 20.9244 18.8521 22.2676 21.3543 22.2676C24.1467 22.2676 26.5498 20.5908 27.6097 18.1877L27.3265 17.722L26.8487 16.8706H26.8521Z" fill="#ED6A23"/>
<path d="M35.7336 21.06C35.6259 21.06 35.5181 21.0565 35.4139 21.0495C35.334 21.0461 35.254 21.0408 35.1741 21.0304C35.1619 21.0304 35.1532 21.0304 35.1428 21.0287C35.0646 21.02 34.9847 21.0113 34.9065 20.9991C34.8857 20.9974 34.8648 20.9939 34.8457 20.9905C34.7779 20.98 34.7084 20.9661 34.6424 20.954C34.5868 20.9435 34.5347 20.9348 34.4808 20.9209C34.4217 20.907 34.3661 20.8931 34.3088 20.8792C34.1002 20.8254 33.8952 20.7576 33.6971 20.6794C33.6519 20.662 33.6068 20.6429 33.5616 20.6238C33.4486 20.5786 33.3392 20.5282 33.2332 20.4744C33.1776 20.4466 33.1254 20.4188 33.0733 20.391C32.9673 20.3336 32.8648 20.2746 32.7605 20.2103C32.6598 20.146 32.559 20.0799 32.4617 20.0087C32.413 19.9739 32.3644 19.9392 32.3157 19.901C32.2671 19.8662 32.2201 19.828 32.175 19.7898C32.0811 19.715 31.9908 19.6368 31.9039 19.5534C31.8691 19.5204 31.8344 19.4874 31.7996 19.4544C31.784 19.4422 31.7684 19.4266 31.7545 19.411C31.7197 19.3762 31.685 19.338 31.6485 19.3015C31.6068 19.258 31.5685 19.2163 31.5268 19.1712C31.4886 19.1277 31.4486 19.0825 31.4122 19.0356C31.3739 18.9887 31.3357 18.9418 31.3009 18.8949C31.2645 18.848 31.228 18.8011 31.1932 18.7541C31.1585 18.7055 31.1237 18.6568 31.089 18.6082C31.0525 18.5526 31.0142 18.497 30.9777 18.4396C30.8735 18.2746 30.7797 18.1008 30.6893 17.927C30.6858 17.9236 30.6841 17.9166 30.6806 17.9114C30.5555 17.6733 30.4339 17.4318 30.3018 17.2007C30.2497 17.1069 30.1958 17.013 30.142 16.9192C30.0672 16.7871 29.9925 16.6551 29.9178 16.523L28.9274 14.7889L28.7675 14.5057L27.2071 11.894C27.188 11.861 27.1654 11.8297 27.1446 11.7984C27.1411 11.7898 27.1341 11.7845 27.1307 11.7776C26.8544 11.3397 26.5294 10.9331 26.1628 10.5734C24.9291 9.35187 23.2314 8.59775 21.3583 8.59775C19.3652 8.59775 17.5685 9.45266 16.3175 10.8167V4.85144H15.1133V12.6412L15.1168 12.6464L15.9074 14.0278C16.5329 11.5986 18.7345 9.80539 21.3565 9.80539C22.7883 9.80539 24.0916 10.3388 25.0837 11.2163C25.499 11.5847 25.8605 12.0139 26.1524 12.49C26.1663 12.5126 26.1802 12.5352 26.1941 12.5578C26.2306 12.6203 26.2688 12.6846 26.3035 12.7489C26.3383 12.8132 26.3713 12.8775 26.4043 12.9435L27.1393 14.2537L27.7058 15.2615L28.1611 16.0747C28.1611 16.0747 28.1611 16.0747 28.1611 16.073L28.1889 16.1216L28.1923 16.1269L28.6528 16.947C28.6528 16.947 29.506 18.3493 29.7753 18.7871C29.7857 18.8028 29.7927 18.8184 29.8031 18.8341C29.8188 18.8601 29.8327 18.881 29.8396 18.8949C29.8413 18.9001 29.8431 18.9053 29.85 18.9105C29.8518 18.914 29.8535 18.9157 29.8535 18.9157C29.9282 19.0408 30.0064 19.1642 30.0881 19.2841C30.1698 19.4023 30.2566 19.5204 30.3453 19.6351C30.347 19.6421 30.3505 19.6455 30.3557 19.649C30.4408 19.7585 30.5312 19.8662 30.6233 19.9687C30.7206 20.0765 30.8196 20.1825 30.9221 20.2832C31.0768 20.4379 31.2384 20.5821 31.4069 20.7211C31.5772 20.8601 31.751 20.9904 31.9317 21.1103C31.989 21.1486 32.0446 21.1868 32.1037 21.2233C32.1333 21.2407 32.1645 21.2598 32.1941 21.2789C32.2393 21.3067 32.2862 21.3328 32.3314 21.3588C32.4165 21.4092 32.5034 21.4561 32.5937 21.5013C32.8196 21.6195 33.0542 21.7237 33.2957 21.8158C33.3565 21.8401 33.4174 21.8627 33.4799 21.8836C33.6068 21.9288 33.7336 21.967 33.8639 22.0052C33.9074 22.0174 33.9473 22.0278 33.9908 22.04C34.1958 22.0938 34.4061 22.139 34.6198 22.172C34.6841 22.1842 34.7484 22.1929 34.8127 22.2016C34.8874 22.2137 34.9604 22.2207 35.0351 22.2294H35.0403C35.1081 22.2363 35.181 22.2433 35.2506 22.2467C35.4087 22.2589 35.5703 22.2641 35.7319 22.2641C35.8049 22.2641 35.8778 22.2624 35.9508 22.2607C36.0342 22.2589 36.1159 22.2554 36.1993 22.2485C36.2601 22.245 36.3209 22.2381 36.38 22.2328C36.5225 22.2207 36.665 22.2016 36.804 22.1807C36.8492 22.172 36.8961 22.1668 36.9413 22.1564C36.9916 22.1494 37.042 22.139 37.0942 22.1269C37.1063 22.1251 37.1202 22.1234 37.1307 22.1216C37.1793 22.1095 37.228 22.1008 37.2749 22.0886C37.6693 21.9983 38.0481 21.8732 38.413 21.7185C38.4738 21.6924 38.5347 21.6664 38.592 21.6386C38.6545 21.609 38.7171 21.5795 38.7779 21.5482C38.8387 21.5187 38.8996 21.4874 38.9586 21.4544C38.9691 21.4509 38.9777 21.4457 38.9882 21.4388C39.0855 21.3866 39.1793 21.331 39.2731 21.2754C39.2923 21.2633 39.3131 21.2546 39.3305 21.2407C39.3791 21.2111 39.4278 21.1799 39.4747 21.1486C39.6485 21.0356 39.817 20.914 39.9786 20.7837C40.0846 20.7003 40.1871 20.6116 40.2896 20.5213C40.3383 20.4761 40.3887 20.4309 40.4373 20.384C40.4391 20.3823 40.4426 20.3805 40.4443 20.3788C40.4912 20.3319 40.5364 20.2867 40.5816 20.2415C40.7675 20.0539 40.9413 19.8575 41.1046 19.6507C41.1098 19.6455 41.1168 19.6368 41.1202 19.6316C41.1602 19.5795 41.2002 19.5256 41.2419 19.4718C41.2506 19.4613 41.2575 19.4509 41.2645 19.4388L40.3991 18.5734C39.3878 20.073 37.6745 21.0582 35.7301 21.0582" fill="#096EB7"/>
<path d="M26.8157 16.8044C26.204 19.2492 23.9938 21.0598 21.3595 21.0598C19.0468 21.0598 17.5472 20.019 16.2005 17.6767L14.7062 15.0998L14.5863 14.8878L14.4247 14.6046L14.2561 14.3213L13.8461 13.635V8.54724H12.6506V11.6968C12.2735 11.1477 11.8235 10.6289 11.3074 10.2119L11.1371 10.0781C11.0815 10.0381 11.0276 9.99815 10.9738 9.95645C10.9703 9.95471 10.9668 9.95298 10.9634 9.95124C10.9043 9.90953 10.8452 9.86957 10.7844 9.82787C10.6905 9.76705 10.6047 9.71145 10.5074 9.65411H10.4977C10.4699 9.63847 10.4438 9.61935 10.4177 9.60545C10.416 9.60545 10.4125 9.60198 10.4108 9.60198C10.3482 9.56722 10.2857 9.53247 10.2214 9.49598C10.1571 9.46297 10.0928 9.42995 10.0285 9.39694C9.89819 9.33438 9.7001 9.26004 9.56631 9.20443C9.32478 9.10365 9.14059 9.02856 8.88342 8.95558C8.63668 8.88608 8.3882 8.82874 8.1293 8.78703C8.06153 8.77487 7.99203 8.76618 7.92252 8.75576C7.77656 8.73664 7.62713 8.721 7.47769 8.71058C7.39602 8.70536 7.31088 8.70015 7.22747 8.69841C7.15797 8.69668 7.08499 8.69494 7.01201 8.69494H7.01027C6.93208 8.69494 6.85215 8.69668 6.77395 8.69841C6.73051 8.70015 6.68881 8.70189 6.64537 8.70363C6.58977 8.70536 6.5359 8.70884 6.48377 8.71579C6.34129 8.72622 6.1988 8.74185 6.05979 8.76097C5.9955 8.76966 5.93121 8.77834 5.86865 8.79051C5.85302 8.79225 5.83738 8.79398 5.82348 8.7992C5.73833 8.81483 5.65145 8.83047 5.56805 8.84785C5.44989 8.87391 5.3352 8.90172 5.22052 8.93299C5.16144 8.94863 5.10236 8.96601 5.04328 8.98338C5.02243 8.9886 4.99984 8.99555 4.97899 9.0025C4.91644 9.02161 4.85562 9.04073 4.79481 9.06331C4.67143 9.10502 4.55328 9.14846 4.43338 9.19711C4.36735 9.22491 4.30306 9.25271 4.23703 9.28052C4.01114 9.3813 3.79046 9.49598 3.57847 9.62109C3.52808 9.64889 3.47943 9.67843 3.43077 9.70971C3.25701 9.8157 3.08673 9.93039 2.92513 10.0538C2.873 10.0955 2.81739 10.1354 2.76527 10.1771C2.71314 10.2206 2.65927 10.2623 2.60714 10.3057C2.55675 10.3509 2.50636 10.3943 2.45423 10.4412C2.40384 10.4864 2.35519 10.5316 2.30653 10.5785C2.25614 10.6254 2.20923 10.6723 2.16057 10.721C2.11366 10.7697 2.06674 10.8183 2.01983 10.867C1.9816 10.9104 1.9399 10.9521 1.89993 10.9973C1.88951 11.0077 1.88255 11.0164 1.87213 11.0286C1.83043 11.0755 1.79046 11.1224 1.7505 11.171C1.66188 11.277 1.57847 11.3848 1.4968 11.496C1.45858 11.5481 1.42035 11.602 1.3856 11.6541C1.38386 11.6558 1.38212 11.6558 1.38212 11.6576C0.933814 12.3092 0.593241 13.0442 0.391677 13.8331C0.264831 14.3248 0.191851 14.8409 0.181425 15.3691C0.179687 15.4213 0.179688 15.4751 0.179688 15.529C0.179688 15.6454 0.183163 15.7636 0.190113 15.88C0.190113 15.9217 0.193588 15.9599 0.195326 16.0016C0.198801 16.0538 0.202277 16.1076 0.209227 16.158C0.210965 16.1928 0.21444 16.2275 0.219653 16.2623C0.223128 16.3074 0.230078 16.3544 0.235291 16.4013C0.242242 16.4621 0.25093 16.5229 0.261356 16.5803C0.278732 16.6897 0.297846 16.7992 0.320435 16.9069C0.344761 17.0181 0.369088 17.1276 0.39689 17.2371C0.44033 17.4004 0.487246 17.5637 0.541112 17.7219C0.553276 17.7566 0.563701 17.7914 0.577602 17.8279C0.589766 17.8609 0.600191 17.8956 0.614092 17.9286C0.765265 18.3318 0.949453 18.7141 1.17013 19.0737C1.19272 19.1137 1.21705 19.1519 1.23964 19.1884C1.27613 19.2458 1.31435 19.3031 1.35084 19.3587C1.41166 19.4473 1.47421 19.5342 1.53677 19.6176C1.6028 19.7062 1.66709 19.7896 1.73312 19.8713C1.83911 19.9982 1.95032 20.1233 2.065 20.2449C2.10497 20.2831 2.14146 20.3231 2.17969 20.3613C2.29437 20.4777 2.416 20.5907 2.54111 20.6967C2.58282 20.7314 2.62278 20.7662 2.66622 20.8027C2.74963 20.8704 2.83651 20.9399 2.92339 21.006C2.96683 21.039 3.01201 21.0703 3.05545 21.1015C3.10063 21.1328 3.1458 21.1641 3.19098 21.1954C3.28134 21.2579 3.37517 21.3187 3.469 21.3726C3.60975 21.4578 3.75397 21.5377 3.90167 21.6141C3.95032 21.6402 3.99898 21.6628 4.04937 21.6889C4.09802 21.7114 4.14841 21.7358 4.1988 21.7584C4.24919 21.7827 4.29958 21.8035 4.35171 21.8244C4.44554 21.8626 4.53937 21.9008 4.63494 21.9373C4.71661 21.9686 4.80176 21.9964 4.88516 22.0225C4.93208 22.0381 4.97899 22.0538 5.02765 22.0677C5.06414 22.0798 5.1041 22.0902 5.14059 22.1007C5.18229 22.1128 5.224 22.1233 5.26744 22.1354C5.33347 22.1528 5.3995 22.1702 5.46726 22.1841C5.50549 22.1945 5.54546 22.2015 5.58195 22.2101C5.89472 22.2779 6.21444 22.3231 6.53938 22.3457C6.63494 22.3509 6.73225 22.3561 6.82956 22.3596C6.89037 22.3613 6.94772 22.3613 7.00853 22.3613C7.0763 22.3613 7.14407 22.3596 7.21183 22.3578C7.26222 22.3578 7.31262 22.3561 7.36301 22.3526C7.41861 22.3509 7.47074 22.3474 7.52461 22.3422C7.60801 22.337 7.69489 22.3283 7.7783 22.3196C7.926 22.3022 8.07543 22.2796 8.21965 22.2553C8.25093 22.2501 8.28221 22.2432 8.31349 22.2379C8.36909 22.2275 8.42122 22.2171 8.47335 22.2049C8.50115 22.1997 8.52547 22.1928 8.55328 22.1876C8.70445 22.1528 8.85388 22.1128 8.99984 22.0677C9.06761 22.0468 9.13538 22.0242 9.20141 22.0034C9.21357 21.9982 9.224 21.9947 9.23442 21.9912C9.46726 21.9113 9.69489 21.8192 9.91557 21.7132C10.0615 21.6454 10.2058 21.569 10.3465 21.4908C10.416 21.4508 10.4872 21.4108 10.555 21.3674C10.6245 21.3257 10.694 21.284 10.7601 21.2388C10.8261 21.1936 10.8956 21.1485 10.9599 21.1015C10.9616 21.1015 10.9634 21.0998 10.9634 21.0998C11.0276 21.0529 11.0919 21.006 11.1545 20.9573C11.217 20.9087 11.2813 20.86 11.3439 20.8096C11.5298 20.6567 11.7088 20.4934 11.8773 20.3213C12.4403 19.7479 12.9025 19.0755 13.2379 18.3335L12.456 16.9347C12.4369 17.0094 12.4143 17.0859 12.3934 17.1571C12.3743 17.2232 12.3517 17.2909 12.3291 17.3552C12.3256 17.3691 12.3222 17.383 12.3152 17.3952C12.2944 17.463 12.2683 17.5325 12.2388 17.5985C12.2127 17.6715 12.1814 17.7427 12.1484 17.814C12.1189 17.8835 12.0876 17.953 12.0511 18.0207C12.0181 18.0902 11.9833 18.1598 11.9451 18.2258C11.8739 18.3613 11.7939 18.4916 11.7088 18.6185C11.5854 18.8079 11.4499 18.9921 11.3005 19.1641C11.2987 19.1676 11.2952 19.1693 11.2918 19.1745C11.1962 19.2875 11.0972 19.3969 10.9894 19.5029C10.9408 19.5551 10.8869 19.6072 10.833 19.6558C10.8296 19.6576 10.8261 19.6611 10.8226 19.6628C10.774 19.7097 10.7236 19.7549 10.6732 19.7948C10.6645 19.8018 10.6558 19.8105 10.6454 19.8209C10.5985 19.8609 10.5515 19.8991 10.5046 19.9339C10.4872 19.9512 10.4681 19.9651 10.4473 19.979C10.3986 20.0207 10.3482 20.0572 10.2961 20.092C10.2944 20.0937 10.2926 20.0955 10.2909 20.0955C10.2301 20.1424 10.1675 20.1858 10.105 20.224C10.0042 20.2918 9.89993 20.3578 9.7922 20.4169C9.69837 20.469 9.6028 20.5229 9.50723 20.5698C9.46031 20.5959 9.41166 20.6185 9.36127 20.6393C9.31609 20.6602 9.27091 20.681 9.224 20.7002C9.20488 20.7106 9.18403 20.7175 9.16318 20.7262C9.10584 20.7523 9.04502 20.7749 8.98768 20.7957C8.96162 20.8061 8.93903 20.8148 8.91296 20.8235C8.86084 20.8426 8.80697 20.8635 8.7531 20.8791C8.63668 20.9174 8.51505 20.9538 8.39342 20.9851C8.30653 21.006 8.22313 21.0268 8.13625 21.0442H8.13451C8.06501 21.0598 7.99376 21.0737 7.92252 21.0842C7.87387 21.0946 7.82348 21.1015 7.77482 21.1068C7.74007 21.112 7.70532 21.1172 7.67057 21.1189C7.62191 21.1259 7.57326 21.1328 7.52461 21.1346C7.48116 21.1398 7.43946 21.145 7.39428 21.145C7.35084 21.1502 7.30914 21.1537 7.2657 21.1537C7.18056 21.1589 7.09194 21.1606 7.00506 21.1606C5.42556 21.1606 3.99724 20.5107 2.97552 19.4595C2.86778 19.35 2.76527 19.2353 2.66448 19.1154C2.46987 18.8774 2.2909 18.6237 2.13451 18.3561C2.05632 18.2206 1.98334 18.0833 1.91731 17.9425C1.88429 17.8713 1.85128 17.8001 1.82174 17.7288C1.72964 17.5116 1.65145 17.2892 1.58716 17.0598C1.56631 16.9834 1.54546 16.9069 1.52808 16.8287C1.42904 16.4134 1.37517 15.979 1.37517 15.5342C1.37517 15.3413 1.3856 15.1485 1.40471 14.9573C1.56631 13.3604 2.39515 11.9617 3.60801 11.0425H3.60975C3.74528 10.9417 3.88255 10.8461 4.02504 10.7558C4.09802 10.7106 4.171 10.6671 4.24572 10.6254C4.39341 10.5438 4.54633 10.4673 4.70097 10.3961C5.40471 10.0816 6.18143 9.90606 7.00158 9.90606H7.01201C7.09368 9.90606 7.17534 9.9078 7.25875 9.91301C7.27613 9.91127 7.2935 9.91301 7.30914 9.91475C7.39255 9.91649 7.47595 9.92517 7.55762 9.93212C7.57152 9.93386 7.58716 9.93386 7.60106 9.9356C7.67578 9.94255 7.74876 9.95298 7.82174 9.9634C7.85128 9.96688 7.87908 9.97035 7.90688 9.9773C7.97465 9.98947 8.04242 10.0016 8.10845 10.0121C8.15189 10.0225 8.19185 10.0294 8.23355 10.0416C8.36388 10.0694 8.49072 10.1024 8.61757 10.1406C8.66796 10.1545 8.72009 10.1702 8.76874 10.1876C8.89037 10.2293 9.01027 10.271 9.13017 10.3196C9.18056 10.3387 9.23095 10.3613 9.28134 10.3839C9.37865 10.4256 9.47421 10.469 9.56631 10.5212C9.58195 10.5299 9.59932 10.5386 9.61496 10.5472C9.66188 10.5681 9.70706 10.5942 9.75223 10.622C9.85475 10.6758 9.9538 10.7366 10.0511 10.8009C10.0998 10.8305 10.1484 10.8617 10.1953 10.8965C10.2753 10.9504 10.3517 11.0077 10.4264 11.0685C10.4421 11.0807 10.4577 11.0911 10.4733 11.1033C10.5185 11.1363 10.5637 11.171 10.6089 11.2127C10.6541 11.2492 10.6958 11.2875 10.7409 11.3257C10.7844 11.3604 10.8278 11.4004 10.8678 11.4421C10.9112 11.4786 10.9529 11.5203 10.9929 11.5637C11.0763 11.6454 11.1545 11.7306 11.2292 11.8174C11.3074 11.9026 11.3821 11.9929 11.4499 12.085C11.5576 12.224 11.6567 12.3665 11.7505 12.5125L11.7644 12.5316C11.8687 12.6984 11.9642 12.8687 12.0511 13.0459L12.0772 13.0929L12.4403 13.7392L13.8061 16.1719V16.1771L14.2492 16.9017L14.2753 16.9504L15.476 18.9191C16.668 20.9243 18.8521 22.2675 21.3543 22.2675C24.1467 22.2675 26.5498 20.5907 27.6097 18.1876L27.3265 17.7219L26.8157 16.8044Z" fill="#ED6A23"/>
<mask id="mask0_8_22390" style="mask-type:luminance" maskUnits="userSpaceOnUse" x="29" y="8" width="13" height="7">
<path d="M35.4713 8.60473C35.4348 8.60473 35.3966 8.60647 35.3619 8.6082C35.2871 8.61168 35.2159 8.61689 35.1412 8.62384C35.0439 8.63079 34.9483 8.64296 34.851 8.65512C34.778 8.66555 34.7085 8.67423 34.6355 8.6864C34.5556 8.69856 34.4774 8.7142 34.3992 8.72984C34.3176 8.74548 34.2376 8.76285 34.1577 8.78197C34.1282 8.78718 34.1004 8.79587 34.0743 8.80108C34.0274 8.81324 33.9805 8.82714 33.9353 8.83757C33.8206 8.86885 33.7042 8.90186 33.593 8.94183C33.5391 8.9592 33.4818 8.97832 33.4262 8.99917C33.3254 9.03566 33.2246 9.07389 33.1256 9.11385C32.997 9.16598 32.8701 9.22332 32.7468 9.28588C32.7033 9.30499 32.6633 9.32758 32.6199 9.34843C32.5678 9.37449 32.5156 9.40056 32.4653 9.4301C32.4149 9.4579 32.3645 9.48744 32.3123 9.51698C32.2567 9.54652 32.2046 9.5778 32.1542 9.61081C32.0587 9.66989 31.9648 9.73244 31.871 9.795C31.7285 9.89404 31.5878 9.9983 31.454 10.106C31.3636 10.179 31.2767 10.2537 31.1898 10.3302C31.1464 10.3702 31.1047 10.4084 31.0613 10.4466C31.0178 10.4831 30.9779 10.5248 30.9361 10.5648C30.8944 10.6065 30.8545 10.6464 30.8145 10.6881C30.7728 10.7298 30.7328 10.7715 30.6946 10.815C30.5712 10.9488 30.4531 11.0878 30.3419 11.232C30.2289 11.3762 30.1212 11.5257 30.0222 11.6768C29.9196 11.8315 29.8275 11.9879 29.7372 12.1495C29.652 12.3076 29.5686 12.4692 29.4957 12.636C29.4939 12.6377 29.4922 12.6412 29.4922 12.6447L30.2828 14.0261C30.3037 13.9444 30.328 13.8628 30.3523 13.7794C30.361 13.7463 30.3714 13.7133 30.3836 13.6821C30.401 13.6247 30.4201 13.5691 30.4409 13.5135C30.4566 13.4683 30.4739 13.4231 30.4913 13.378C30.5035 13.3432 30.5156 13.3102 30.5313 13.2772C30.5504 13.2285 30.573 13.1799 30.5956 13.1312C30.6564 12.9905 30.7242 12.8515 30.8006 12.7194C30.8267 12.6725 30.8527 12.6256 30.8805 12.5787C30.9118 12.5231 30.9466 12.4692 30.9796 12.4153C31.0439 12.3145 31.1116 12.212 31.1846 12.1147C31.1916 12.1026 31.202 12.0921 31.2124 12.08C31.2402 12.04 31.2698 12.0035 31.2976 11.967C31.341 11.9079 31.3879 11.8523 31.4366 11.795C31.5183 11.6977 31.6034 11.6039 31.692 11.5135L31.8258 11.378C31.8727 11.3328 31.9196 11.2911 31.9666 11.2476C32.0135 11.2025 32.0621 11.1625 32.1108 11.1225C32.1594 11.0808 32.2081 11.0409 32.2585 11.0009C32.2984 10.9696 32.3384 10.9384 32.3784 10.9088C32.4062 10.8897 32.434 10.8688 32.4583 10.8515C32.4948 10.8237 32.533 10.7993 32.5695 10.7733C32.6755 10.7003 32.7815 10.6325 32.8927 10.5682C32.9483 10.5352 33.0022 10.5057 33.0578 10.4744C33.0613 10.4727 33.0665 10.4709 33.0699 10.4675C33.1221 10.4379 33.1777 10.4101 33.2333 10.3841C33.3862 10.3076 33.5391 10.2398 33.6972 10.179C33.7528 10.1582 33.8067 10.1373 33.8623 10.1182C33.9613 10.0834 34.0621 10.0504 34.1629 10.0209C34.2411 10 34.3193 9.97745 34.3975 9.96007C34.4027 9.95833 34.4097 9.9566 34.4149 9.9566C34.4722 9.9427 34.5295 9.9288 34.5869 9.91837C34.6269 9.90968 34.6651 9.90273 34.7016 9.89404C34.7711 9.88188 34.8441 9.86972 34.9136 9.86103C34.957 9.85581 34.9987 9.84886 35.0421 9.84539C35.0734 9.84018 35.1047 9.8367 35.136 9.83323C35.1864 9.82801 35.2368 9.82106 35.2889 9.81932C35.3045 9.81759 35.3202 9.81585 35.3375 9.81585C35.3949 9.81237 35.4487 9.8089 35.5061 9.80542C35.5791 9.80369 35.6503 9.80195 35.725 9.80195C37.6694 9.80195 39.3827 10.7889 40.3923 12.2885L41.2576 11.4231C41.2576 11.4231 41.2454 11.4058 41.2385 11.3971C41.2072 11.3519 41.1742 11.3085 41.1412 11.2685C41.1099 11.2251 41.0769 11.1851 41.0421 11.1417C40.9761 11.0582 40.9049 10.9748 40.8336 10.8932C40.7989 10.8532 40.7607 10.8132 40.7259 10.775C40.6894 10.735 40.6512 10.6968 40.613 10.6586C40.5747 10.6204 40.5382 10.5821 40.5 10.5456C40.4236 10.4692 40.3436 10.398 40.2637 10.325C40.222 10.2902 40.1838 10.2555 40.1421 10.219C40.1004 10.1842 40.0587 10.1495 40.017 10.1147C39.8449 9.97571 39.6677 9.84539 39.4818 9.72202C39.4401 9.69595 39.4001 9.66989 39.3584 9.64383C38.4322 9.05999 37.3584 8.69509 36.2046 8.61515C36.1073 8.6082 36.0065 8.60299 35.9057 8.59952C35.8449 8.59778 35.7841 8.59778 35.7233 8.59778C35.6347 8.59778 35.5478 8.59952 35.4609 8.60299" fill="white"/>
</mask>
<g mask="url(#mask0_8_22390)">
<path d="M41.2663 8.59949H29.4922V14.0278H41.2663V8.59949Z" fill="url(#paint0_linear_8_22390)"/>
</g>
<path d="M30.3532 13.7811L30.2681 13.7619C30.2768 13.722 30.2907 13.6855 30.3028 13.6542L30.3845 13.6855L30.3011 13.6594C30.3185 13.6003 30.3393 13.543 30.3585 13.4874L30.4401 13.5169L30.3585 13.4891C30.3741 13.4422 30.3932 13.3953 30.4106 13.3519L30.4922 13.3831L30.4106 13.3553C30.4227 13.3171 30.4384 13.2806 30.4558 13.2441L30.534 13.2806L30.454 13.2476C30.4749 13.1972 30.4975 13.1468 30.52 13.0964L30.5982 13.1347L30.5183 13.0999C30.5791 12.9557 30.6504 12.8149 30.7268 12.6794L30.8015 12.7228L30.7251 12.6811C30.7512 12.6325 30.779 12.5856 30.8068 12.5387C30.8398 12.4813 30.8745 12.4275 30.9075 12.3736C30.9736 12.2711 31.0431 12.1668 31.1161 12.0678L31.1856 12.1199L31.1126 12.0712C31.1247 12.0539 31.1352 12.04 31.1456 12.0278L31.2116 12.0834L31.1404 12.033C31.1699 11.9913 31.1995 11.9531 31.229 11.9149L31.2968 11.9687L31.2273 11.9166C31.2724 11.8558 31.3211 11.7967 31.3697 11.7394L31.4358 11.7967L31.3697 11.7411C31.4532 11.642 31.5383 11.5465 31.6304 11.4544L31.7659 11.3189C31.8146 11.2719 31.8615 11.2285 31.9084 11.1868L31.9675 11.2511L31.9067 11.1885C31.9553 11.1416 32.0075 11.0982 32.0578 11.0582L32.1117 11.126L32.0561 11.0599C32.1048 11.0182 32.1552 10.9765 32.2073 10.9366L32.2611 11.0061L32.2073 10.9383C32.2472 10.9053 32.2889 10.874 32.3289 10.8445C32.3567 10.8254 32.3845 10.8045 32.4106 10.7871L32.4592 10.8584L32.4071 10.7889C32.4453 10.7611 32.4836 10.735 32.52 10.7089C32.6278 10.636 32.7355 10.5665 32.8502 10.5004L32.8936 10.5751L32.8485 10.5004C32.9058 10.4657 32.9614 10.4361 33.017 10.4049H33.0187L33.0205 10.4031L33.0309 10.3979L33.0691 10.4761L33.0274 10.3996C33.083 10.3701 33.1386 10.3406 33.196 10.3128C33.3506 10.2363 33.507 10.1651 33.6686 10.1043C33.7242 10.0817 33.7816 10.0626 33.8372 10.0417C33.9379 10.0069 34.0387 9.9722 34.143 9.94266C34.2212 9.9218 34.3011 9.89921 34.381 9.88184L34.4002 9.96698L34.3741 9.88358C34.3741 9.88358 34.3932 9.87663 34.4175 9.87489V9.96177L34.3967 9.87663C34.454 9.86272 34.5131 9.84882 34.5704 9.83666C34.6087 9.82797 34.6486 9.82102 34.6851 9.81407H34.6869H34.6886C34.7598 9.80191 34.8328 9.78975 34.9041 9.78106C34.9475 9.77584 34.9909 9.76889 35.0361 9.76542L35.0448 9.8523L35.0292 9.76716C35.0639 9.76021 35.0987 9.75673 35.1334 9.75499L35.1386 9.84187L35.1282 9.75499C35.1786 9.74978 35.2325 9.74283 35.2881 9.74109L35.2916 9.82797L35.2811 9.74109C35.2968 9.73935 35.3159 9.73588 35.3402 9.73588V9.82276L35.335 9.73588C35.3923 9.7324 35.4462 9.72893 35.5053 9.72545C35.5783 9.72372 35.6512 9.72198 35.726 9.72198C37.6999 9.72198 39.4393 10.7228 40.4662 12.2467L40.3949 12.2954L40.3341 12.2346L41.1995 11.3692L41.2603 11.4301L41.1908 11.4822C41.1803 11.4683 41.1751 11.4596 41.1717 11.4561V11.4526C41.1421 11.4092 41.1108 11.3692 41.0778 11.3293V11.3258C41.0483 11.2858 41.017 11.2459 40.9805 11.2024C40.9162 11.1208 40.8467 11.0391 40.7737 10.9574C40.739 10.9192 40.7025 10.8775 40.666 10.8393L40.7303 10.7819L40.6677 10.841C40.6313 10.801 40.5948 10.7628 40.5565 10.7246C40.5183 10.6864 40.4818 10.6481 40.4453 10.6134C40.3706 10.5387 40.2924 10.4674 40.2125 10.3962L40.2698 10.3319L40.2125 10.3979C40.1708 10.3614 40.1308 10.3267 40.0909 10.2919C40.0509 10.2572 40.0092 10.2224 39.9675 10.1894C39.7972 10.0521 39.6217 9.92354 39.4392 9.80191L39.4879 9.72893L39.441 9.80191C39.3993 9.77584 39.3576 9.74804 39.3176 9.72372C38.4036 9.14683 37.3437 8.78714 36.2038 8.70721C36.1082 8.70026 36.0109 8.69504 35.9084 8.69157C35.8493 8.68983 35.7902 8.68983 35.7294 8.68983C35.6426 8.68983 35.5557 8.69157 35.4723 8.69504H35.4705H35.4688C35.434 8.69504 35.3993 8.69678 35.3645 8.69852C35.2916 8.702 35.2203 8.70895 35.1456 8.71416C35.05 8.72111 34.9562 8.73327 34.8589 8.74544L34.8485 8.65855L34.8606 8.74544C34.7894 8.75586 34.7199 8.76455 34.6486 8.77671C34.5722 8.78888 34.494 8.80278 34.4158 8.81842C34.3359 8.83405 34.2577 8.85143 34.1777 8.87054H34.176C34.1517 8.87576 34.1239 8.88271 34.0926 8.88966L34.0735 8.80451L34.0943 8.88966C34.0492 8.90008 34.004 8.91398 33.9571 8.92615C33.8424 8.95742 33.7294 8.99044 33.6217 9.02693C33.5678 9.04431 33.5122 9.06342 33.4584 9.08253C33.3576 9.11902 33.2585 9.15551 33.1612 9.19548C33.0344 9.24761 32.9093 9.30321 32.7894 9.36403H32.7876C32.7477 9.38314 32.7077 9.40399 32.6625 9.42485C32.6121 9.44917 32.5635 9.47524 32.5148 9.50304C32.4662 9.5291 32.4158 9.55864 32.3654 9.58818C32.3133 9.61598 32.2629 9.64552 32.2142 9.67854C32.1204 9.73588 32.0283 9.79843 31.9345 9.86099L31.8858 9.78801L31.9362 9.85925C31.7955 9.95829 31.6565 10.0608 31.5227 10.1668C31.434 10.2381 31.3472 10.3128 31.262 10.3875L31.2047 10.3232L31.2638 10.3875C31.2203 10.4275 31.1786 10.4657 31.1352 10.5056C31.0952 10.5404 31.0552 10.5804 31.0153 10.6203C30.9736 10.662 30.9336 10.702 30.8954 10.742C30.8554 10.7819 30.8154 10.8236 30.7807 10.8636V10.8653C30.6591 10.9991 30.5409 11.1364 30.4314 11.2771C30.3202 11.4196 30.2142 11.5656 30.1152 11.7168C30.0144 11.8697 29.9223 12.0243 29.8337 12.1842C29.7485 12.3406 29.6669 12.5004 29.5939 12.6638L29.5869 12.6777L29.5748 12.6898L29.5227 12.6377H29.5956C29.5939 12.6655 29.5904 12.6707 29.5748 12.6898L29.5227 12.6377H29.5956H29.5088L29.5835 12.5943L30.3741 13.9757L30.2994 14.0191L30.216 13.9965C30.2386 13.9131 30.2611 13.8297 30.2872 13.7463L30.3706 13.7724L30.454 13.7984C30.4297 13.8801 30.4054 13.96 30.3845 14.0417L30.3306 14.2467L29.4219 12.662V12.6394C29.4236 12.603 29.4323 12.5908 29.4514 12.5682L29.5122 12.629L29.4323 12.5943C29.507 12.4257 29.5904 12.2624 29.6773 12.1025C29.7677 11.9374 29.8632 11.7793 29.9657 11.6229C30.0665 11.4683 30.176 11.3189 30.2907 11.1712C30.4036 11.0252 30.5253 10.8844 30.6486 10.7489L30.7129 10.808L30.6469 10.7506C30.6851 10.7055 30.7286 10.6603 30.7703 10.6186L30.8311 10.6794L30.7685 10.6203C30.8085 10.5786 30.8502 10.5369 30.8919 10.4952C30.9336 10.4535 30.9753 10.4118 31.0205 10.3718L31.0778 10.4379L31.0187 10.3736C31.0622 10.3354 31.1039 10.2954 31.1473 10.2572C31.2342 10.1807 31.3228 10.1043 31.4149 10.0295C31.5522 9.92007 31.6929 9.81581 31.8372 9.71503C31.931 9.65247 32.0248 9.58992 32.1239 9.5291L32.1691 9.60382L32.1221 9.53084C32.1743 9.49609 32.2299 9.46307 32.2872 9.43353L32.3289 9.50999L32.2855 9.43527C32.3359 9.40573 32.388 9.37619 32.4401 9.34839L32.4818 9.42485L32.4384 9.35013C32.4905 9.32059 32.5426 9.29105 32.5982 9.26498C32.6399 9.24413 32.6816 9.22154 32.7286 9.20069L32.7651 9.27889L32.7251 9.20069C32.8502 9.1364 32.9788 9.07906 33.1108 9.02519C33.2116 8.98349 33.3124 8.94526 33.4149 8.90877C33.4705 8.88792 33.5279 8.86881 33.5835 8.85143L33.6095 8.93484L33.58 8.85317C33.6947 8.8132 33.8111 8.77845 33.9275 8.74717C33.971 8.73501 34.0179 8.72111 34.0665 8.70895C34.0909 8.70373 34.1187 8.69678 34.1517 8.68983L34.1691 8.77498L34.1482 8.68983C34.2299 8.67072 34.3115 8.6516 34.3949 8.63597C34.4731 8.62033 34.5531 8.60469 34.6347 8.59253L34.6469 8.67767L34.633 8.59253C34.706 8.58036 34.7772 8.57167 34.8502 8.56125C34.9475 8.54908 35.0448 8.53692 35.1456 8.52997C35.2203 8.52476 35.2933 8.51781 35.368 8.51433C35.4028 8.51259 35.4427 8.51086 35.4827 8.51086V8.59774L35.4792 8.51086C35.5661 8.50738 35.6565 8.50391 35.7451 8.50391C35.8059 8.50391 35.8667 8.50391 35.9293 8.50564C36.03 8.50912 36.1308 8.51433 36.2316 8.52128L36.2247 8.60816L36.2299 8.52128C37.3993 8.60295 38.487 8.97133 39.4236 9.56385L39.3767 9.63683L39.4219 9.56212C39.4653 9.58818 39.5053 9.61598 39.5452 9.64031C39.7329 9.76542 39.9136 9.89748 40.0874 10.0382C40.1291 10.0712 40.1725 10.1077 40.2142 10.1425C40.2559 10.179 40.2959 10.2137 40.3359 10.2485C40.4158 10.3215 40.4975 10.3944 40.5757 10.4726L40.5148 10.5334L40.5739 10.4709C40.6156 10.5109 40.6538 10.5491 40.6886 10.5856C40.7286 10.6255 40.7668 10.6655 40.8033 10.7037V10.7055C40.838 10.7437 40.8745 10.7854 40.911 10.8254C40.984 10.9088 41.0552 10.9922 41.123 11.0773L41.0552 11.1312L41.123 11.0756C41.1578 11.119 41.1925 11.1607 41.2255 11.2059L41.156 11.2563L41.2238 11.2024C41.2585 11.2441 41.2916 11.2893 41.3246 11.3362L41.2533 11.3866L41.3228 11.3345C41.3333 11.3484 41.3385 11.3571 41.3419 11.3623L41.3871 11.4231L40.3949 12.4153L40.3359 12.3284C39.3402 10.8514 37.653 9.88184 35.7399 9.88184C35.6669 9.88184 35.5956 9.88358 35.5227 9.88531C35.4671 9.88705 35.4149 9.89053 35.3576 9.89574H35.3541H35.3506L35.3124 9.89922H35.3089H35.3055C35.2585 9.89922 35.2116 9.90617 35.1595 9.91312H35.1578H35.156C35.1282 9.91312 35.1004 9.91833 35.0726 9.92354H35.0691H35.0657C35.0257 9.92702 34.984 9.93223 34.9406 9.93918C34.871 9.94787 34.7998 9.96003 34.7303 9.97219L34.7164 9.88705L34.7338 9.97219C34.6955 9.98088 34.6573 9.98783 34.6174 9.99652C34.5618 10.0087 34.5044 10.0208 34.4488 10.0347H34.4384L34.428 10.0365V10.0069L34.4366 10.0347H34.428V10.0069L34.4366 10.0347H34.4332L34.4297 10.0365C34.355 10.0539 34.2768 10.0747 34.1986 10.0956L34.176 10.0122L34.2003 10.0956C34.1013 10.1251 34.0022 10.1564 33.9049 10.1911C33.8493 10.2102 33.7955 10.2294 33.7416 10.2502C33.5869 10.3093 33.434 10.3771 33.2846 10.4518C33.229 10.4778 33.1751 10.5056 33.1247 10.5334H33.123L33.1091 10.5404L33.0709 10.4622L33.1126 10.5387C33.0552 10.5699 33.0014 10.5995 32.9492 10.6308C32.8398 10.6933 32.7355 10.7611 32.6313 10.8323C32.5948 10.8584 32.5583 10.8827 32.5218 10.9088C32.4975 10.9261 32.4697 10.9453 32.4436 10.9644L32.3932 10.8931L32.4453 10.9626C32.4071 10.9922 32.3654 11.0217 32.3289 11.053C32.2803 11.0912 32.2316 11.1312 32.183 11.1712C32.136 11.2094 32.0891 11.2493 32.0439 11.291C31.997 11.3345 31.9501 11.3762 31.9049 11.4196L31.8441 11.3571L31.9049 11.4179L31.7711 11.5517C31.6843 11.6386 31.6008 11.7307 31.5209 11.828C31.4723 11.8836 31.4271 11.9392 31.3871 11.9948V11.9983C31.3576 12.0347 31.3298 12.0712 31.3037 12.1077V12.1112L31.2985 12.1147C31.2898 12.1268 31.2811 12.1355 31.2777 12.1425V12.146C31.2064 12.2415 31.1404 12.3406 31.0761 12.4414L31.0031 12.3944L31.0778 12.4396C31.0431 12.4952 31.0101 12.5491 30.9788 12.6012C30.951 12.6481 30.9249 12.695 30.9006 12.7402V12.742C30.8259 12.8723 30.7598 13.0078 30.7008 13.1451V13.1486C30.6782 13.1955 30.6573 13.2424 30.6382 13.2893V13.2945C30.6243 13.3258 30.6121 13.3553 30.6017 13.3866V13.3901C30.5843 13.4353 30.567 13.4787 30.5513 13.5222C30.5322 13.5778 30.5131 13.6334 30.4957 13.6872V13.6924C30.4836 13.722 30.4749 13.7515 30.4679 13.7793V13.7828V13.7863L30.3845 13.7602L30.3532 13.7811Z" fill="url(#paint1_linear_8_22390)"/>
<path d="M35.7336 21.06C35.6259 21.06 35.5181 21.0565 35.4139 21.0495C35.334 21.0461 35.254 21.0408 35.1741 21.0304C35.1619 21.0304 35.1532 21.0304 35.1428 21.0287C35.0646 21.02 34.9847 21.0113 34.9065 20.9991C34.8857 20.9974 34.8648 20.9939 34.8457 20.9905C34.7779 20.98 34.7084 20.9661 34.6424 20.954C34.5868 20.9435 34.5347 20.9348 34.4808 20.9209C34.4217 20.907 34.3661 20.8931 34.3088 20.8792C34.1002 20.8254 33.8952 20.7576 33.6971 20.6794C33.6519 20.662 33.6068 20.6429 33.5616 20.6238C33.4486 20.5786 33.3392 20.5282 33.2332 20.4744C33.1776 20.4466 33.1254 20.4188 33.0733 20.391C32.9673 20.3336 32.8648 20.2746 32.7605 20.2103C32.6598 20.146 32.559 20.0799 32.4617 20.0087C32.413 19.9739 32.3644 19.9392 32.3157 19.901C32.2671 19.8662 32.2201 19.828 32.175 19.7898C32.0811 19.715 31.9908 19.6368 31.9039 19.5534C31.8691 19.5204 31.8344 19.4874 31.7996 19.4544C31.784 19.4422 31.7684 19.4266 31.7545 19.411C31.7197 19.3762 31.685 19.338 31.6485 19.3015C31.6068 19.258 31.5685 19.2163 31.5268 19.1712C31.4886 19.1277 31.4486 19.0825 31.4122 19.0356C31.3739 18.9887 31.3357 18.9418 31.3009 18.8949C31.2645 18.848 31.228 18.8011 31.1932 18.7541C31.1585 18.7055 31.1237 18.6568 31.089 18.6082C31.0525 18.5526 31.0142 18.497 30.9777 18.4396C30.8735 18.2746 30.7797 18.1008 30.6893 17.927C30.6858 17.9236 30.6841 17.9166 30.6806 17.9114C30.5555 17.6733 30.4339 17.4318 30.3018 17.2007C30.2497 17.1069 30.1958 17.013 30.142 16.9192C30.0672 16.7871 29.9925 16.6551 29.9178 16.523L28.9274 14.7889L28.7675 14.5057L27.2071 11.894C27.188 11.861 27.1654 11.8297 27.1446 11.7984C27.1411 11.7898 27.1341 11.7845 27.1307 11.7776C26.8544 11.3397 26.5294 10.9331 26.1628 10.5734C24.9291 9.35187 23.2314 8.59775 21.3583 8.59775C19.3652 8.59775 17.5685 9.45266 16.3175 10.8167V4.85144H15.1133V12.6412L15.1168 12.6464L15.9074 14.0278C16.5329 11.5986 18.7345 9.80539 21.3565 9.80539C22.7883 9.80539 24.0916 10.3388 25.0837 11.2163C25.499 11.5847 25.8605 12.0139 26.1524 12.49C26.1663 12.5126 26.1802 12.5352 26.1941 12.5578C26.2306 12.6203 26.2688 12.6846 26.3035 12.7489C26.3383 12.8132 26.3713 12.8775 26.4043 12.9435L27.1393 14.2537L27.7058 15.2615L28.1611 16.0747C28.1611 16.0747 28.1611 16.0747 28.1611 16.073L28.1889 16.1216L28.1923 16.1269L28.6528 16.947C28.6528 16.947 29.506 18.3493 29.7753 18.7871C29.7857 18.8028 29.7927 18.8184 29.8031 18.8341C29.8188 18.8601 29.8327 18.881 29.8396 18.8949C29.8413 18.9001 29.8431 18.9053 29.85 18.9105C29.8518 18.914 29.8535 18.9157 29.8535 18.9157C29.9282 19.0408 30.0064 19.1642 30.0881 19.2841C30.1698 19.4023 30.2566 19.5204 30.3453 19.6351C30.347 19.6421 30.3505 19.6455 30.3557 19.649C30.4408 19.7585 30.5312 19.8662 30.6233 19.9687C30.7206 20.0765 30.8196 20.1825 30.9221 20.2832C31.0768 20.4379 31.2384 20.5821 31.4069 20.7211C31.5772 20.8601 31.751 20.9904 31.9317 21.1103C31.989 21.1486 32.0446 21.1868 32.1037 21.2233C32.1333 21.2407 32.1645 21.2598 32.1941 21.2789C32.2393 21.3067 32.2862 21.3328 32.3314 21.3588C32.4165 21.4092 32.5034 21.4561 32.5937 21.5013C32.8196 21.6195 33.0542 21.7237 33.2957 21.8158C33.3565 21.8401 33.4174 21.8627 33.4799 21.8836C33.6068 21.9288 33.7336 21.967 33.8639 22.0052C33.9074 22.0174 33.9473 22.0278 33.9908 22.04C34.1958 22.0938 34.4061 22.139 34.6198 22.172C34.6841 22.1842 34.7484 22.1929 34.8127 22.2016C34.8874 22.2137 34.9604 22.2207 35.0351 22.2294H35.0403C35.1081 22.2363 35.181 22.2433 35.2506 22.2467C35.4087 22.2589 35.5703 22.2641 35.7319 22.2641C35.8049 22.2641 35.8778 22.2624 35.9508 22.2607C36.0342 22.2589 36.1159 22.2554 36.1993 22.2485C36.2601 22.245 36.3209 22.2381 36.38 22.2328C36.5225 22.2207 36.665 22.2016 36.804 22.1807C36.8492 22.172 36.8961 22.1668 36.9413 22.1564C36.9916 22.1494 37.042 22.139 37.0942 22.1269C37.1063 22.1251 37.1202 22.1234 37.1307 22.1216C37.1793 22.1095 37.228 22.1008 37.2749 22.0886C37.6693 21.9983 38.0481 21.8732 38.413 21.7185C38.4738 21.6924 38.5347 21.6664 38.592 21.6386C38.6545 21.609 38.7171 21.5795 38.7779 21.5482C38.8387 21.5187 38.8996 21.4874 38.9586 21.4544C38.9691 21.4509 38.9777 21.4457 38.9882 21.4388C39.0855 21.3866 39.1793 21.331 39.2731 21.2754C39.2923 21.2633 39.3131 21.2546 39.3305 21.2407C39.3791 21.2111 39.4278 21.1799 39.4747 21.1486C39.6485 21.0356 39.817 20.914 39.9786 20.7837C40.0846 20.7003 40.1871 20.6116 40.2896 20.5213C40.3383 20.4761 40.3887 20.4309 40.4373 20.384C40.4391 20.3823 40.4426 20.3805 40.4443 20.3788C40.4912 20.3319 40.5364 20.2867 40.5816 20.2415C40.7675 20.0539 40.9413 19.8575 41.1046 19.6507C41.1098 19.6455 41.1168 19.6368 41.1202 19.6316C41.1602 19.5795 41.2002 19.5256 41.2419 19.4718C41.2506 19.4613 41.2575 19.4509 41.2645 19.4388L40.3991 18.5734C39.3878 20.073 37.6745 21.0582 35.7301 21.0582L35.7336 21.06Z" fill="#096EB7"/>
<mask id="mask1_8_22390" style="mask-type:luminance" maskUnits="userSpaceOnUse" x="32" y="2" width="7" height="6">
<path d="M32.9414 4.94528C32.9414 6.35971 34.0882 7.50654 35.5027 7.50654C36.9171 7.50654 38.0639 6.35971 38.0639 4.94528C38.0639 3.53086 36.9171 2.38403 35.5027 2.38403C34.0882 2.38403 32.9414 3.53086 32.9414 4.94528Z" fill="white"/>
</mask>
<g mask="url(#mask1_8_22390)">
<path d="M38.0656 2.38232H32.9414V7.50656H38.0656V2.38232Z" fill="url(#paint2_linear_8_22390)"/>
</g>
<path d="M38.0688 4.94525H38.1556C38.1556 6.40833 36.9706 7.59338 35.5075 7.59338C34.0444 7.59338 32.8594 6.40833 32.8594 4.94525C32.8594 3.48218 34.0444 2.29712 35.5075 2.29712C36.9706 2.29712 38.1556 3.48218 38.1556 4.94525H37.9819C37.9801 3.57774 36.8733 2.47262 35.5075 2.47088C34.14 2.47262 33.0349 3.57948 33.0331 4.94525C33.0349 6.31276 34.1417 7.41788 35.5075 7.41962C36.875 7.41788 37.9801 6.31102 37.9819 4.94525H38.0688Z" fill="url(#paint3_linear_8_22390)"/>
<path d="M46.5414 32C46.3277 31.8454 46.1261 31.6821 45.9332 31.5135C45.7421 31.3432 45.5614 31.166 45.3946 30.9801C45.2278 30.7941 45.0731 30.596 44.9324 30.3893C44.7916 30.1808 44.6665 29.9618 44.5553 29.7325L44.882 29.484C44.8976 29.5187 44.9115 29.55 44.9272 29.5813C44.9428 29.6126 44.9584 29.6421 44.9758 29.6716C45.0106 29.7203 45.0505 29.7585 45.0974 29.7846C45.1444 29.8106 45.2052 29.8245 45.2799 29.8245C45.3285 29.8245 45.3737 29.8124 45.412 29.7898C45.4519 29.7672 45.4849 29.7377 45.5145 29.7029C45.544 29.6682 45.5649 29.6334 45.5805 29.5969C45.5961 29.5604 45.6031 29.5292 45.6031 29.5048V28.1947H44.3398V27.7603H48.6491V28.1947H47.8498V31.8263H47.412V30.0331H45.8863C45.8377 30.0991 45.7786 30.1547 45.7074 30.1981C45.6361 30.2416 45.5544 30.2642 45.4571 30.2642C45.438 30.2642 45.4172 30.2624 45.3946 30.2572C45.372 30.2537 45.3494 30.2485 45.3251 30.2451C45.5249 30.5248 45.7508 30.782 46.0027 31.0183C46.2547 31.2546 46.531 31.4822 46.8333 31.6994L46.5397 32.0035L46.5414 32ZM46.0358 29.5952H47.4102V28.1912H46.0358V29.5952Z" fill="white"/>
<path d="M47.3867 26.523C47.3867 26.4726 47.3954 26.4239 47.4163 26.3788C47.4354 26.3336 47.4614 26.2953 47.4962 26.2623C47.5309 26.2293 47.5692 26.2033 47.6143 26.1824C47.6595 26.1615 47.7064 26.1511 47.7586 26.1511C47.8107 26.1511 47.8576 26.1615 47.9028 26.1824C47.948 26.2033 47.9862 26.2293 48.0209 26.2623C48.0557 26.2953 48.0818 26.3336 48.1009 26.3788C48.12 26.4239 48.1304 26.4708 48.1304 26.523C48.1304 26.5751 48.12 26.622 48.1009 26.6672C48.0818 26.7124 48.0557 26.7506 48.0209 26.7836C47.9862 26.8166 47.948 26.8427 47.9028 26.8618C47.8576 26.8809 47.8107 26.8913 47.7586 26.8913C47.7064 26.8913 47.6595 26.8827 47.6143 26.8618C47.5692 26.8427 47.5292 26.8166 47.4962 26.7836C47.4614 26.7506 47.4354 26.7124 47.4163 26.6672C47.3971 26.622 47.3867 26.5751 47.3867 26.523Z" fill="white"/>
<path d="M53.6276 28.1912H51.1394V29.2268C51.1967 29.159 51.2593 29.1017 51.3288 29.0565C51.3965 29.0113 51.466 28.9766 51.5356 28.9488C51.6051 28.921 51.6728 28.9018 51.7423 28.8914C51.8101 28.881 51.8761 28.8758 51.9369 28.8758C52.1142 28.8758 52.2636 28.9088 52.3852 28.9748C52.5086 29.0409 52.6077 29.1243 52.6841 29.2233C52.7606 29.3223 52.8162 29.4283 52.8509 29.5413C52.8857 29.6542 52.9013 29.7585 52.9013 29.8523C52.9013 30.0209 52.8718 30.1686 52.8144 30.2989C52.7571 30.4292 52.6859 30.5387 52.6025 30.6325C52.519 30.7263 52.4287 30.8045 52.3331 30.8654C52.2376 30.9279 52.1507 30.9748 52.0742 31.0096L51.8535 30.6812C51.9682 30.6221 52.0655 30.5595 52.1437 30.4952C52.2219 30.4309 52.2845 30.3632 52.3331 30.2937C52.38 30.2242 52.4148 30.1495 52.4356 30.073C52.4565 29.9965 52.4669 29.9149 52.4669 29.8297C52.4669 29.7533 52.453 29.682 52.427 29.6195C52.4009 29.5552 52.3644 29.5013 52.3157 29.4561C52.2688 29.411 52.2132 29.3762 52.1489 29.3519C52.0846 29.3276 52.0151 29.3154 51.9387 29.3154C51.7806 29.3154 51.6329 29.3658 51.4921 29.4683C51.3531 29.5708 51.2367 29.7046 51.1411 29.8714V31.8245H50.7032V30.4883C50.6563 30.5578 50.6007 30.6221 50.5347 30.6777C50.4687 30.7333 50.4009 30.7802 50.3296 30.8167C50.2584 30.8532 50.1854 30.8827 50.1107 30.9018C50.036 30.921 49.9665 30.9314 49.9022 30.9314C49.7545 30.9314 49.6155 30.9071 49.4817 30.8584C49.3479 30.8097 49.2315 30.7402 49.129 30.6499C49.0264 30.5595 48.9465 30.4483 48.8857 30.318C48.8266 30.1877 48.7953 30.0382 48.7953 29.8714C48.7953 29.7289 48.8249 29.5969 48.8857 29.4753C48.9448 29.3536 49.023 29.2494 49.1185 29.1607C49.2141 29.0721 49.3218 29.0044 49.4417 28.954C49.5616 28.9053 49.6815 28.881 49.8031 28.881C49.9248 28.881 50.029 28.8949 50.1316 28.9227C50.2323 28.9505 50.3227 28.9818 50.4009 29.0165C50.4791 29.0513 50.5434 29.086 50.5938 29.1225C50.6442 29.1573 50.6806 29.1833 50.7015 29.1972V28.1964H48.5781V27.762H53.6259V28.1964L53.6276 28.1912ZM50.7015 29.6108C50.6598 29.5795 50.6094 29.5448 50.5521 29.51C50.4947 29.4753 50.4304 29.4422 50.3609 29.4144C50.2914 29.3849 50.215 29.3623 50.135 29.3432C50.0534 29.3241 49.97 29.3137 49.8813 29.3137C49.7806 29.3137 49.6919 29.3293 49.612 29.3606C49.5321 29.3918 49.4643 29.4336 49.4087 29.4874C49.3531 29.5413 49.3097 29.6038 49.2801 29.6751C49.2506 29.7463 49.2349 29.8228 49.2349 29.9044C49.2349 30.0122 49.2558 30.106 49.2975 30.1807C49.3392 30.2554 49.3896 30.318 49.4504 30.3632C49.5112 30.4084 49.5755 30.4431 49.6433 30.464C49.7111 30.4848 49.7719 30.4952 49.8223 30.4952C49.9039 30.4952 49.9804 30.4848 50.0534 30.464C50.1263 30.4431 50.1976 30.4101 50.2671 30.3649C50.3366 30.3197 50.4078 30.2607 50.4791 30.1894C50.5503 30.1164 50.625 30.0296 50.7015 29.927V29.6143V29.6108Z" fill="white"/>
<path d="M53.5547 27.7566H56.6876V28.191H53.5547V27.7566ZM56.6876 29.7288L55.3966 30.6619L55.1081 30.3074C55.1481 30.2779 55.1794 30.2484 55.2019 30.2206C55.2245 30.1928 55.2402 30.165 55.2506 30.1389C55.261 30.1128 55.2662 30.0868 55.268 30.0624C55.2697 30.0381 55.2715 30.0138 55.2715 29.9912C55.2715 29.9495 55.2593 29.9061 55.235 29.8644C55.2106 29.8226 55.1759 29.7844 55.1324 29.7514C55.089 29.7167 55.0351 29.6906 54.9743 29.6697C54.9118 29.6489 54.8457 29.6402 54.7728 29.6402C54.705 29.6402 54.6372 29.6506 54.5712 29.6697C54.5052 29.6906 54.4443 29.7219 54.3905 29.7653C54.3366 29.8088 54.2932 29.8644 54.2584 29.9304C54.2254 29.9964 54.208 30.0746 54.208 30.1667C54.208 30.3057 54.2289 30.436 54.2741 30.5577C54.3175 30.681 54.3835 30.7992 54.4687 30.9156C54.5556 31.032 54.6615 31.1467 54.7901 31.2597C54.9187 31.3726 55.0664 31.4873 55.235 31.6054L55.0073 31.9095C54.7849 31.7723 54.5973 31.628 54.4409 31.4769C54.2845 31.324 54.1576 31.171 54.0569 31.0181C53.9561 30.8652 53.8831 30.7123 53.8379 30.5646C53.7927 30.4152 53.7702 30.2762 53.7702 30.1458C53.7702 29.9877 53.7997 29.8505 53.8605 29.734C53.9213 29.6176 53.9995 29.5186 54.0951 29.4404C54.1907 29.3622 54.2984 29.3031 54.42 29.2649C54.5399 29.2266 54.6615 29.2075 54.7832 29.2075C54.9048 29.2075 55.0126 29.2266 55.1133 29.2631C55.2141 29.2996 55.3027 29.35 55.3757 29.4108C55.4487 29.4717 55.506 29.5412 55.546 29.6194C55.586 29.6975 55.6068 29.7792 55.6068 29.8626C55.6068 29.8904 55.6033 29.9182 55.5981 29.9443C55.5929 29.9703 55.586 29.9982 55.5773 30.026L56.6841 29.2562V29.7323L56.6876 29.7288ZM59.7354 28.191H58.9326V31.8227H58.4982V30.4187C58.4635 30.469 58.4218 30.516 58.3696 30.5542C58.3192 30.5942 58.2619 30.6254 58.2011 30.6515C58.1403 30.6776 58.0777 30.6967 58.0099 30.7106C57.9439 30.7245 57.8779 30.7314 57.8153 30.7314C57.6381 30.7314 57.48 30.6984 57.3392 30.6324C57.1985 30.5664 57.0786 30.4795 56.9813 30.37C56.884 30.2605 56.8075 30.1372 56.7554 29.9999C56.7033 29.8609 56.6772 29.7201 56.6772 29.5742V28.1893H56.387V27.7549H59.7354V28.1893V28.191ZM58.4982 28.191H57.1168V29.5811C57.1168 29.701 57.1377 29.8053 57.1776 29.8956C57.2176 29.986 57.2715 30.0607 57.3375 30.1215C57.4035 30.1806 57.48 30.2258 57.5669 30.2553C57.6537 30.2849 57.7423 30.3005 57.8362 30.3005C57.9109 30.3005 57.9874 30.2883 58.0673 30.2623C58.1455 30.2362 58.2185 30.198 58.281 30.1441C58.3453 30.0902 58.3974 30.0225 58.4374 29.9373C58.4774 29.8522 58.4982 29.7531 58.4982 29.635V28.1893V28.191Z" fill="white"/>
<path d="M66.9438 32C66.73 31.8454 66.5285 31.6821 66.3356 31.5135C66.1444 31.3432 65.9637 31.166 65.7969 30.9801C65.6301 30.7941 65.4755 30.596 65.3347 30.3893C65.194 30.1808 65.0689 29.9618 64.9577 29.7325L65.2843 29.484C65.2982 29.5187 65.3139 29.55 65.3295 29.5813C65.3451 29.6126 65.3608 29.6421 65.3782 29.6716C65.4129 29.7203 65.4529 29.7585 65.4998 29.7846C65.5467 29.8106 65.6075 29.8245 65.6822 29.8245C65.7309 29.8245 65.7761 29.8124 65.8143 29.7898C65.8543 29.7672 65.8873 29.7377 65.9168 29.7029C65.9464 29.6682 65.9672 29.6334 65.9829 29.5969C65.9968 29.5604 66.0054 29.5292 66.0054 29.5048V28.1947H64.7422V27.7603H69.0515V28.1947H68.2522V31.8263H67.8143V30.0331H66.2887C66.24 30.0991 66.1809 30.1547 66.1097 30.1981C66.0402 30.2416 65.9568 30.2642 65.8595 30.2642C65.8404 30.2642 65.8195 30.2624 65.7969 30.2572C65.7743 30.252 65.7517 30.2485 65.7274 30.2451C65.9272 30.5248 66.1531 30.782 66.4051 31.0183C66.657 31.2546 66.9333 31.4822 67.2357 31.6994L66.942 32.0035L66.9438 32ZM66.4381 29.5952H67.8126V28.1912H66.4381V29.5952Z" fill="white"/>
<path d="M67.8357 27.7916C67.8062 27.6143 67.761 27.4406 67.7002 27.2668C67.6394 27.0948 67.5612 26.9401 67.4656 26.8029C67.3701 26.6673 67.2571 26.5561 67.125 26.4727C66.9947 26.3893 66.8436 26.3459 66.6767 26.3459C66.602 26.3459 66.5308 26.3511 66.463 26.3632C66.3952 26.3754 66.3136 26.398 66.2198 26.4345L66.0703 26.0088C66.1659 25.9723 66.2615 25.9462 66.357 25.9306C66.4526 25.9149 66.5534 25.9062 66.6628 25.9062C66.8609 25.9062 67.0451 25.9497 67.2154 26.0366C67.3857 26.1235 67.5386 26.2468 67.6741 26.4102C67.8097 26.5735 67.9261 26.7716 68.0234 27.0027C68.1207 27.2355 68.1954 27.4979 68.2493 27.7898H67.8392L67.8357 27.7916Z" fill="white"/>
<path d="M71.4548 28.1912H68.9805V27.7568H72.692V28.1912H71.8892V31.8229H71.4548V30.5249C71.3349 30.6204 71.1977 30.6917 71.043 30.7386C70.8866 30.7855 70.7303 30.8081 70.5704 30.8081C70.3845 30.8081 70.209 30.7786 70.0422 30.7177C69.8753 30.6569 69.7311 30.5735 69.606 30.4675C69.4809 30.3615 69.3819 30.2364 69.3089 30.0939C69.2359 29.9514 69.1977 29.7985 69.1977 29.6335C69.1977 29.4997 69.2324 29.3728 69.3019 29.2564C69.3714 29.14 69.4635 29.0375 69.5782 28.9506C69.6929 28.8637 69.825 28.7959 69.9744 28.7455C70.1238 28.6951 70.2785 28.6708 70.4383 28.6708C70.5409 28.6708 70.6399 28.6812 70.7389 28.7038C70.8362 28.7264 70.9301 28.756 71.0204 28.7942L70.9179 29.1713C70.7789 29.1052 70.6225 29.0722 70.447 29.0722C70.3462 29.0722 70.2489 29.0861 70.1516 29.1122C70.0543 29.1382 69.9674 29.1765 69.891 29.2269C69.8145 29.2773 69.752 29.3381 69.7051 29.411C69.6581 29.484 69.6338 29.5657 69.6338 29.6578C69.6338 29.7429 69.6581 29.8298 69.7051 29.9167C69.752 30.0036 69.8163 30.0835 69.8997 30.153C69.9831 30.2225 70.0821 30.2816 70.1968 30.325C70.3115 30.3702 70.4366 30.3928 70.5704 30.3928C70.6868 30.3928 70.7998 30.3754 70.9075 30.3407C71.0152 30.3059 71.1091 30.259 71.189 30.2017C71.2689 30.1443 71.3332 30.0783 71.3801 30.0071C71.4288 29.9341 71.4514 29.8611 71.4514 29.7864V28.1912H71.4548Z" fill="white"/>
<path d="M74.3704 28.1912H73.5711V31.8246H73.135V28.1912H72.6172V27.7568H74.3704V28.1912Z" fill="white"/>
<path d="M81.4125 32C81.1988 31.8454 80.9972 31.6821 80.8043 31.5135C80.6132 31.3432 80.4325 31.166 80.2657 30.9801C80.0989 30.7941 79.9442 30.596 79.8035 30.3893C79.6627 30.1808 79.5376 29.9618 79.4264 29.7325L79.7531 29.484C79.767 29.5187 79.7826 29.55 79.7983 29.5813C79.8139 29.6126 79.8295 29.6421 79.8469 29.6716C79.8817 29.7203 79.9216 29.7585 79.9685 29.7846C80.0155 29.8106 80.0763 29.8245 80.151 29.8245C80.1996 29.8245 80.2448 29.8124 80.283 29.7898C80.323 29.7672 80.356 29.7377 80.3856 29.7029C80.4151 29.6682 80.436 29.6334 80.4516 29.5969C80.4672 29.5604 80.4742 29.5292 80.4742 29.5048V28.1947H79.2109V27.7603H83.5202V28.1947H82.7209V31.8263H82.283V30.0331H80.7574C80.7088 30.0991 80.6479 30.1547 80.5784 30.1981C80.5089 30.2416 80.4255 30.2642 80.3282 30.2642C80.3091 30.2642 80.2883 30.2624 80.2657 30.2572C80.2431 30.2537 80.2205 30.2485 80.1979 30.2451C80.3977 30.5248 80.6236 30.782 80.8756 31.0183C81.1275 31.2546 81.4038 31.4822 81.7062 31.6994L81.4125 32.0035V32ZM80.9069 29.5952H82.2813V28.1912H80.9069V29.5952Z" fill="white"/>
<path d="M87.3241 28.1912H86.5213V31.8229H86.0869V30.1026H84.9175C84.8706 30.1026 84.8393 30.1183 84.8237 30.1495C84.808 30.1808 84.7994 30.2277 84.7994 30.2868V30.5422C84.7994 30.5422 84.7976 30.5666 84.7924 30.5892C84.7889 30.6117 84.7785 30.6343 84.7629 30.6587C84.7472 30.683 84.7264 30.7021 84.6986 30.7212C84.6708 30.7386 84.6343 30.749 84.5874 30.749C84.5283 30.749 84.464 30.7351 84.3962 30.709C84.3285 30.683 84.259 30.6465 84.1912 30.6013C84.1234 30.5561 84.0574 30.5057 83.9948 30.4467C83.9323 30.3876 83.8767 30.3268 83.8263 30.2625C83.7776 30.1982 83.7377 30.1339 83.7099 30.0679C83.6803 30.0018 83.6664 29.9393 83.6664 29.8785C83.6664 29.8177 83.6855 29.7655 83.7255 29.7256C83.7655 29.6856 83.8245 29.6647 83.9027 29.6647H84.3632V28.1912H83.4492V27.7568H87.3241V28.1912ZM86.0869 28.1912H84.7994V29.6647H86.0869V28.1912Z" fill="white"/>
<path d="M89.0015 28.1912H88.2022V31.8246H87.7678V28.1912H87.25V27.7568H89.0015V28.1912Z" fill="white"/>
<path d="M89.5129 28.5509C89.5129 28.6621 89.5407 28.7629 89.598 28.8532C89.6537 28.9436 89.7214 29.02 89.7979 29.0843C89.8743 29.1486 89.9543 29.1973 90.0342 29.232C90.1159 29.2668 90.1802 29.2842 90.2288 29.2842H91.0246V29.7186H90.1193C90.0933 29.7186 90.062 29.722 90.0255 29.7273C89.989 29.7342 89.9525 29.7481 89.9178 29.7672C89.883 29.7881 89.8535 29.8141 89.8291 29.8506C89.8048 29.8854 89.7927 29.9323 89.7927 29.9896C89.7927 30.0956 89.8222 30.1895 89.8795 30.2711C89.9369 30.3528 90.0116 30.4206 90.102 30.4762C90.1923 30.5318 90.2931 30.5735 90.406 30.603C90.5172 30.6326 90.6285 30.6465 90.7362 30.6465C90.8665 30.6465 90.9951 30.6308 91.1254 30.5995C91.254 30.5683 91.3774 30.5231 91.4955 30.464C91.6137 30.4049 91.7249 30.332 91.8257 30.2468C91.9282 30.1617 92.0168 30.0644 92.095 29.9549V28.1895H91.5094V27.7551H93.3322V28.1895H92.5294V31.8211H92.095V30.577C92.0186 30.6465 91.9351 30.7125 91.8448 30.7733C91.7562 30.8341 91.6554 30.888 91.5459 30.9332C91.4364 30.9783 91.3148 31.0148 91.1793 31.0426C91.0455 31.0687 90.896 31.0826 90.731 31.0826C90.6528 31.0826 90.5624 31.0739 90.4634 31.0565C90.3643 31.0392 90.2636 31.0114 90.1628 30.9731C90.062 30.9349 89.9612 30.8845 89.8639 30.8254C89.7666 30.7646 89.6797 30.6899 89.6033 30.6013C89.5285 30.5127 89.466 30.4101 89.4208 30.2955C89.3756 30.1808 89.3513 30.0487 89.3513 29.8993C89.3513 29.8489 89.3583 29.7968 89.3704 29.7429C89.3826 29.689 89.4034 29.6386 89.4312 29.59C89.459 29.5413 89.4938 29.4962 89.539 29.4562C89.5824 29.4162 89.6363 29.3832 89.6971 29.3571C89.6033 29.3137 89.5216 29.2616 89.4538 29.2008C89.3861 29.1382 89.3287 29.0704 89.2818 28.9957C89.2349 28.921 89.2001 28.8428 89.1775 28.7594C89.1549 28.676 89.1445 28.5926 89.1445 28.5075C89.1445 28.3737 89.1741 28.2503 89.2349 28.1373C89.2957 28.0244 89.3774 27.9271 89.4816 27.8437C89.5859 27.7603 89.7058 27.696 89.8413 27.6508C89.9786 27.6056 90.1228 27.5813 90.2757 27.5813C90.3782 27.5813 90.4755 27.5969 90.5659 27.63C90.6563 27.6612 90.7344 27.7064 90.8022 27.762C90.87 27.8194 90.9221 27.8854 90.9621 27.9653C91.002 28.0435 91.0212 28.1321 91.0212 28.2277C91.0212 28.3059 91.0038 28.3823 90.9708 28.4536C90.9377 28.5248 90.8926 28.5874 90.8335 28.6412C90.7744 28.6951 90.7032 28.7368 90.6215 28.7698C90.5381 28.8011 90.4477 28.8185 90.3504 28.8185C90.2601 28.8185 90.1767 28.8046 90.0985 28.7733C90.0203 28.7438 89.949 28.7038 89.8847 28.6517C89.8205 28.5995 89.7631 28.5405 89.7145 28.4744C89.6641 28.4067 89.6241 28.3354 89.5911 28.259C89.5372 28.3493 89.5112 28.4466 89.5112 28.5526M90.3105 28.4536C90.4008 28.4536 90.4686 28.4293 90.5172 28.3789C90.5659 28.3285 90.5885 28.2746 90.5885 28.2173C90.5885 28.1825 90.5798 28.1495 90.5607 28.1165C90.5433 28.0835 90.519 28.0539 90.4894 28.0296C90.4599 28.0053 90.4234 27.9862 90.3817 27.9705C90.34 27.9549 90.2966 27.9479 90.2497 27.9479C90.1662 27.9479 90.0898 27.9566 90.0185 27.974C89.9473 27.9914 89.883 28.014 89.8291 28.0435C89.85 28.0991 89.8795 28.1512 89.9178 28.2016C89.956 28.252 89.9977 28.2955 90.0429 28.3337C90.0881 28.3702 90.1332 28.3997 90.1801 28.4223C90.2271 28.4432 90.2705 28.4536 90.3122 28.4536" fill="white"/>
<path d="M95.015 28.1912H94.2157V31.8246H93.7795V28.1912H93.2617V27.7568H95.015V28.1912Z" fill="white"/>
<path d="M98.818 28.1912H98.0153V31.8229H97.5809V29.6647H96.4097C96.3628 29.6647 96.3315 29.6821 96.3159 29.7151C96.3002 29.7481 96.2915 29.7933 96.2915 29.8507V30.1061C96.2915 30.1061 96.2898 30.1304 96.2846 30.153C96.2794 30.1756 96.2707 30.1982 96.255 30.2225C96.2394 30.2468 96.2186 30.2694 96.1908 30.2868C96.163 30.3042 96.1265 30.3146 96.0795 30.3146C96.0205 30.3146 95.9562 30.3007 95.8884 30.2746C95.8206 30.2486 95.7511 30.2121 95.6834 30.1669C95.6156 30.1217 95.5496 30.0696 95.487 30.0123C95.4245 29.9532 95.3689 29.8924 95.3185 29.8263C95.2698 29.762 95.2299 29.696 95.202 29.6317C95.1725 29.5674 95.1586 29.5049 95.1586 29.4441C95.1586 29.3832 95.1777 29.3311 95.2177 29.2912C95.2576 29.2512 95.3167 29.2303 95.3949 29.2303H97.5791V28.1912H94.9414V27.7568H98.8163V28.1912H98.818Z" fill="white"/>
<path d="M44.9802 9.40411H44.2383L44.24 8.49707L46.1931 8.50054L46.1879 10.6048C46.1879 10.7195 46.1879 10.8237 46.1775 10.9002C46.1688 10.9489 46.167 10.9853 46.167 11.0149H46.1862C46.2713 10.8811 46.386 10.7577 46.5302 10.6535C46.7683 10.4727 47.1401 10.292 47.6458 10.2938C48.9698 10.2972 49.8056 11.3363 49.8021 12.8411C49.7987 14.3841 48.8534 15.3815 47.5589 15.3798C47.0254 15.3798 46.664 15.1782 46.4364 14.9871C46.3026 14.8724 46.1983 14.749 46.1132 14.6048H46.0941C46.0941 14.6326 46.0941 14.6708 46.1027 14.7091C46.1114 14.7751 46.1114 14.862 46.1114 14.9662V15.2616L44.9681 15.2599L44.9802 9.40237V9.40411ZM47.3504 14.3615C48.0072 14.3615 48.5806 13.8211 48.5823 12.8602C48.5841 11.9358 48.0993 11.3346 47.3764 11.3346C46.7387 11.3346 46.1566 11.7985 46.1549 12.8654C46.1549 13.6178 46.5424 14.3615 47.3521 14.3633" fill="white"/>
<path d="M50.1771 14.3685H50.8826L50.893 9.41799H50.1406L50.1424 8.5127L52.1041 8.51617L52.0989 10.8776C52.0989 10.9923 52.0989 11.0965 52.0885 11.173L52.0694 11.2877H52.0885C52.3179 10.822 52.9382 10.3077 53.767 10.3111C54.8444 10.3129 55.4612 10.8672 55.4595 12.1617L55.4543 14.3806H56.1597L56.158 15.2877L54.2431 15.2842L54.2484 12.4084C54.2484 11.809 54.0972 11.418 53.489 11.4163C52.6219 11.4145 52.0972 12.1565 52.0954 13.0514V14.3754H52.7888V15.2807L50.1771 15.2755V14.3702V14.3685Z" fill="white"/>
<path d="M59.1352 12.2918H59.4393V12.1302C59.4393 11.5116 59.0501 11.291 58.5461 11.291C58.1743 11.291 57.8511 11.4039 57.5939 11.5168C57.441 11.5829 57.2985 11.668 57.1752 11.7532L56.7286 10.9139C56.8815 10.7992 57.0535 10.695 57.2534 10.6098C57.587 10.4586 58.0735 10.3161 58.6539 10.3179C59.9588 10.3214 60.6521 10.9886 60.6504 12.2362L60.6469 14.1789C60.6469 14.3214 60.713 14.3891 60.8554 14.3891H61.2933L61.2916 15.2944H60.1482C59.6999 15.291 59.5296 15.0529 59.5296 14.7766V14.7193C59.5296 14.6428 59.5401 14.5855 59.5488 14.5386C59.5592 14.5108 59.5592 14.4916 59.5592 14.4725H59.5401C59.4532 14.6428 59.3402 14.7957 59.196 14.9382C58.9388 15.1763 58.5757 15.4039 58.004 15.4022C57.1665 15.4004 56.395 14.9139 56.3984 13.9217C56.4019 12.436 58.3533 12.2883 59.1352 12.2901M58.3203 14.4986C58.9771 14.4986 59.4462 13.7966 59.4462 13.1867V13.0251H59.2464C58.7599 13.0251 57.6183 13.0981 57.6165 13.8314C57.6165 14.2032 57.872 14.4986 58.3203 14.5003" fill="white"/>
<path d="M61.7118 14.3928H62.4156L62.4225 11.5552C62.4225 11.4128 62.3565 11.345 62.214 11.345H61.6719L61.6736 10.4397L62.9403 10.4432C63.3695 10.4432 63.5885 10.6447 63.5867 11.0357V11.3207C63.5867 11.4058 63.5867 11.4736 63.5763 11.5396C63.5659 11.5674 63.5659 11.597 63.5659 11.6248H63.585C63.8144 10.9297 64.3773 10.3789 65.1297 10.3806C65.1958 10.3806 65.2444 10.3806 65.2826 10.391C65.3105 10.4015 65.3296 10.4015 65.3487 10.4015L65.3452 11.5917C65.3174 11.5917 65.2879 11.5917 65.2601 11.5813C65.194 11.5726 65.1367 11.5709 65.0498 11.5709C64.0681 11.5691 63.6284 12.4258 63.6267 13.3398V14.3963H64.32V15.3016L61.7084 15.2963V14.391L61.7118 14.3928Z" fill="white"/>
<path d="M68.2797 12.3111H68.5838V12.1495C68.5838 11.5309 68.1946 11.3102 67.6907 11.3102C67.3188 11.3102 66.9956 11.4232 66.7385 11.5361C66.5855 11.6022 66.4431 11.6873 66.3197 11.7724L65.8731 10.9332C66.026 10.8185 66.1981 10.7142 66.3979 10.6291C66.7315 10.4779 67.218 10.3354 67.7984 10.3372C69.1034 10.3406 69.7967 11.0079 69.7949 12.2555L69.7915 14.1982C69.7915 14.3406 69.8575 14.4084 70 14.4084H70.4379L70.4361 15.3137H69.2928C68.8445 15.3102 68.6742 15.0722 68.6742 14.7959V14.7386C68.6742 14.6621 68.6846 14.6048 68.6933 14.5579C68.7037 14.53 68.7037 14.5109 68.7037 14.4918H68.6846C68.5977 14.6621 68.483 14.815 68.3405 14.9575C68.0834 15.1956 67.7202 15.4232 67.1485 15.4214C66.3093 15.4197 65.5395 14.9332 65.543 13.941C65.5465 12.4553 67.4995 12.3076 68.2797 12.3094M67.4648 14.5179C68.1216 14.5179 68.5908 13.8159 68.5908 13.206V13.0444H68.3909C67.9061 13.0444 66.7628 13.1174 66.761 13.8506C66.761 14.2225 67.0165 14.5179 67.4648 14.5196" fill="white"/>
<path d="M71.2927 11.3658H70.5508L70.5525 10.4588H71.3327L71.3362 9.13647H72.5073L72.5039 10.4623H73.609L73.6073 11.3693H72.5021L72.4969 13.4145C72.4969 14.252 73.1242 14.358 73.4665 14.3598C73.5325 14.3598 73.5899 14.3511 73.6281 14.3511H73.6854L73.6837 15.3415L73.5795 15.3606C73.5117 15.3693 73.4265 15.3693 73.3119 15.3693C72.6272 15.3693 71.2841 15.1643 71.2875 13.5361L71.2927 11.3641V11.3658Z" fill="white"/>
<path d="M46.3216 18.1824C47.0861 18.1824 48.1999 18.4691 48.1999 19.2788V19.9078H47.2112V19.602C47.2112 19.2875 46.7438 19.1537 46.3581 19.1537C45.5223 19.1537 45.0097 19.7289 45.0097 20.5646C45.0097 21.5082 45.6665 22.0208 46.4467 22.0208C47.0931 22.0208 47.6231 21.6611 47.875 21.463L48.2799 22.271C47.9654 22.5681 47.2651 22.9817 46.3841 22.9817C45.0462 22.9817 43.8594 22.066 43.8594 20.5907C43.8594 19.2249 44.9106 18.1824 46.3216 18.1824Z" fill="white"/>
<path d="M51.1645 18.1824C52.5668 18.1824 53.6893 19.1798 53.6893 20.5803C53.6893 21.9808 52.5668 22.9799 51.1732 22.9799C49.7796 22.9799 48.6484 21.9912 48.6484 20.5803C48.6484 19.1693 49.7709 18.1824 51.1645 18.1824ZM51.1732 22.0103C51.9186 22.0103 52.5303 21.4352 52.5303 20.582C52.5303 19.7289 51.9186 19.1537 51.1732 19.1537C50.4278 19.1537 49.8074 19.7375 49.8074 20.582C49.8074 21.4265 50.4278 22.0103 51.1732 22.0103Z" fill="white"/>
<path d="M54.4433 17.3483H53.7344V16.4951H55.5763V21.3465C55.5763 21.7688 55.6562 21.9756 56.0437 21.9756C56.1062 21.9756 56.1601 21.9669 56.1966 21.9669H56.2591V22.8826L56.134 22.9C56.0628 22.9087 55.9637 22.9087 55.8456 22.9087C55.1175 22.9087 54.4433 22.6654 54.4433 21.4178V17.3483Z" fill="white"/>
<path d="M56.9355 17.3483H56.2266V16.4951H58.0684V21.3465C58.0684 21.7688 58.1484 21.9756 58.5359 21.9756C58.5984 21.9756 58.6523 21.9669 58.6888 21.9669H58.7513V22.8826L58.6262 22.9C58.555 22.9087 58.4559 22.9087 58.3378 22.9087C57.6097 22.9087 56.9355 22.6654 56.9355 21.4178V17.3483Z" fill="white"/>
<path d="M61.6333 20.0433H61.92V19.8904C61.92 19.3066 61.5516 19.0998 61.0755 19.0998C60.7245 19.0998 60.4205 19.2075 60.1772 19.3153C60.033 19.3778 59.8992 19.4595 59.781 19.5394L59.3588 18.7488C59.503 18.6411 59.6646 18.542 59.8523 18.4621C60.1668 18.3179 60.6255 18.1841 61.1728 18.1841C62.4031 18.1841 63.0599 18.8131 63.0599 19.9895V21.8227C63.0599 21.9582 63.1225 22.0207 63.258 22.0207H63.6715V22.8739H62.5942C62.172 22.8739 62.0104 22.6498 62.0104 22.3891V22.3353C62.0104 22.264 62.0191 22.2101 62.0278 22.165C62.0364 22.1389 62.0364 22.1198 62.0364 22.1024H62.0191C61.9374 22.264 61.8297 22.4082 61.6959 22.542C61.4526 22.7662 61.112 22.9816 60.5734 22.9816C59.7828 22.9816 59.0547 22.5229 59.0547 21.5898C59.0547 20.1876 60.8966 20.0451 61.6333 20.0451M60.8705 22.1302C61.4908 22.1302 61.9305 21.4647 61.9305 20.8896V20.7366H61.7411C61.2823 20.7366 60.205 20.8079 60.205 21.5012C60.205 21.8522 60.4465 22.1302 60.8705 22.1302Z" fill="white"/>
<path d="M64.3643 17.3466H63.6641V16.4934H65.5059V18.4795C65.5059 18.5872 65.5059 18.6863 65.4972 18.7575C65.4886 18.8027 65.4886 18.8375 65.4886 18.8653H65.5059C65.5859 18.7402 65.6953 18.622 65.8291 18.5247C66.0533 18.3544 66.4043 18.1841 66.8804 18.1841C68.1297 18.1841 68.9204 19.1641 68.9204 20.5838C68.9204 22.0034 68.0307 22.9834 66.8091 22.9834C66.3052 22.9834 65.9647 22.794 65.7492 22.615C65.6241 22.5073 65.5251 22.3909 65.4434 22.2554H65.426C65.426 22.2814 65.426 22.3179 65.4347 22.3544C65.4434 22.417 65.4434 22.4986 65.4434 22.5977V22.8757H64.3643V17.3501V17.3466ZM66.6111 22.019C67.2314 22.019 67.7701 21.5064 67.7701 20.5994C67.7701 19.6924 67.3113 19.1624 66.6284 19.1624C66.0272 19.1624 65.4781 19.602 65.4781 20.6081C65.4781 21.3188 65.8465 22.019 66.6111 22.019Z" fill="white"/>
<path d="M71.8403 18.1824C73.2426 18.1824 74.3651 19.1798 74.3651 20.5803C74.3651 21.9808 73.2426 22.9799 71.849 22.9799C70.4554 22.9799 69.3242 21.9912 69.3242 20.5803C69.3242 19.1693 70.4467 18.1824 71.8403 18.1824ZM71.849 22.0103C72.5944 22.0103 73.2061 21.4352 73.2061 20.582C73.2061 19.7289 72.5944 19.1537 71.849 19.1537C71.1035 19.1537 70.4832 19.7375 70.4832 20.582C70.4832 21.4265 71.1035 22.0103 71.849 22.0103Z" fill="white"/>
<path d="M74.8616 22.0191H75.5271V19.3414C75.5271 19.2058 75.4645 19.1433 75.329 19.1433H74.8164V18.2901H76.0119C76.4168 18.2901 76.6235 18.4795 76.6235 18.8462V19.1155C76.6235 19.1972 76.6235 19.2597 76.6148 19.3223C76.6062 19.3501 76.6062 19.3761 76.6062 19.4022H76.6235C76.839 18.7471 77.369 18.2258 78.0797 18.2258C78.1422 18.2258 78.1874 18.2258 78.2239 18.2345C78.2517 18.2432 78.2691 18.2432 78.2864 18.2432V19.3657C78.2604 19.3657 78.2326 19.3657 78.2048 19.357C78.1422 19.3483 78.0883 19.3483 78.0067 19.3483C77.0805 19.3483 76.6687 20.1563 76.6687 21.0199V22.0173H77.3238V22.8705H74.8616V22.0173V22.0191Z" fill="white"/>
<path d="M81.0513 20.0433H81.338V19.8904C81.338 19.3066 80.9696 19.0998 80.4935 19.0998C80.1425 19.0998 79.8384 19.2075 79.5952 19.3153C79.4509 19.3778 79.3171 19.4595 79.199 19.5394L78.7767 18.7488C78.921 18.6411 79.0826 18.542 79.2702 18.4621C79.5847 18.3179 80.0435 18.1841 80.5908 18.1841C81.821 18.1841 82.4779 18.8131 82.4779 19.9895V21.8227C82.4779 21.9582 82.5404 22.0207 82.676 22.0207H83.0895V22.8739H82.0122C81.5899 22.8739 81.4283 22.6498 81.4283 22.3891V22.3353C81.4283 22.264 81.437 22.2101 81.4457 22.165C81.4544 22.1389 81.4544 22.1198 81.4544 22.1024H81.437C81.3554 22.264 81.2476 22.4082 81.1138 22.542C80.8706 22.7662 80.53 22.9816 79.9913 22.9816C79.2007 22.9816 78.4727 22.5229 78.4727 21.5898C78.4727 20.1876 80.3145 20.0451 81.0513 20.0451M80.2867 22.1302C80.9071 22.1302 81.3467 21.4647 81.3467 20.8896V20.7366H81.1573C80.6985 20.7366 79.6212 20.8079 79.6212 21.5012C79.6212 21.8522 79.8645 22.1302 80.2867 22.1302Z" fill="white"/>
<path d="M83.8878 19.145H83.1875V18.2918H83.9242V17.0425H85.0294V18.2918H86.0719V19.145H85.0294V21.0772C85.0294 21.8678 85.6219 21.9669 85.9451 21.9669C86.0077 21.9669 86.0615 21.9582 86.098 21.9582H86.1519V22.893L86.0528 22.9104C85.9903 22.9191 85.9086 22.9191 85.8009 22.9191C85.1545 22.9191 83.886 22.7297 83.886 21.1937V19.145H83.8878Z" fill="white"/>
<path d="M86.6194 22.019H87.2849V19.1433H86.5742V18.2901H88.4248V22.019H89.0799V22.8722H86.6177V22.019H86.6194ZM87.2762 16.4934H88.4265V17.5082H87.2762V16.4934Z" fill="white"/>
<path d="M89.1445 18.2903H91.3461V19.1435H90.8335L91.6241 21.4076C91.6693 21.524 91.6867 21.6508 91.7145 21.7499L91.7405 21.9115H91.7683L91.7961 21.7499C91.8222 21.6508 91.8413 21.5257 91.8761 21.4076L92.6754 19.1435H92.1541V18.2903H94.3556V19.1435H93.8083L92.406 22.8724H91.0941L89.7023 19.1435H89.1445V18.2903Z" fill="white"/>
<path d="M96.8618 18.1824C98.1824 18.1824 98.9018 19.1433 98.9018 20.3562C98.9018 20.4187 98.9018 20.5178 98.8931 20.5994L98.8757 20.7437H95.7046C95.7758 21.5794 96.3875 22.0191 97.079 22.0191C97.4648 22.0191 97.7793 21.9113 98.0226 21.7758C98.1668 21.7046 98.2919 21.6229 98.4083 21.5325L98.8479 22.3405C98.7124 22.4569 98.5421 22.556 98.3544 22.655C98.0312 22.8253 97.5725 22.9782 96.9974 22.9782C95.4787 22.9782 94.5352 21.8731 94.5352 20.5786C94.5352 19.1676 95.4874 18.1807 96.8618 18.1807M97.7237 20.0677C97.6959 19.43 97.3275 19.0616 96.834 19.0616C96.2502 19.0616 95.8366 19.4561 95.7289 20.0677H97.7237Z" fill="white"/>
<path d="M77.2712 27.7567V32H76.4023V27.7567" fill="url(#paint4_linear_8_22390)"/>
<path d="M62.6813 27.7567V32H61.8125V27.7567" fill="url(#paint5_linear_8_22390)"/>
<path d="M44.3828 25.0496H98.9024" stroke="white" stroke-miterlimit="10"/>
</g>
<defs>
<linearGradient id="paint0_linear_8_22390" x1="29.1698" y1="11.4493" x2="40.9439" y2="11.4493" gradientUnits="userSpaceOnUse">
<stop stop-color="#026735"/>
<stop offset="0.44" stop-color="#14A34A"/>
<stop offset="1" stop-color="#18B24B"/>
</linearGradient>
<linearGradient id="paint1_linear_8_22390" x1="29.0514" y1="11.5681" x2="41.2338" y2="11.5681" gradientUnits="userSpaceOnUse">
<stop stop-color="#026735"/>
<stop offset="0.44" stop-color="#14A34A"/>
<stop offset="1" stop-color="#18B24B"/>
</linearGradient>
<linearGradient id="paint2_linear_8_22390" x1="33.5536" y1="4.59077" x2="38.6779" y2="4.59077" gradientUnits="userSpaceOnUse">
<stop stop-color="#026735"/>
<stop offset="0.44" stop-color="#14A34A"/>
<stop offset="1" stop-color="#18B24B"/>
</linearGradient>
<linearGradient id="paint3_linear_8_22390" x1="32.0286" y1="5.34845" x2="37.5038" y2="5.34845" gradientUnits="userSpaceOnUse">
<stop stop-color="#026735"/>
<stop offset="0.44" stop-color="#14A34A"/>
<stop offset="1" stop-color="#18B24B"/>
</linearGradient>
<linearGradient id="paint4_linear_8_22390" x1="76.6956" y1="29.632" x2="77.7051" y2="29.632" gradientUnits="userSpaceOnUse">
<stop stop-color="#18B24B"/>
<stop offset="1" stop-color="#18B24B"/>
</linearGradient>
<linearGradient id="paint5_linear_8_22390" x1="62.1057" y1="29.632" x2="63.1153" y2="29.632" gradientUnits="userSpaceOnUse">
<stop stop-color="#EC6A24"/>
<stop offset="1" stop-color="#EC6A24"/>
</linearGradient>
<clipPath id="clip0_8_22390">
<rect width="98.9018" height="32" fill="white"/>
</clipPath>
</defs>
</svg>
