<svg width="32" height="33" viewBox="0 0 32 33" fill="none" xmlns="http://www.w3.org/2000/svg">
<path d="M9 18.5C9 18.2239 9.22386 18 9.5 18H11.5C11.7761 18 12 18.2239 12 18.5V31.5C12 31.7761 11.7761 32 11.5 32H9.5C9.22386 32 9 31.7761 9 31.5V18.5Z" fill="#8696A5"/>
<path d="M22.2062 24.3536C22.5853 24.7093 22.5853 25.2921 22.2062 25.6435L19.8404 27.8634C19.5298 28.1548 19 27.9491 19 27.5377V26H13.5C13.2239 26 13 25.7761 13 25.5V24.5C13 24.2239 13.2239 24 13.5 24H19V22.4636C19 22.0522 19.5298 21.8465 19.8404 22.1337L22.2062 24.3536Z" fill="#8696A5"/>
<line x1="0.5" y1="0.5" x2="31.5" y2="0.5" stroke="#EBEEF0" stroke-linecap="round"/>
</svg>
