<svg width="16" height="16" viewBox="0 0 16 16" fill="none" xmlns="http://www.w3.org/2000/svg">
<path fill-rule="evenodd" clip-rule="evenodd" d="M3.33325 0.833496C2.58951 0.833496 1.93987 1.01977 1.4797 1.47994C1.01953 1.94012 0.833252 2.58976 0.833252 3.3335V4.66683C0.833252 5.41057 1.01953 6.06021 1.4797 6.52038C1.93987 6.98056 2.58951 7.16683 3.33325 7.16683H4.66658C5.41032 7.16683 6.05997 6.98056 6.52014 6.52038C6.98031 6.06021 7.16658 5.41057 7.16658 4.66683V3.3335C7.16658 2.58976 6.98031 1.94012 6.52014 1.47994C6.05997 1.01977 5.41032 0.833496 4.66658 0.833496H3.33325ZM1.83325 3.3335C1.83325 2.7439 1.98031 2.39354 2.18681 2.18705C2.3933 1.98056 2.74366 1.8335 3.33325 1.8335H4.66658C5.25618 1.8335 5.60654 1.98056 5.81303 2.18705C6.01953 2.39354 6.16658 2.7439 6.16658 3.3335V4.66683C6.16658 5.25642 6.01953 5.60678 5.81303 5.81328C5.60654 6.01977 5.25618 6.16683 4.66658 6.16683H3.33325C2.74366 6.16683 2.3933 6.01977 2.18681 5.81328C1.98031 5.60678 1.83325 5.25642 1.83325 4.66683V3.3335ZM11.3333 0.833496C10.5895 0.833496 9.93987 1.01977 9.4797 1.47994C9.01953 1.94012 8.83325 2.58976 8.83325 3.3335V4.66683C8.83325 5.41057 9.01953 6.06021 9.4797 6.52038C9.93987 6.98056 10.5895 7.16683 11.3333 7.16683H12.6666C13.4103 7.16683 14.06 6.98056 14.5201 6.52038C14.9803 6.06021 15.1666 5.41057 15.1666 4.66683V3.3335C15.1666 2.58976 14.9803 1.94012 14.5201 1.47994C14.06 1.01977 13.4103 0.833496 12.6666 0.833496H11.3333ZM9.83325 3.3335C9.83325 2.7439 9.98031 2.39354 10.1868 2.18705C10.3933 1.98056 10.7437 1.8335 11.3333 1.8335H12.6666C13.2562 1.8335 13.6065 1.98056 13.813 2.18705C14.0195 2.39354 14.1666 2.7439 14.1666 3.3335V4.66683C14.1666 5.25642 14.0195 5.60678 13.813 5.81328C13.6065 6.01977 13.2562 6.16683 12.6666 6.16683H11.3333C10.7437 6.16683 10.3933 6.01977 10.1868 5.81328C9.98031 5.60678 9.83325 5.25642 9.83325 4.66683V3.3335ZM9.4797 9.47994C9.93987 9.01977 10.5895 8.8335 11.3333 8.8335H12.6666C13.4103 8.8335 14.06 9.01977 14.5201 9.47994C14.9803 9.94012 15.1666 10.5898 15.1666 11.3335V12.6668C15.1666 13.4106 14.9803 14.0602 14.5201 14.5204C14.06 14.9806 13.4103 15.1668 12.6666 15.1668H11.3333C10.5895 15.1668 9.93987 14.9806 9.4797 14.5204C9.01953 14.0602 8.83325 13.4106 8.83325 12.6668V11.3335C8.83325 10.5898 9.01953 9.94012 9.4797 9.47994ZM10.1868 10.187C9.98031 10.3935 9.83325 10.7439 9.83325 11.3335V12.6668C9.83325 13.2564 9.98031 13.6068 10.1868 13.8133C10.3933 14.0198 10.7437 14.1668 11.3333 14.1668H12.6666C13.2562 14.1668 13.6065 14.0198 13.813 13.8133C14.0195 13.6068 14.1666 13.2564 14.1666 12.6668V11.3335C14.1666 10.7439 14.0195 10.3935 13.813 10.187C13.6065 9.98056 13.2562 9.8335 12.6666 9.8335H11.3333C10.7437 9.8335 10.3933 9.98056 10.1868 10.187ZM3.33325 8.8335C2.58951 8.8335 1.93987 9.01977 1.4797 9.47994C1.01953 9.94012 0.833252 10.5898 0.833252 11.3335V12.6668C0.833252 13.4106 1.01953 14.0602 1.4797 14.5204C1.93987 14.9806 2.58951 15.1668 3.33325 15.1668H4.66658C5.41032 15.1668 6.05997 14.9806 6.52014 14.5204C6.98031 14.0602 7.16658 13.4106 7.16658 12.6668V11.3335C7.16658 10.5898 6.98031 9.94012 6.52014 9.47994C6.05997 9.01977 5.41032 8.8335 4.66658 8.8335H3.33325ZM1.83325 11.3335C1.83325 10.7439 1.98031 10.3935 2.18681 10.187C2.3933 9.98056 2.74366 9.8335 3.33325 9.8335H4.66658C5.25618 9.8335 5.60654 9.98056 5.81303 10.187C6.01953 10.3935 6.16658 10.7439 6.16658 11.3335V12.6668C6.16658 13.2564 6.01953 13.6068 5.81303 13.8133C5.60654 14.0198 5.25618 14.1668 4.66658 14.1668H3.33325C2.74366 14.1668 2.3933 14.0198 2.18681 13.8133C1.98031 13.6068 1.83325 13.2564 1.83325 12.6668V11.3335Z" fill="#365069"/>
</svg>
