<svg width="17" height="14" viewBox="0 0 17 14" fill="none" xmlns="http://www.w3.org/2000/svg">
<g id="pdf 1">
<g clip-path="url(#clip0_36_45631)">
<g id="Group">
<g id="Vrstva_x0020_1_15_">
<path id="Vector" fill-rule="evenodd" clip-rule="evenodd" d="M2.72583 0.269531H7.0251L10.6689 4.06755V11.4547C10.6689 12.3801 9.92021 13.1288 8.99801 13.1288H2.72583C1.80043 13.1288 1.05176 12.3801 1.05176 11.4547V1.94361C1.05174 1.01821 1.80042 0.269531 2.72583 0.269531Z" fill="#E5252A"/>
<g id="Group_2">
<path id="Vector_2" opacity="0.302" fill-rule="evenodd" clip-rule="evenodd" d="M7.02148 0.269531V4.03863H10.6685L7.02148 0.269531Z" fill="white"/>
<path id="Vector_3" d="M2.91211 9.86448V7.51562H3.91142C4.15884 7.51562 4.35485 7.5831 4.50266 7.72127C4.65046 7.85622 4.72437 8.03938 4.72437 8.26752C4.72437 8.49565 4.65046 8.67881 4.50266 8.81376C4.35485 8.95193 4.15884 9.01941 3.91142 9.01941H3.51298V9.86448H2.91211ZM3.51298 8.50852H3.84394C3.93391 8.50852 4.0046 8.48923 4.05281 8.44426C4.101 8.40249 4.12672 8.34464 4.12672 8.26753C4.12672 8.19042 4.10101 8.13258 4.05281 8.09081C4.00462 8.04582 3.93392 8.02655 3.84394 8.02655H3.51298V8.50852ZM4.97177 9.86448V7.51562H5.80399C5.96787 7.51562 6.12211 7.53811 6.26669 7.58632C6.41128 7.63451 6.54303 7.702 6.6587 7.79518C6.77438 7.88514 6.86756 8.00725 6.93504 8.16148C6.9993 8.31572 7.03466 8.49245 7.03466 8.69166C7.03466 8.88767 6.99932 9.0644 6.93504 9.21862C6.86756 9.37286 6.77438 9.49496 6.6587 9.58492C6.54302 9.6781 6.41128 9.74558 6.26669 9.79379C6.12211 9.84198 5.96787 9.86448 5.80399 9.86448H4.97177ZM5.55979 9.35359H5.7333C5.82648 9.35359 5.91324 9.34396 5.99357 9.32145C6.07068 9.29897 6.14459 9.26361 6.21529 9.21542C6.28276 9.16723 6.33739 9.09974 6.37594 9.00977C6.4145 8.91981 6.43378 8.81376 6.43378 8.69166C6.43378 8.56634 6.4145 8.46031 6.37594 8.37035C6.33739 8.28038 6.28276 8.21291 6.21529 8.1647C6.14459 8.11651 6.0707 8.08116 5.99357 8.05867C5.91324 8.03618 5.82648 8.02653 5.7333 8.02653H5.55979V9.35359ZM7.3367 9.86448V7.51562H9.00757V8.02653H7.93757V8.40247H8.79228V8.91016H7.93757V9.86448H7.3367Z" fill="white"/>
</g>
</g>
</g>
</g>
</g>
<defs>
<clipPath id="clip0_36_45631">
<rect x="0.682617" y="0.269531" width="15.3628" height="12.8593" fill="white"/>
</clipPath>
</defs>
</svg>
