<svg width="16" height="16" viewBox="0 0 16 16" fill="none" xmlns="http://www.w3.org/2000/svg">
<path fill-rule="evenodd" clip-rule="evenodd" d="M2.76892 2.77014C2.15856 3.38049 1.83203 4.38257 1.83203 5.99992V9.99992C1.83203 11.6173 2.15856 12.6193 2.76892 13.2297C3.37927 13.8401 4.38135 14.1666 5.9987 14.1666H9.9987C11.616 14.1666 12.6181 13.8401 13.2285 13.2297C13.8388 12.6193 14.1654 11.6173 14.1654 9.99992V7.16658L11.9987 7.16659C10.971 7.16659 10.1268 7.00175 9.56181 6.43681C8.99686 5.87186 8.83203 5.02762 8.83203 3.99992V1.83325H5.9987C4.38135 1.83325 3.37927 2.15978 2.76892 2.77014ZM9.83203 2.54036L13.4583 6.16658L11.9987 6.16659C11.0264 6.16659 10.5373 5.99809 10.2689 5.7297C10.0005 5.46131 9.83203 4.97222 9.83203 3.99992V2.54036ZM2.06181 2.06303C2.95146 1.17339 4.28272 0.833252 5.9987 0.833252H9.33203C9.46464 0.833252 9.59182 0.88593 9.68558 0.979699L15.0189 6.31303C15.1127 6.4068 15.1654 6.53398 15.1654 6.66658V9.99992C15.1654 11.7159 14.8252 13.0472 13.9356 13.9368C13.0459 14.8265 11.7147 15.1666 9.9987 15.1666H5.9987C4.28272 15.1666 2.95146 14.8265 2.06181 13.9368C1.17217 13.0472 0.832031 11.7159 0.832031 9.99992V5.99992C0.832031 4.28394 1.17217 2.95268 2.06181 2.06303ZM4.16536 8.66659C4.16536 8.39044 4.38922 8.16659 4.66536 8.16659H8.66536C8.94151 8.16659 9.16536 8.39044 9.16536 8.66659C9.16536 8.94273 8.94151 9.16659 8.66536 9.16659H4.66536C4.38922 9.16659 4.16536 8.94273 4.16536 8.66659ZM4.16536 11.3333C4.16536 11.0571 4.38922 10.8333 4.66536 10.8333H7.33203C7.60817 10.8333 7.83203 11.0571 7.83203 11.3333C7.83203 11.6094 7.60817 11.8333 7.33203 11.8333H4.66536C4.38922 11.8333 4.16536 11.6094 4.16536 11.3333Z" fill="#365069"/>
</svg>
