<svg width="12" height="12" viewBox="0 0 12 12" fill="none" xmlns="http://www.w3.org/2000/svg">
<path fill-rule="evenodd" clip-rule="evenodd" d="M5.44614 0.923077C2.94812 0.923077 0.923077 2.94812 0.923077 5.44614C0.923077 7.94416 2.94812 9.9692 5.44614 9.9692C7.94416 9.9692 9.9692 7.94416 9.9692 5.44614C9.9692 2.94812 7.94416 0.923077 5.44614 0.923077ZM0 5.44614C0 2.43832 2.43832 0 5.44614 0C8.45396 0 10.8923 2.43832 10.8923 5.44614C10.8923 6.78513 10.4091 8.01126 9.60749 8.95966C9.62197 8.97103 9.63593 8.98338 9.64927 8.99673L11.8646 11.2121C12.0449 11.3923 12.0449 11.6846 11.8646 11.8648C11.6844 12.0451 11.3922 12.0451 11.2119 11.8648L8.99656 9.64944C8.98321 9.63609 8.97085 9.62213 8.95948 9.60765C8.01111 10.4091 6.78505 10.8923 5.44614 10.8923C2.43832 10.8923 0 8.45396 0 5.44614Z" fill="#8696A5"/>
</svg>
