<svg width="20" height="20" viewBox="0 0 20 20" fill="none" xmlns="http://www.w3.org/2000/svg">
<path fill-rule="evenodd" clip-rule="evenodd" d="M10.003 3.5C10.1358 3.5 10.2631 3.55279 10.3568 3.64673L12.4693 5.76249C12.6644 5.95791 12.6641 6.27449 12.4687 6.4696C12.2733 6.66471 11.9567 6.66446 11.7616 6.46904L10.5032 5.20867V11.8943C10.5032 12.1704 10.2794 12.3943 10.0032 12.3943C9.72708 12.3943 9.50323 12.1704 9.50323 11.8943V5.20824L8.24441 6.46904C8.0493 6.66446 7.73272 6.66471 7.53731 6.4696C7.34189 6.27449 7.34164 5.95791 7.53675 5.76249L9.64918 3.64673C9.74297 3.55279 9.87027 3.5 10.003 3.5ZM12.3047 7.99923C12.3284 7.7241 12.5707 7.52031 12.8458 7.54404C14.0557 7.64839 15.0083 8.02154 15.6411 8.8027C16.2627 9.5699 16.4999 10.6397 16.4999 11.9643V12.0464C16.4999 13.5072 16.2109 14.66 15.437 15.4351C14.6629 16.2104 13.5114 16.5 12.0525 16.5H7.94741C6.48845 16.5 5.33696 16.2104 4.56287 15.4351C3.78897 14.66 3.5 13.5072 3.5 12.0464V11.9643C3.5 10.6493 3.73401 9.586 4.34552 8.82039C4.96871 8.04018 5.90746 7.66202 7.1001 7.55067C7.37504 7.525 7.61874 7.72708 7.64441 8.00202C7.67008 8.27697 7.46801 8.52067 7.19306 8.54634C6.15345 8.64341 5.51892 8.95366 5.12687 9.44449C4.72316 9.94993 4.5 10.7403 4.5 11.9643V12.0464C4.5 13.4086 4.7754 14.2327 5.27053 14.7286C5.76548 15.2243 6.58769 15.5 7.94741 15.5H12.0525C13.4122 15.5 14.2344 15.2243 14.7293 14.7286C15.2245 14.2327 15.4999 13.4086 15.4999 12.0464V11.9643C15.4999 10.731 15.2736 9.9376 14.8641 9.43218C14.466 8.94073 13.8201 8.63178 12.7599 8.54034C12.4848 8.51661 12.281 8.27435 12.3047 7.99923Z" fill="#365069"/>
</svg>
