<svg width="63" height="101" viewBox="0 0 63 101" fill="none" xmlns="http://www.w3.org/2000/svg">
<path d="M2.74422 0.608454L40.7197 0.608458L62.291 22.1798L62.291 77.3633L2.74421 77.3633L2.74422 0.608454Z" fill="#E6E6E6"/>
<path d="M0.0351057 2.81263L38.0105 2.81264L59.5781 24.3802L59.5781 79.5637L0.035099 79.5637L0.0351057 2.81263Z" fill="#8DDDA8"/>
<path d="M38.0105 2.81301L59.5781 24.3806L38.0105 24.3806L38.0105 2.81301Z" fill="#67D18B"/>
<path d="M9.81489 38.5921L47.5035 38.5921C47.6857 38.5921 47.8604 38.5197 47.9892 38.3909C48.118 38.262 48.1904 38.0873 48.1904 37.9051C48.1904 37.7229 48.118 37.5482 47.9892 37.4194C47.8604 37.2905 47.6857 37.2181 47.5035 37.2181L9.81489 37.2181C9.63269 37.2181 9.45797 37.2905 9.32914 37.4194C9.20031 37.5482 9.12792 37.7229 9.12792 37.9051C9.12792 38.0873 9.20031 38.262 9.32914 38.3909C9.45797 38.5197 9.63269 38.5921 9.81489 38.5921Z" fill="white"/>
<path d="M9.81136 47.7148L47.4999 47.7148C47.6738 47.7019 47.8364 47.6238 47.955 47.496C48.0737 47.3682 48.1396 47.2003 48.1396 47.0259C48.1396 46.8516 48.0737 46.6837 47.955 46.5559C47.8364 46.4281 47.6738 46.35 47.4999 46.3371L9.81136 46.3371C9.71661 46.3301 9.62143 46.3427 9.53177 46.3741C9.44211 46.4055 9.35993 46.4551 9.29031 46.5198C9.22069 46.5844 9.16515 46.6628 9.12718 46.7498C9.08921 46.8369 9.06961 46.9309 9.06961 47.0259C9.06961 47.1209 9.08921 47.2149 9.12718 47.302C9.16515 47.3891 9.22069 47.4674 9.29031 47.5321C9.35993 47.5967 9.44211 47.6463 9.53177 47.6778C9.62143 47.7092 9.71661 47.7218 9.81136 47.7148Z" fill="white"/>
<path d="M9.81489 56.8336L47.5035 56.8336C47.6857 56.8336 47.8604 56.7613 47.9892 56.6324C48.118 56.5036 48.1904 56.3289 48.1904 56.1467C48.1904 55.9645 48.118 55.7897 47.9892 55.6609C47.8604 55.5321 47.6857 55.4597 47.5035 55.4597L9.81489 55.4597C9.63269 55.4597 9.45797 55.5321 9.32914 55.6609C9.20031 55.7897 9.12792 55.9645 9.12792 56.1467C9.12792 56.3289 9.20031 56.5036 9.32914 56.6324C9.45797 56.7613 9.63269 56.8336 9.81489 56.8336Z" fill="white"/>
<path d="M28.6538 65.9566L47.4999 65.9566C47.6738 65.9437 47.8364 65.8655 47.955 65.7378C48.0737 65.61 48.1396 65.4421 48.1396 65.2677C48.1396 65.0934 48.0737 64.9254 47.955 64.7977C47.8364 64.6699 47.6738 64.5917 47.4999 64.5789L28.6538 64.5789C28.4799 64.5917 28.3173 64.6699 28.1986 64.7977C28.08 64.9254 28.0141 65.0934 28.0141 65.2677C28.0141 65.4421 28.08 65.61 28.1986 65.7378C28.3173 65.8655 28.4799 65.9437 28.6538 65.9566Z" fill="white"/>
<g filter="url(#filter0_d_142_224573)">
<rect x="14" y="58.7607" width="34" height="34" rx="17" fill="#EBEEF0"/>
</g>
<path fill-rule="evenodd" clip-rule="evenodd" d="M30.9674 84.9348C35.9199 84.9348 39.9348 80.9199 39.9348 75.9674C39.9348 71.0148 35.9199 67 30.9674 67C26.0148 67 22 71.0148 22 75.9674C22 80.9199 26.0148 84.9348 30.9674 84.9348ZM35.4688 72.8661C35.2686 72.6672 34.9444 72.6671 34.744 72.8659L29.585 77.9861L27.1913 75.6062C26.9911 75.4072 26.6669 75.407 26.4666 75.6058C26.2655 75.8052 26.2653 76.1292 26.4661 76.3288L29.2221 79.0688C29.3183 79.1645 29.4487 79.2181 29.5844 79.2182C29.7201 79.2182 29.8506 79.1648 29.9469 79.0691L35.4685 73.5891C35.6695 73.3896 35.6696 73.0656 35.4688 72.8661Z" fill="#67D18B"/>
<defs>
<filter id="filter0_d_142_224573" x="10" y="58.7607" width="42" height="42" filterUnits="userSpaceOnUse" color-interpolation-filters="sRGB">
<feFlood flood-opacity="0" result="BackgroundImageFix"/>
<feColorMatrix in="SourceAlpha" type="matrix" values="0 0 0 0 0 0 0 0 0 0 0 0 0 0 0 0 0 0 127 0" result="hardAlpha"/>
<feOffset dy="4"/>
<feGaussianBlur stdDeviation="2"/>
<feComposite in2="hardAlpha" operator="out"/>
<feColorMatrix type="matrix" values="0 0 0 0 0 0 0 0 0 0 0 0 0 0 0 0 0 0 0.25 0"/>
<feBlend mode="normal" in2="BackgroundImageFix" result="effect1_dropShadow_142_224573"/>
<feBlend mode="normal" in="SourceGraphic" in2="effect1_dropShadow_142_224573" result="shape"/>
</filter>
</defs>
</svg>
