<svg width="63" height="101" viewBox="0 0 63 101" fill="none" xmlns="http://www.w3.org/2000/svg">
<path d="M2.74422 0.608454L40.7197 0.608458L62.291 22.1798L62.291 77.3633L2.74421 77.3633L2.74422 0.608454Z" fill="#E6E6E6"/>
<path d="M0.0351057 2.81263L38.0105 2.81264L59.5781 24.3802L59.5781 79.5637L0.035099 79.5637L0.0351057 2.81263Z" fill="#F39A97"/>
<path d="M38.0105 2.81301L59.5781 24.3806L38.0105 24.3806L38.0105 2.81301Z" fill="#EF7975"/>
<path d="M9.81489 38.592L47.5035 38.5919C47.6857 38.5919 47.8604 38.5196 47.9892 38.3907C48.118 38.2619 48.1904 38.0872 48.1904 37.905C48.1904 37.7228 48.118 37.5481 47.9892 37.4192C47.8604 37.2904 47.6857 37.218 47.5035 37.218L9.81489 37.218C9.63269 37.218 9.45797 37.2904 9.32914 37.4192C9.20031 37.5481 9.12792 37.7228 9.12792 37.905C9.12792 38.0872 9.20031 38.2619 9.32914 38.3907C9.45797 38.5196 9.63269 38.592 9.81489 38.592Z" fill="white"/>
<path d="M9.81136 47.7148L47.4999 47.7148C47.6738 47.7019 47.8364 47.6238 47.955 47.496C48.0737 47.3682 48.1396 47.2003 48.1396 47.0259C48.1396 46.8516 48.0737 46.6837 47.955 46.5559C47.8364 46.4281 47.6738 46.35 47.4999 46.3371L9.81136 46.3371C9.71661 46.3301 9.62143 46.3427 9.53177 46.3741C9.44211 46.4055 9.35993 46.4551 9.29031 46.5198C9.22069 46.5844 9.16515 46.6628 9.12718 46.7498C9.08921 46.8369 9.06961 46.9309 9.06961 47.0259C9.06961 47.1209 9.08921 47.2149 9.12718 47.302C9.16515 47.3891 9.22069 47.4674 9.29031 47.5321C9.35993 47.5967 9.44211 47.6463 9.53177 47.6778C9.62143 47.7092 9.71661 47.7218 9.81136 47.7148Z" fill="white"/>
<path d="M9.81489 56.8336L47.5035 56.8336C47.6857 56.8336 47.8604 56.7613 47.9892 56.6324C48.118 56.5036 48.1904 56.3289 48.1904 56.1467C48.1904 55.9645 48.118 55.7897 47.9892 55.6609C47.8604 55.5321 47.6857 55.4597 47.5035 55.4597L9.81489 55.4597C9.63269 55.4597 9.45797 55.5321 9.32914 55.6609C9.20031 55.7897 9.12792 55.9645 9.12792 56.1467C9.12792 56.3289 9.20031 56.5036 9.32914 56.6324C9.45797 56.7613 9.63269 56.8336 9.81489 56.8336Z" fill="white"/>
<path d="M28.6538 65.9566L47.4999 65.9566C47.6738 65.9437 47.8364 65.8655 47.955 65.7378C48.0737 65.61 48.1396 65.4421 48.1396 65.2677C48.1396 65.0934 48.0737 64.9254 47.955 64.7977C47.8364 64.6699 47.6738 64.5917 47.4999 64.5789L28.6538 64.5789C28.4799 64.5917 28.3173 64.6699 28.1986 64.7977C28.08 64.9254 28.0141 65.0934 28.0141 65.2677C28.0141 65.4421 28.08 65.61 28.1986 65.7378C28.3173 65.8655 28.4799 65.9437 28.6538 65.9566Z" fill="white"/>
<g filter="url(#filter0_d_140_196912)">
<rect x="14" y="58.7607" width="34" height="34" rx="17" fill="#EBEEF0"/>
</g>
<path d="M31.249 83.4993C35.2531 83.4993 38.499 80.2533 38.499 76.2493C38.499 72.2452 35.2531 68.9993 31.249 68.9993C27.245 68.9993 23.999 72.2452 23.999 76.2493C23.999 80.2533 27.245 83.4993 31.249 83.4993Z" fill="white"/>
<path fill-rule="evenodd" clip-rule="evenodd" d="M31 67C35.9627 67 40 71.0373 40 76C40 80.9626 35.9626 85 31 85C26.0374 85 22 80.9626 22 76C22 71.0373 26.0374 67 31 67ZM28.9675 72.4645C28.577 72.0739 27.9438 72.0739 27.5533 72.4645C27.1628 72.855 27.1628 73.4882 27.5533 73.8787L29.6747 75.9994L27.5533 78.1213C27.1628 78.5118 27.1628 79.145 27.5533 79.5355C27.9438 79.9261 28.577 79.9261 28.9675 79.5355L31.0888 77.4135L33.2102 79.5355C33.6007 79.9261 34.2338 79.9261 34.6244 79.5355C35.0149 79.145 35.0149 78.5118 34.6244 78.1213L32.5029 75.9994L34.6244 73.8787C35.0149 73.4882 35.0149 72.855 34.6244 72.4645C34.2338 72.0739 33.6007 72.0739 33.2102 72.4645L31.0888 74.5853L28.9675 72.4645Z" fill="#EF7975"/>
<defs>
<filter id="filter0_d_140_196912" x="10" y="58.7607" width="42" height="42" filterUnits="userSpaceOnUse" color-interpolation-filters="sRGB">
<feFlood flood-opacity="0" result="BackgroundImageFix"/>
<feColorMatrix in="SourceAlpha" type="matrix" values="0 0 0 0 0 0 0 0 0 0 0 0 0 0 0 0 0 0 127 0" result="hardAlpha"/>
<feOffset dy="4"/>
<feGaussianBlur stdDeviation="2"/>
<feComposite in2="hardAlpha" operator="out"/>
<feColorMatrix type="matrix" values="0 0 0 0 0 0 0 0 0 0 0 0 0 0 0 0 0 0 0.25 0"/>
<feBlend mode="normal" in2="BackgroundImageFix" result="effect1_dropShadow_140_196912"/>
<feBlend mode="normal" in="SourceGraphic" in2="effect1_dropShadow_140_196912" result="shape"/>
</filter>
</defs>
</svg>
