<svg width="40" height="41" viewBox="0 0 40 41" fill="none" xmlns="http://www.w3.org/2000/svg">
<path d="M28.6533 15.0967H21.3596V26.3481C21.3596 27.0862 20.7473 27.6983 20.009 27.6983C19.2706 27.6983 18.6583 27.0862 18.6583 26.3481V15.0967H11.3647C5.60179 15.0967 2 18.6971 2 24.4578V29.1204C2 34.8992 5.60179 38.4996 11.3647 38.4996H28.6353C34.3981 38.4996 37.9999 34.8992 37.9999 29.1384V24.4578C38.0179 18.6971 34.4161 15.0967 28.6533 15.0967Z" fill="#F26841"/>
<path d="M21.3597 7.10408L25.0876 10.8305C25.3577 11.1006 25.6999 11.2266 26.0421 11.2266C26.3842 11.2266 26.7264 11.1006 26.9965 10.8305C27.5188 10.3085 27.5188 9.44437 26.9965 8.9223L20.9635 2.89155C20.4413 2.36948 19.5768 2.36948 19.0546 2.89155L13.0216 8.9223C12.4993 9.44437 12.4993 10.3085 13.0216 10.8305C13.5438 11.3526 14.4083 11.3526 14.9305 10.8305L18.6584 7.10408V15.0971H21.3597V7.10408Z" fill="#F26841"/>
</svg>
